G04 #@! TF.GenerationSoftware,KiCad,Pcbnew,(7.0.0)*
G04 #@! TF.CreationDate,2023-03-10T21:16:59+00:00*
G04 #@! TF.ProjectId,12v_servo_driver,3132765f-7365-4727-966f-5f6472697665,A*
G04 #@! TF.SameCoordinates,Original*
G04 #@! TF.FileFunction,Legend,Bot*
G04 #@! TF.FilePolarity,Positive*
%FSLAX46Y46*%
G04 Gerber Fmt 4.6, Leading zero omitted, Abs format (unit mm)*
G04 Created by KiCad (PCBNEW (7.0.0)) date 2023-03-10 21:16:59*
%MOMM*%
%LPD*%
G01*
G04 APERTURE LIST*
G04 Aperture macros list*
%AMRoundRect*
0 Rectangle with rounded corners*
0 $1 Rounding radius*
0 $2 $3 $4 $5 $6 $7 $8 $9 X,Y pos of 4 corners*
0 Add a 4 corners polygon primitive as box body*
4,1,4,$2,$3,$4,$5,$6,$7,$8,$9,$2,$3,0*
0 Add four circle primitives for the rounded corners*
1,1,$1+$1,$2,$3*
1,1,$1+$1,$4,$5*
1,1,$1+$1,$6,$7*
1,1,$1+$1,$8,$9*
0 Add four rect primitives between the rounded corners*
20,1,$1+$1,$2,$3,$4,$5,0*
20,1,$1+$1,$4,$5,$6,$7,0*
20,1,$1+$1,$6,$7,$8,$9,0*
20,1,$1+$1,$8,$9,$2,$3,0*%
G04 Aperture macros list end*
%ADD10C,0.150000*%
%ADD11R,1.700000X1.700000*%
%ADD12O,1.700000X1.700000*%
%ADD13RoundRect,0.250000X0.350000X0.625000X-0.350000X0.625000X-0.350000X-0.625000X0.350000X-0.625000X0*%
%ADD14O,1.200000X1.750000*%
%ADD15C,3.200000*%
G04 APERTURE END LIST*
D10*
X160400001Y-116867380D02*
X160733334Y-116391190D01*
X160971429Y-116867380D02*
X160971429Y-115867380D01*
X160971429Y-115867380D02*
X160590477Y-115867380D01*
X160590477Y-115867380D02*
X160495239Y-115915000D01*
X160495239Y-115915000D02*
X160447620Y-115962619D01*
X160447620Y-115962619D02*
X160400001Y-116057857D01*
X160400001Y-116057857D02*
X160400001Y-116200714D01*
X160400001Y-116200714D02*
X160447620Y-116295952D01*
X160447620Y-116295952D02*
X160495239Y-116343571D01*
X160495239Y-116343571D02*
X160590477Y-116391190D01*
X160590477Y-116391190D02*
X160971429Y-116391190D01*
X159590477Y-116819761D02*
X159685715Y-116867380D01*
X159685715Y-116867380D02*
X159876191Y-116867380D01*
X159876191Y-116867380D02*
X159971429Y-116819761D01*
X159971429Y-116819761D02*
X160019048Y-116724523D01*
X160019048Y-116724523D02*
X160019048Y-116343571D01*
X160019048Y-116343571D02*
X159971429Y-116248333D01*
X159971429Y-116248333D02*
X159876191Y-116200714D01*
X159876191Y-116200714D02*
X159685715Y-116200714D01*
X159685715Y-116200714D02*
X159590477Y-116248333D01*
X159590477Y-116248333D02*
X159542858Y-116343571D01*
X159542858Y-116343571D02*
X159542858Y-116438809D01*
X159542858Y-116438809D02*
X160019048Y-116534047D01*
X159209524Y-116200714D02*
X158971429Y-116867380D01*
X158971429Y-116867380D02*
X158733334Y-116200714D01*
X158352381Y-116772142D02*
X158304762Y-116819761D01*
X158304762Y-116819761D02*
X158352381Y-116867380D01*
X158352381Y-116867380D02*
X158400000Y-116819761D01*
X158400000Y-116819761D02*
X158352381Y-116772142D01*
X158352381Y-116772142D02*
X158352381Y-116867380D01*
X158352381Y-116248333D02*
X158304762Y-116295952D01*
X158304762Y-116295952D02*
X158352381Y-116343571D01*
X158352381Y-116343571D02*
X158400000Y-116295952D01*
X158400000Y-116295952D02*
X158352381Y-116248333D01*
X158352381Y-116248333D02*
X158352381Y-116343571D01*
X156942858Y-116343571D02*
X156800001Y-116391190D01*
X156800001Y-116391190D02*
X156752382Y-116438809D01*
X156752382Y-116438809D02*
X156704763Y-116534047D01*
X156704763Y-116534047D02*
X156704763Y-116676904D01*
X156704763Y-116676904D02*
X156752382Y-116772142D01*
X156752382Y-116772142D02*
X156800001Y-116819761D01*
X156800001Y-116819761D02*
X156895239Y-116867380D01*
X156895239Y-116867380D02*
X157276191Y-116867380D01*
X157276191Y-116867380D02*
X157276191Y-115867380D01*
X157276191Y-115867380D02*
X156942858Y-115867380D01*
X156942858Y-115867380D02*
X156847620Y-115915000D01*
X156847620Y-115915000D02*
X156800001Y-115962619D01*
X156800001Y-115962619D02*
X156752382Y-116057857D01*
X156752382Y-116057857D02*
X156752382Y-116153095D01*
X156752382Y-116153095D02*
X156800001Y-116248333D01*
X156800001Y-116248333D02*
X156847620Y-116295952D01*
X156847620Y-116295952D02*
X156942858Y-116343571D01*
X156942858Y-116343571D02*
X157276191Y-116343571D01*
X155723810Y-116819761D02*
X155580953Y-116867380D01*
X155580953Y-116867380D02*
X155342858Y-116867380D01*
X155342858Y-116867380D02*
X155247620Y-116819761D01*
X155247620Y-116819761D02*
X155200001Y-116772142D01*
X155200001Y-116772142D02*
X155152382Y-116676904D01*
X155152382Y-116676904D02*
X155152382Y-116581666D01*
X155152382Y-116581666D02*
X155200001Y-116486428D01*
X155200001Y-116486428D02*
X155247620Y-116438809D01*
X155247620Y-116438809D02*
X155342858Y-116391190D01*
X155342858Y-116391190D02*
X155533334Y-116343571D01*
X155533334Y-116343571D02*
X155628572Y-116295952D01*
X155628572Y-116295952D02*
X155676191Y-116248333D01*
X155676191Y-116248333D02*
X155723810Y-116153095D01*
X155723810Y-116153095D02*
X155723810Y-116057857D01*
X155723810Y-116057857D02*
X155676191Y-115962619D01*
X155676191Y-115962619D02*
X155628572Y-115915000D01*
X155628572Y-115915000D02*
X155533334Y-115867380D01*
X155533334Y-115867380D02*
X155295239Y-115867380D01*
X155295239Y-115867380D02*
X155152382Y-115915000D01*
X154342858Y-116819761D02*
X154438096Y-116867380D01*
X154438096Y-116867380D02*
X154628572Y-116867380D01*
X154628572Y-116867380D02*
X154723810Y-116819761D01*
X154723810Y-116819761D02*
X154771429Y-116724523D01*
X154771429Y-116724523D02*
X154771429Y-116343571D01*
X154771429Y-116343571D02*
X154723810Y-116248333D01*
X154723810Y-116248333D02*
X154628572Y-116200714D01*
X154628572Y-116200714D02*
X154438096Y-116200714D01*
X154438096Y-116200714D02*
X154342858Y-116248333D01*
X154342858Y-116248333D02*
X154295239Y-116343571D01*
X154295239Y-116343571D02*
X154295239Y-116438809D01*
X154295239Y-116438809D02*
X154771429Y-116534047D01*
X153866667Y-116867380D02*
X153866667Y-116200714D01*
X153866667Y-116391190D02*
X153819048Y-116295952D01*
X153819048Y-116295952D02*
X153771429Y-116248333D01*
X153771429Y-116248333D02*
X153676191Y-116200714D01*
X153676191Y-116200714D02*
X153580953Y-116200714D01*
X153342857Y-116200714D02*
X153104762Y-116867380D01*
X153104762Y-116867380D02*
X152866667Y-116200714D01*
X152342857Y-116867380D02*
X152438095Y-116819761D01*
X152438095Y-116819761D02*
X152485714Y-116772142D01*
X152485714Y-116772142D02*
X152533333Y-116676904D01*
X152533333Y-116676904D02*
X152533333Y-116391190D01*
X152533333Y-116391190D02*
X152485714Y-116295952D01*
X152485714Y-116295952D02*
X152438095Y-116248333D01*
X152438095Y-116248333D02*
X152342857Y-116200714D01*
X152342857Y-116200714D02*
X152200000Y-116200714D01*
X152200000Y-116200714D02*
X152104762Y-116248333D01*
X152104762Y-116248333D02*
X152057143Y-116295952D01*
X152057143Y-116295952D02*
X152009524Y-116391190D01*
X152009524Y-116391190D02*
X152009524Y-116676904D01*
X152009524Y-116676904D02*
X152057143Y-116772142D01*
X152057143Y-116772142D02*
X152104762Y-116819761D01*
X152104762Y-116819761D02*
X152200000Y-116867380D01*
X152200000Y-116867380D02*
X152342857Y-116867380D01*
X150409524Y-116772142D02*
X150457143Y-116819761D01*
X150457143Y-116819761D02*
X150600000Y-116867380D01*
X150600000Y-116867380D02*
X150695238Y-116867380D01*
X150695238Y-116867380D02*
X150838095Y-116819761D01*
X150838095Y-116819761D02*
X150933333Y-116724523D01*
X150933333Y-116724523D02*
X150980952Y-116629285D01*
X150980952Y-116629285D02*
X151028571Y-116438809D01*
X151028571Y-116438809D02*
X151028571Y-116295952D01*
X151028571Y-116295952D02*
X150980952Y-116105476D01*
X150980952Y-116105476D02*
X150933333Y-116010238D01*
X150933333Y-116010238D02*
X150838095Y-115915000D01*
X150838095Y-115915000D02*
X150695238Y-115867380D01*
X150695238Y-115867380D02*
X150600000Y-115867380D01*
X150600000Y-115867380D02*
X150457143Y-115915000D01*
X150457143Y-115915000D02*
X150409524Y-115962619D01*
X149838095Y-116867380D02*
X149933333Y-116819761D01*
X149933333Y-116819761D02*
X149980952Y-116772142D01*
X149980952Y-116772142D02*
X150028571Y-116676904D01*
X150028571Y-116676904D02*
X150028571Y-116391190D01*
X150028571Y-116391190D02*
X149980952Y-116295952D01*
X149980952Y-116295952D02*
X149933333Y-116248333D01*
X149933333Y-116248333D02*
X149838095Y-116200714D01*
X149838095Y-116200714D02*
X149695238Y-116200714D01*
X149695238Y-116200714D02*
X149600000Y-116248333D01*
X149600000Y-116248333D02*
X149552381Y-116295952D01*
X149552381Y-116295952D02*
X149504762Y-116391190D01*
X149504762Y-116391190D02*
X149504762Y-116676904D01*
X149504762Y-116676904D02*
X149552381Y-116772142D01*
X149552381Y-116772142D02*
X149600000Y-116819761D01*
X149600000Y-116819761D02*
X149695238Y-116867380D01*
X149695238Y-116867380D02*
X149838095Y-116867380D01*
X149076190Y-116200714D02*
X149076190Y-116867380D01*
X149076190Y-116295952D02*
X149028571Y-116248333D01*
X149028571Y-116248333D02*
X148933333Y-116200714D01*
X148933333Y-116200714D02*
X148790476Y-116200714D01*
X148790476Y-116200714D02*
X148695238Y-116248333D01*
X148695238Y-116248333D02*
X148647619Y-116343571D01*
X148647619Y-116343571D02*
X148647619Y-116867380D01*
X148314285Y-116200714D02*
X147933333Y-116200714D01*
X148171428Y-115867380D02*
X148171428Y-116724523D01*
X148171428Y-116724523D02*
X148123809Y-116819761D01*
X148123809Y-116819761D02*
X148028571Y-116867380D01*
X148028571Y-116867380D02*
X147933333Y-116867380D01*
X147599999Y-116867380D02*
X147599999Y-116200714D01*
X147599999Y-116391190D02*
X147552380Y-116295952D01*
X147552380Y-116295952D02*
X147504761Y-116248333D01*
X147504761Y-116248333D02*
X147409523Y-116200714D01*
X147409523Y-116200714D02*
X147314285Y-116200714D01*
X146838094Y-116867380D02*
X146933332Y-116819761D01*
X146933332Y-116819761D02*
X146980951Y-116772142D01*
X146980951Y-116772142D02*
X147028570Y-116676904D01*
X147028570Y-116676904D02*
X147028570Y-116391190D01*
X147028570Y-116391190D02*
X146980951Y-116295952D01*
X146980951Y-116295952D02*
X146933332Y-116248333D01*
X146933332Y-116248333D02*
X146838094Y-116200714D01*
X146838094Y-116200714D02*
X146695237Y-116200714D01*
X146695237Y-116200714D02*
X146599999Y-116248333D01*
X146599999Y-116248333D02*
X146552380Y-116295952D01*
X146552380Y-116295952D02*
X146504761Y-116391190D01*
X146504761Y-116391190D02*
X146504761Y-116676904D01*
X146504761Y-116676904D02*
X146552380Y-116772142D01*
X146552380Y-116772142D02*
X146599999Y-116819761D01*
X146599999Y-116819761D02*
X146695237Y-116867380D01*
X146695237Y-116867380D02*
X146838094Y-116867380D01*
X145933332Y-116867380D02*
X146028570Y-116819761D01*
X146028570Y-116819761D02*
X146076189Y-116724523D01*
X146076189Y-116724523D02*
X146076189Y-115867380D01*
X145409522Y-116867380D02*
X145504760Y-116819761D01*
X145504760Y-116819761D02*
X145552379Y-116724523D01*
X145552379Y-116724523D02*
X145552379Y-115867380D01*
X144647617Y-116819761D02*
X144742855Y-116867380D01*
X144742855Y-116867380D02*
X144933331Y-116867380D01*
X144933331Y-116867380D02*
X145028569Y-116819761D01*
X145028569Y-116819761D02*
X145076188Y-116724523D01*
X145076188Y-116724523D02*
X145076188Y-116343571D01*
X145076188Y-116343571D02*
X145028569Y-116248333D01*
X145028569Y-116248333D02*
X144933331Y-116200714D01*
X144933331Y-116200714D02*
X144742855Y-116200714D01*
X144742855Y-116200714D02*
X144647617Y-116248333D01*
X144647617Y-116248333D02*
X144599998Y-116343571D01*
X144599998Y-116343571D02*
X144599998Y-116438809D01*
X144599998Y-116438809D02*
X145076188Y-116534047D01*
X144171426Y-116867380D02*
X144171426Y-116200714D01*
X144171426Y-116391190D02*
X144123807Y-116295952D01*
X144123807Y-116295952D02*
X144076188Y-116248333D01*
X144076188Y-116248333D02*
X143980950Y-116200714D01*
X143980950Y-116200714D02*
X143885712Y-116200714D01*
X159821428Y-105497380D02*
X159821428Y-104497380D01*
X159392857Y-105497380D02*
X159392857Y-104973571D01*
X159392857Y-104973571D02*
X159440476Y-104878333D01*
X159440476Y-104878333D02*
X159535714Y-104830714D01*
X159535714Y-104830714D02*
X159678571Y-104830714D01*
X159678571Y-104830714D02*
X159773809Y-104878333D01*
X159773809Y-104878333D02*
X159821428Y-104925952D01*
X159059523Y-104830714D02*
X158678571Y-104830714D01*
X158916666Y-104497380D02*
X158916666Y-105354523D01*
X158916666Y-105354523D02*
X158869047Y-105449761D01*
X158869047Y-105449761D02*
X158773809Y-105497380D01*
X158773809Y-105497380D02*
X158678571Y-105497380D01*
X158488094Y-104830714D02*
X158107142Y-104830714D01*
X158345237Y-104497380D02*
X158345237Y-105354523D01*
X158345237Y-105354523D02*
X158297618Y-105449761D01*
X158297618Y-105449761D02*
X158202380Y-105497380D01*
X158202380Y-105497380D02*
X158107142Y-105497380D01*
X157773808Y-104830714D02*
X157773808Y-105830714D01*
X157773808Y-104878333D02*
X157678570Y-104830714D01*
X157678570Y-104830714D02*
X157488094Y-104830714D01*
X157488094Y-104830714D02*
X157392856Y-104878333D01*
X157392856Y-104878333D02*
X157345237Y-104925952D01*
X157345237Y-104925952D02*
X157297618Y-105021190D01*
X157297618Y-105021190D02*
X157297618Y-105306904D01*
X157297618Y-105306904D02*
X157345237Y-105402142D01*
X157345237Y-105402142D02*
X157392856Y-105449761D01*
X157392856Y-105449761D02*
X157488094Y-105497380D01*
X157488094Y-105497380D02*
X157678570Y-105497380D01*
X157678570Y-105497380D02*
X157773808Y-105449761D01*
X156916665Y-105449761D02*
X156821427Y-105497380D01*
X156821427Y-105497380D02*
X156630951Y-105497380D01*
X156630951Y-105497380D02*
X156535713Y-105449761D01*
X156535713Y-105449761D02*
X156488094Y-105354523D01*
X156488094Y-105354523D02*
X156488094Y-105306904D01*
X156488094Y-105306904D02*
X156535713Y-105211666D01*
X156535713Y-105211666D02*
X156630951Y-105164047D01*
X156630951Y-105164047D02*
X156773808Y-105164047D01*
X156773808Y-105164047D02*
X156869046Y-105116428D01*
X156869046Y-105116428D02*
X156916665Y-105021190D01*
X156916665Y-105021190D02*
X156916665Y-104973571D01*
X156916665Y-104973571D02*
X156869046Y-104878333D01*
X156869046Y-104878333D02*
X156773808Y-104830714D01*
X156773808Y-104830714D02*
X156630951Y-104830714D01*
X156630951Y-104830714D02*
X156535713Y-104878333D01*
X156059522Y-105402142D02*
X156011903Y-105449761D01*
X156011903Y-105449761D02*
X156059522Y-105497380D01*
X156059522Y-105497380D02*
X156107141Y-105449761D01*
X156107141Y-105449761D02*
X156059522Y-105402142D01*
X156059522Y-105402142D02*
X156059522Y-105497380D01*
X156059522Y-104878333D02*
X156011903Y-104925952D01*
X156011903Y-104925952D02*
X156059522Y-104973571D01*
X156059522Y-104973571D02*
X156107141Y-104925952D01*
X156107141Y-104925952D02*
X156059522Y-104878333D01*
X156059522Y-104878333D02*
X156059522Y-104973571D01*
X154869047Y-104449761D02*
X155726189Y-105735476D01*
X153821428Y-104449761D02*
X154678570Y-105735476D01*
X153059523Y-104830714D02*
X153059523Y-105640238D01*
X153059523Y-105640238D02*
X153107142Y-105735476D01*
X153107142Y-105735476D02*
X153154761Y-105783095D01*
X153154761Y-105783095D02*
X153249999Y-105830714D01*
X153249999Y-105830714D02*
X153392856Y-105830714D01*
X153392856Y-105830714D02*
X153488094Y-105783095D01*
X153059523Y-105449761D02*
X153154761Y-105497380D01*
X153154761Y-105497380D02*
X153345237Y-105497380D01*
X153345237Y-105497380D02*
X153440475Y-105449761D01*
X153440475Y-105449761D02*
X153488094Y-105402142D01*
X153488094Y-105402142D02*
X153535713Y-105306904D01*
X153535713Y-105306904D02*
X153535713Y-105021190D01*
X153535713Y-105021190D02*
X153488094Y-104925952D01*
X153488094Y-104925952D02*
X153440475Y-104878333D01*
X153440475Y-104878333D02*
X153345237Y-104830714D01*
X153345237Y-104830714D02*
X153154761Y-104830714D01*
X153154761Y-104830714D02*
X153059523Y-104878333D01*
X152583332Y-105497380D02*
X152583332Y-104830714D01*
X152583332Y-104497380D02*
X152630951Y-104545000D01*
X152630951Y-104545000D02*
X152583332Y-104592619D01*
X152583332Y-104592619D02*
X152535713Y-104545000D01*
X152535713Y-104545000D02*
X152583332Y-104497380D01*
X152583332Y-104497380D02*
X152583332Y-104592619D01*
X152249999Y-104830714D02*
X151869047Y-104830714D01*
X152107142Y-104497380D02*
X152107142Y-105354523D01*
X152107142Y-105354523D02*
X152059523Y-105449761D01*
X152059523Y-105449761D02*
X151964285Y-105497380D01*
X151964285Y-105497380D02*
X151869047Y-105497380D01*
X151535713Y-105497380D02*
X151535713Y-104497380D01*
X151107142Y-105497380D02*
X151107142Y-104973571D01*
X151107142Y-104973571D02*
X151154761Y-104878333D01*
X151154761Y-104878333D02*
X151249999Y-104830714D01*
X151249999Y-104830714D02*
X151392856Y-104830714D01*
X151392856Y-104830714D02*
X151488094Y-104878333D01*
X151488094Y-104878333D02*
X151535713Y-104925952D01*
X150202380Y-104830714D02*
X150202380Y-105497380D01*
X150630951Y-104830714D02*
X150630951Y-105354523D01*
X150630951Y-105354523D02*
X150583332Y-105449761D01*
X150583332Y-105449761D02*
X150488094Y-105497380D01*
X150488094Y-105497380D02*
X150345237Y-105497380D01*
X150345237Y-105497380D02*
X150249999Y-105449761D01*
X150249999Y-105449761D02*
X150202380Y-105402142D01*
X149726189Y-105497380D02*
X149726189Y-104497380D01*
X149726189Y-104878333D02*
X149630951Y-104830714D01*
X149630951Y-104830714D02*
X149440475Y-104830714D01*
X149440475Y-104830714D02*
X149345237Y-104878333D01*
X149345237Y-104878333D02*
X149297618Y-104925952D01*
X149297618Y-104925952D02*
X149249999Y-105021190D01*
X149249999Y-105021190D02*
X149249999Y-105306904D01*
X149249999Y-105306904D02*
X149297618Y-105402142D01*
X149297618Y-105402142D02*
X149345237Y-105449761D01*
X149345237Y-105449761D02*
X149440475Y-105497380D01*
X149440475Y-105497380D02*
X149630951Y-105497380D01*
X149630951Y-105497380D02*
X149726189Y-105449761D01*
X148821427Y-105402142D02*
X148773808Y-105449761D01*
X148773808Y-105449761D02*
X148821427Y-105497380D01*
X148821427Y-105497380D02*
X148869046Y-105449761D01*
X148869046Y-105449761D02*
X148821427Y-105402142D01*
X148821427Y-105402142D02*
X148821427Y-105497380D01*
X147916666Y-105449761D02*
X148011904Y-105497380D01*
X148011904Y-105497380D02*
X148202380Y-105497380D01*
X148202380Y-105497380D02*
X148297618Y-105449761D01*
X148297618Y-105449761D02*
X148345237Y-105402142D01*
X148345237Y-105402142D02*
X148392856Y-105306904D01*
X148392856Y-105306904D02*
X148392856Y-105021190D01*
X148392856Y-105021190D02*
X148345237Y-104925952D01*
X148345237Y-104925952D02*
X148297618Y-104878333D01*
X148297618Y-104878333D02*
X148202380Y-104830714D01*
X148202380Y-104830714D02*
X148011904Y-104830714D01*
X148011904Y-104830714D02*
X147916666Y-104878333D01*
X147345237Y-105497380D02*
X147440475Y-105449761D01*
X147440475Y-105449761D02*
X147488094Y-105402142D01*
X147488094Y-105402142D02*
X147535713Y-105306904D01*
X147535713Y-105306904D02*
X147535713Y-105021190D01*
X147535713Y-105021190D02*
X147488094Y-104925952D01*
X147488094Y-104925952D02*
X147440475Y-104878333D01*
X147440475Y-104878333D02*
X147345237Y-104830714D01*
X147345237Y-104830714D02*
X147202380Y-104830714D01*
X147202380Y-104830714D02*
X147107142Y-104878333D01*
X147107142Y-104878333D02*
X147059523Y-104925952D01*
X147059523Y-104925952D02*
X147011904Y-105021190D01*
X147011904Y-105021190D02*
X147011904Y-105306904D01*
X147011904Y-105306904D02*
X147059523Y-105402142D01*
X147059523Y-105402142D02*
X147107142Y-105449761D01*
X147107142Y-105449761D02*
X147202380Y-105497380D01*
X147202380Y-105497380D02*
X147345237Y-105497380D01*
X146583332Y-105497380D02*
X146583332Y-104830714D01*
X146583332Y-104925952D02*
X146535713Y-104878333D01*
X146535713Y-104878333D02*
X146440475Y-104830714D01*
X146440475Y-104830714D02*
X146297618Y-104830714D01*
X146297618Y-104830714D02*
X146202380Y-104878333D01*
X146202380Y-104878333D02*
X146154761Y-104973571D01*
X146154761Y-104973571D02*
X146154761Y-105497380D01*
X146154761Y-104973571D02*
X146107142Y-104878333D01*
X146107142Y-104878333D02*
X146011904Y-104830714D01*
X146011904Y-104830714D02*
X145869047Y-104830714D01*
X145869047Y-104830714D02*
X145773808Y-104878333D01*
X145773808Y-104878333D02*
X145726189Y-104973571D01*
X145726189Y-104973571D02*
X145726189Y-105497380D01*
X144535714Y-104449761D02*
X145392856Y-105735476D01*
X159035714Y-106450714D02*
X158654762Y-106450714D01*
X158892857Y-106117380D02*
X158892857Y-106974523D01*
X158892857Y-106974523D02*
X158845238Y-107069761D01*
X158845238Y-107069761D02*
X158750000Y-107117380D01*
X158750000Y-107117380D02*
X158654762Y-107117380D01*
X158321428Y-107117380D02*
X158321428Y-106117380D01*
X157892857Y-107117380D02*
X157892857Y-106593571D01*
X157892857Y-106593571D02*
X157940476Y-106498333D01*
X157940476Y-106498333D02*
X158035714Y-106450714D01*
X158035714Y-106450714D02*
X158178571Y-106450714D01*
X158178571Y-106450714D02*
X158273809Y-106498333D01*
X158273809Y-106498333D02*
X158321428Y-106545952D01*
X157035714Y-107069761D02*
X157130952Y-107117380D01*
X157130952Y-107117380D02*
X157321428Y-107117380D01*
X157321428Y-107117380D02*
X157416666Y-107069761D01*
X157416666Y-107069761D02*
X157464285Y-106974523D01*
X157464285Y-106974523D02*
X157464285Y-106593571D01*
X157464285Y-106593571D02*
X157416666Y-106498333D01*
X157416666Y-106498333D02*
X157321428Y-106450714D01*
X157321428Y-106450714D02*
X157130952Y-106450714D01*
X157130952Y-106450714D02*
X157035714Y-106498333D01*
X157035714Y-106498333D02*
X156988095Y-106593571D01*
X156988095Y-106593571D02*
X156988095Y-106688809D01*
X156988095Y-106688809D02*
X157464285Y-106784047D01*
X156654761Y-106450714D02*
X156464285Y-107117380D01*
X156464285Y-107117380D02*
X156273809Y-106641190D01*
X156273809Y-106641190D02*
X156083333Y-107117380D01*
X156083333Y-107117380D02*
X155892857Y-106450714D01*
X155369047Y-107117380D02*
X155464285Y-107069761D01*
X155464285Y-107069761D02*
X155511904Y-107022142D01*
X155511904Y-107022142D02*
X155559523Y-106926904D01*
X155559523Y-106926904D02*
X155559523Y-106641190D01*
X155559523Y-106641190D02*
X155511904Y-106545952D01*
X155511904Y-106545952D02*
X155464285Y-106498333D01*
X155464285Y-106498333D02*
X155369047Y-106450714D01*
X155369047Y-106450714D02*
X155226190Y-106450714D01*
X155226190Y-106450714D02*
X155130952Y-106498333D01*
X155130952Y-106498333D02*
X155083333Y-106545952D01*
X155083333Y-106545952D02*
X155035714Y-106641190D01*
X155035714Y-106641190D02*
X155035714Y-106926904D01*
X155035714Y-106926904D02*
X155083333Y-107022142D01*
X155083333Y-107022142D02*
X155130952Y-107069761D01*
X155130952Y-107069761D02*
X155226190Y-107117380D01*
X155226190Y-107117380D02*
X155369047Y-107117380D01*
X154607142Y-107117380D02*
X154607142Y-106450714D01*
X154607142Y-106641190D02*
X154559523Y-106545952D01*
X154559523Y-106545952D02*
X154511904Y-106498333D01*
X154511904Y-106498333D02*
X154416666Y-106450714D01*
X154416666Y-106450714D02*
X154321428Y-106450714D01*
X153988094Y-107117380D02*
X153988094Y-106117380D01*
X153892856Y-106736428D02*
X153607142Y-107117380D01*
X153607142Y-106450714D02*
X153988094Y-106831666D01*
X153178570Y-107117380D02*
X153178570Y-106450714D01*
X153178570Y-106117380D02*
X153226189Y-106165000D01*
X153226189Y-106165000D02*
X153178570Y-106212619D01*
X153178570Y-106212619D02*
X153130951Y-106165000D01*
X153130951Y-106165000D02*
X153178570Y-106117380D01*
X153178570Y-106117380D02*
X153178570Y-106212619D01*
X152749999Y-107069761D02*
X152654761Y-107117380D01*
X152654761Y-107117380D02*
X152464285Y-107117380D01*
X152464285Y-107117380D02*
X152369047Y-107069761D01*
X152369047Y-107069761D02*
X152321428Y-106974523D01*
X152321428Y-106974523D02*
X152321428Y-106926904D01*
X152321428Y-106926904D02*
X152369047Y-106831666D01*
X152369047Y-106831666D02*
X152464285Y-106784047D01*
X152464285Y-106784047D02*
X152607142Y-106784047D01*
X152607142Y-106784047D02*
X152702380Y-106736428D01*
X152702380Y-106736428D02*
X152749999Y-106641190D01*
X152749999Y-106641190D02*
X152749999Y-106593571D01*
X152749999Y-106593571D02*
X152702380Y-106498333D01*
X152702380Y-106498333D02*
X152607142Y-106450714D01*
X152607142Y-106450714D02*
X152464285Y-106450714D01*
X152464285Y-106450714D02*
X152369047Y-106498333D01*
X152035713Y-106450714D02*
X151654761Y-106450714D01*
X151892856Y-106117380D02*
X151892856Y-106974523D01*
X151892856Y-106974523D02*
X151845237Y-107069761D01*
X151845237Y-107069761D02*
X151749999Y-107117380D01*
X151749999Y-107117380D02*
X151654761Y-107117380D01*
X151321427Y-107117380D02*
X151321427Y-106117380D01*
X150892856Y-107117380D02*
X150892856Y-106593571D01*
X150892856Y-106593571D02*
X150940475Y-106498333D01*
X150940475Y-106498333D02*
X151035713Y-106450714D01*
X151035713Y-106450714D02*
X151178570Y-106450714D01*
X151178570Y-106450714D02*
X151273808Y-106498333D01*
X151273808Y-106498333D02*
X151321427Y-106545952D01*
X150035713Y-107069761D02*
X150130951Y-107117380D01*
X150130951Y-107117380D02*
X150321427Y-107117380D01*
X150321427Y-107117380D02*
X150416665Y-107069761D01*
X150416665Y-107069761D02*
X150464284Y-106974523D01*
X150464284Y-106974523D02*
X150464284Y-106593571D01*
X150464284Y-106593571D02*
X150416665Y-106498333D01*
X150416665Y-106498333D02*
X150321427Y-106450714D01*
X150321427Y-106450714D02*
X150130951Y-106450714D01*
X150130951Y-106450714D02*
X150035713Y-106498333D01*
X150035713Y-106498333D02*
X149988094Y-106593571D01*
X149988094Y-106593571D02*
X149988094Y-106688809D01*
X149988094Y-106688809D02*
X150464284Y-106784047D01*
X149654760Y-106450714D02*
X149464284Y-107117380D01*
X149464284Y-107117380D02*
X149273808Y-106641190D01*
X149273808Y-106641190D02*
X149083332Y-107117380D01*
X149083332Y-107117380D02*
X148892856Y-106450714D01*
X148369046Y-107117380D02*
X148464284Y-107069761D01*
X148464284Y-107069761D02*
X148511903Y-107022142D01*
X148511903Y-107022142D02*
X148559522Y-106926904D01*
X148559522Y-106926904D02*
X148559522Y-106641190D01*
X148559522Y-106641190D02*
X148511903Y-106545952D01*
X148511903Y-106545952D02*
X148464284Y-106498333D01*
X148464284Y-106498333D02*
X148369046Y-106450714D01*
X148369046Y-106450714D02*
X148226189Y-106450714D01*
X148226189Y-106450714D02*
X148130951Y-106498333D01*
X148130951Y-106498333D02*
X148083332Y-106545952D01*
X148083332Y-106545952D02*
X148035713Y-106641190D01*
X148035713Y-106641190D02*
X148035713Y-106926904D01*
X148035713Y-106926904D02*
X148083332Y-107022142D01*
X148083332Y-107022142D02*
X148130951Y-107069761D01*
X148130951Y-107069761D02*
X148226189Y-107117380D01*
X148226189Y-107117380D02*
X148369046Y-107117380D01*
X147607141Y-107117380D02*
X147607141Y-106450714D01*
X147607141Y-106641190D02*
X147559522Y-106545952D01*
X147559522Y-106545952D02*
X147511903Y-106498333D01*
X147511903Y-106498333D02*
X147416665Y-106450714D01*
X147416665Y-106450714D02*
X147321427Y-106450714D01*
X146988093Y-107117380D02*
X146988093Y-106117380D01*
X146892855Y-106736428D02*
X146607141Y-107117380D01*
X146607141Y-106450714D02*
X146988093Y-106831666D01*
X145464284Y-106069761D02*
X146321426Y-107355476D01*
X160773811Y-108737380D02*
X161345239Y-108737380D01*
X161059525Y-108737380D02*
X161059525Y-107737380D01*
X161059525Y-107737380D02*
X161154763Y-107880238D01*
X161154763Y-107880238D02*
X161250001Y-107975476D01*
X161250001Y-107975476D02*
X161345239Y-108023095D01*
X160392858Y-107832619D02*
X160345239Y-107785000D01*
X160345239Y-107785000D02*
X160250001Y-107737380D01*
X160250001Y-107737380D02*
X160011906Y-107737380D01*
X160011906Y-107737380D02*
X159916668Y-107785000D01*
X159916668Y-107785000D02*
X159869049Y-107832619D01*
X159869049Y-107832619D02*
X159821430Y-107927857D01*
X159821430Y-107927857D02*
X159821430Y-108023095D01*
X159821430Y-108023095D02*
X159869049Y-108165952D01*
X159869049Y-108165952D02*
X160440477Y-108737380D01*
X160440477Y-108737380D02*
X159821430Y-108737380D01*
X159488096Y-108070714D02*
X159250001Y-108737380D01*
X159250001Y-108737380D02*
X159011906Y-108070714D01*
X158869049Y-108832619D02*
X158107144Y-108832619D01*
X157916667Y-108689761D02*
X157821429Y-108737380D01*
X157821429Y-108737380D02*
X157630953Y-108737380D01*
X157630953Y-108737380D02*
X157535715Y-108689761D01*
X157535715Y-108689761D02*
X157488096Y-108594523D01*
X157488096Y-108594523D02*
X157488096Y-108546904D01*
X157488096Y-108546904D02*
X157535715Y-108451666D01*
X157535715Y-108451666D02*
X157630953Y-108404047D01*
X157630953Y-108404047D02*
X157773810Y-108404047D01*
X157773810Y-108404047D02*
X157869048Y-108356428D01*
X157869048Y-108356428D02*
X157916667Y-108261190D01*
X157916667Y-108261190D02*
X157916667Y-108213571D01*
X157916667Y-108213571D02*
X157869048Y-108118333D01*
X157869048Y-108118333D02*
X157773810Y-108070714D01*
X157773810Y-108070714D02*
X157630953Y-108070714D01*
X157630953Y-108070714D02*
X157535715Y-108118333D01*
X156678572Y-108689761D02*
X156773810Y-108737380D01*
X156773810Y-108737380D02*
X156964286Y-108737380D01*
X156964286Y-108737380D02*
X157059524Y-108689761D01*
X157059524Y-108689761D02*
X157107143Y-108594523D01*
X157107143Y-108594523D02*
X157107143Y-108213571D01*
X157107143Y-108213571D02*
X157059524Y-108118333D01*
X157059524Y-108118333D02*
X156964286Y-108070714D01*
X156964286Y-108070714D02*
X156773810Y-108070714D01*
X156773810Y-108070714D02*
X156678572Y-108118333D01*
X156678572Y-108118333D02*
X156630953Y-108213571D01*
X156630953Y-108213571D02*
X156630953Y-108308809D01*
X156630953Y-108308809D02*
X157107143Y-108404047D01*
X156202381Y-108737380D02*
X156202381Y-108070714D01*
X156202381Y-108261190D02*
X156154762Y-108165952D01*
X156154762Y-108165952D02*
X156107143Y-108118333D01*
X156107143Y-108118333D02*
X156011905Y-108070714D01*
X156011905Y-108070714D02*
X155916667Y-108070714D01*
X155678571Y-108070714D02*
X155440476Y-108737380D01*
X155440476Y-108737380D02*
X155202381Y-108070714D01*
X154678571Y-108737380D02*
X154773809Y-108689761D01*
X154773809Y-108689761D02*
X154821428Y-108642142D01*
X154821428Y-108642142D02*
X154869047Y-108546904D01*
X154869047Y-108546904D02*
X154869047Y-108261190D01*
X154869047Y-108261190D02*
X154821428Y-108165952D01*
X154821428Y-108165952D02*
X154773809Y-108118333D01*
X154773809Y-108118333D02*
X154678571Y-108070714D01*
X154678571Y-108070714D02*
X154535714Y-108070714D01*
X154535714Y-108070714D02*
X154440476Y-108118333D01*
X154440476Y-108118333D02*
X154392857Y-108165952D01*
X154392857Y-108165952D02*
X154345238Y-108261190D01*
X154345238Y-108261190D02*
X154345238Y-108546904D01*
X154345238Y-108546904D02*
X154392857Y-108642142D01*
X154392857Y-108642142D02*
X154440476Y-108689761D01*
X154440476Y-108689761D02*
X154535714Y-108737380D01*
X154535714Y-108737380D02*
X154678571Y-108737380D01*
X154154762Y-108832619D02*
X153392857Y-108832619D01*
X152726190Y-108737380D02*
X152726190Y-107737380D01*
X152726190Y-108689761D02*
X152821428Y-108737380D01*
X152821428Y-108737380D02*
X153011904Y-108737380D01*
X153011904Y-108737380D02*
X153107142Y-108689761D01*
X153107142Y-108689761D02*
X153154761Y-108642142D01*
X153154761Y-108642142D02*
X153202380Y-108546904D01*
X153202380Y-108546904D02*
X153202380Y-108261190D01*
X153202380Y-108261190D02*
X153154761Y-108165952D01*
X153154761Y-108165952D02*
X153107142Y-108118333D01*
X153107142Y-108118333D02*
X153011904Y-108070714D01*
X153011904Y-108070714D02*
X152821428Y-108070714D01*
X152821428Y-108070714D02*
X152726190Y-108118333D01*
X152249999Y-108737380D02*
X152249999Y-108070714D01*
X152249999Y-108261190D02*
X152202380Y-108165952D01*
X152202380Y-108165952D02*
X152154761Y-108118333D01*
X152154761Y-108118333D02*
X152059523Y-108070714D01*
X152059523Y-108070714D02*
X151964285Y-108070714D01*
X151630951Y-108737380D02*
X151630951Y-108070714D01*
X151630951Y-107737380D02*
X151678570Y-107785000D01*
X151678570Y-107785000D02*
X151630951Y-107832619D01*
X151630951Y-107832619D02*
X151583332Y-107785000D01*
X151583332Y-107785000D02*
X151630951Y-107737380D01*
X151630951Y-107737380D02*
X151630951Y-107832619D01*
X151249999Y-108070714D02*
X151011904Y-108737380D01*
X151011904Y-108737380D02*
X150773809Y-108070714D01*
X150011904Y-108689761D02*
X150107142Y-108737380D01*
X150107142Y-108737380D02*
X150297618Y-108737380D01*
X150297618Y-108737380D02*
X150392856Y-108689761D01*
X150392856Y-108689761D02*
X150440475Y-108594523D01*
X150440475Y-108594523D02*
X150440475Y-108213571D01*
X150440475Y-108213571D02*
X150392856Y-108118333D01*
X150392856Y-108118333D02*
X150297618Y-108070714D01*
X150297618Y-108070714D02*
X150107142Y-108070714D01*
X150107142Y-108070714D02*
X150011904Y-108118333D01*
X150011904Y-108118333D02*
X149964285Y-108213571D01*
X149964285Y-108213571D02*
X149964285Y-108308809D01*
X149964285Y-108308809D02*
X150440475Y-108404047D01*
X149535713Y-108737380D02*
X149535713Y-108070714D01*
X149535713Y-108261190D02*
X149488094Y-108165952D01*
X149488094Y-108165952D02*
X149440475Y-108118333D01*
X149440475Y-108118333D02*
X149345237Y-108070714D01*
X149345237Y-108070714D02*
X149249999Y-108070714D01*
X149154761Y-108832619D02*
X148392856Y-108832619D01*
X148154760Y-108737380D02*
X148154760Y-108070714D01*
X148154760Y-108165952D02*
X148107141Y-108118333D01*
X148107141Y-108118333D02*
X148011903Y-108070714D01*
X148011903Y-108070714D02*
X147869046Y-108070714D01*
X147869046Y-108070714D02*
X147773808Y-108118333D01*
X147773808Y-108118333D02*
X147726189Y-108213571D01*
X147726189Y-108213571D02*
X147726189Y-108737380D01*
X147726189Y-108213571D02*
X147678570Y-108118333D01*
X147678570Y-108118333D02*
X147583332Y-108070714D01*
X147583332Y-108070714D02*
X147440475Y-108070714D01*
X147440475Y-108070714D02*
X147345236Y-108118333D01*
X147345236Y-108118333D02*
X147297617Y-108213571D01*
X147297617Y-108213571D02*
X147297617Y-108737380D01*
X146678570Y-108737380D02*
X146773808Y-108689761D01*
X146773808Y-108689761D02*
X146821427Y-108642142D01*
X146821427Y-108642142D02*
X146869046Y-108546904D01*
X146869046Y-108546904D02*
X146869046Y-108261190D01*
X146869046Y-108261190D02*
X146821427Y-108165952D01*
X146821427Y-108165952D02*
X146773808Y-108118333D01*
X146773808Y-108118333D02*
X146678570Y-108070714D01*
X146678570Y-108070714D02*
X146535713Y-108070714D01*
X146535713Y-108070714D02*
X146440475Y-108118333D01*
X146440475Y-108118333D02*
X146392856Y-108165952D01*
X146392856Y-108165952D02*
X146345237Y-108261190D01*
X146345237Y-108261190D02*
X146345237Y-108546904D01*
X146345237Y-108546904D02*
X146392856Y-108642142D01*
X146392856Y-108642142D02*
X146440475Y-108689761D01*
X146440475Y-108689761D02*
X146535713Y-108737380D01*
X146535713Y-108737380D02*
X146678570Y-108737380D01*
X145488094Y-108737380D02*
X145488094Y-107737380D01*
X145488094Y-108689761D02*
X145583332Y-108737380D01*
X145583332Y-108737380D02*
X145773808Y-108737380D01*
X145773808Y-108737380D02*
X145869046Y-108689761D01*
X145869046Y-108689761D02*
X145916665Y-108642142D01*
X145916665Y-108642142D02*
X145964284Y-108546904D01*
X145964284Y-108546904D02*
X145964284Y-108261190D01*
X145964284Y-108261190D02*
X145916665Y-108165952D01*
X145916665Y-108165952D02*
X145869046Y-108118333D01*
X145869046Y-108118333D02*
X145773808Y-108070714D01*
X145773808Y-108070714D02*
X145583332Y-108070714D01*
X145583332Y-108070714D02*
X145488094Y-108118333D01*
X144583332Y-108070714D02*
X144583332Y-108737380D01*
X145011903Y-108070714D02*
X145011903Y-108594523D01*
X145011903Y-108594523D02*
X144964284Y-108689761D01*
X144964284Y-108689761D02*
X144869046Y-108737380D01*
X144869046Y-108737380D02*
X144726189Y-108737380D01*
X144726189Y-108737380D02*
X144630951Y-108689761D01*
X144630951Y-108689761D02*
X144583332Y-108642142D01*
X143964284Y-108737380D02*
X144059522Y-108689761D01*
X144059522Y-108689761D02*
X144107141Y-108594523D01*
X144107141Y-108594523D02*
X144107141Y-107737380D01*
X143202379Y-108689761D02*
X143297617Y-108737380D01*
X143297617Y-108737380D02*
X143488093Y-108737380D01*
X143488093Y-108737380D02*
X143583331Y-108689761D01*
X143583331Y-108689761D02*
X143630950Y-108594523D01*
X143630950Y-108594523D02*
X143630950Y-108213571D01*
X143630950Y-108213571D02*
X143583331Y-108118333D01*
X143583331Y-108118333D02*
X143488093Y-108070714D01*
X143488093Y-108070714D02*
X143297617Y-108070714D01*
X143297617Y-108070714D02*
X143202379Y-108118333D01*
X143202379Y-108118333D02*
X143154760Y-108213571D01*
X143154760Y-108213571D02*
X143154760Y-108308809D01*
X143154760Y-108308809D02*
X143630950Y-108404047D01*
%LPC*%
D11*
X143724999Y-113624999D03*
D12*
X146264999Y-113624999D03*
X148804999Y-113624999D03*
D13*
X160000000Y-109950000D03*
D14*
X157999999Y-109949999D03*
X155999999Y-109949999D03*
D15*
X166751000Y-111125000D03*
X138049000Y-111125000D03*
M02*
