G04 #@! TF.GenerationSoftware,KiCad,Pcbnew,(5.1.10)-1*
G04 #@! TF.CreationDate,2022-09-19T19:11:14+01:00*
G04 #@! TF.ProjectId,12v_servo_driver,3132765f-7365-4727-966f-5f6472697665,rev?*
G04 #@! TF.SameCoordinates,Original*
G04 #@! TF.FileFunction,Legend,Top*
G04 #@! TF.FilePolarity,Positive*
%FSLAX46Y46*%
G04 Gerber Fmt 4.6, Leading zero omitted, Abs format (unit mm)*
G04 Created by KiCad (PCBNEW (5.1.10)-1) date 2022-09-19 19:11:14*
%MOMM*%
%LPD*%
G01*
G04 APERTURE LIST*
%ADD10C,0.150000*%
%ADD11C,0.100000*%
%ADD12C,0.120000*%
%ADD13R,1.700000X1.700000*%
%ADD14O,1.700000X1.700000*%
%ADD15C,3.200000*%
%ADD16O,1.750000X1.200000*%
%ADD17R,3.800000X2.000000*%
%ADD18R,1.500000X2.000000*%
G04 APERTURE END LIST*
D10*
X150417161Y-108626042D02*
X150464780Y-108483185D01*
X150464780Y-108245090D01*
X150417161Y-108149852D01*
X150369542Y-108102233D01*
X150274304Y-108054614D01*
X150179066Y-108054614D01*
X150083828Y-108102233D01*
X150036209Y-108149852D01*
X149988590Y-108245090D01*
X149940971Y-108435566D01*
X149893352Y-108530804D01*
X149845733Y-108578423D01*
X149750495Y-108626042D01*
X149655257Y-108626042D01*
X149560019Y-108578423D01*
X149512400Y-108530804D01*
X149464780Y-108435566D01*
X149464780Y-108197471D01*
X149512400Y-108054614D01*
X150417161Y-107245090D02*
X150464780Y-107340328D01*
X150464780Y-107530804D01*
X150417161Y-107626042D01*
X150321923Y-107673661D01*
X149940971Y-107673661D01*
X149845733Y-107626042D01*
X149798114Y-107530804D01*
X149798114Y-107340328D01*
X149845733Y-107245090D01*
X149940971Y-107197471D01*
X150036209Y-107197471D01*
X150131447Y-107673661D01*
X150464780Y-106768900D02*
X149798114Y-106768900D01*
X149988590Y-106768900D02*
X149893352Y-106721280D01*
X149845733Y-106673661D01*
X149798114Y-106578423D01*
X149798114Y-106483185D01*
X149798114Y-106245090D02*
X150464780Y-106006995D01*
X149798114Y-105768900D01*
X150464780Y-105245090D02*
X150417161Y-105340328D01*
X150369542Y-105387947D01*
X150274304Y-105435566D01*
X149988590Y-105435566D01*
X149893352Y-105387947D01*
X149845733Y-105340328D01*
X149798114Y-105245090D01*
X149798114Y-105102233D01*
X149845733Y-105006995D01*
X149893352Y-104959376D01*
X149988590Y-104911757D01*
X150274304Y-104911757D01*
X150369542Y-104959376D01*
X150417161Y-105006995D01*
X150464780Y-105102233D01*
X150464780Y-105245090D01*
D11*
X152653180Y-106702076D02*
X152676990Y-106630647D01*
X152676990Y-106511600D01*
X152653180Y-106463980D01*
X152629371Y-106440171D01*
X152581752Y-106416361D01*
X152534133Y-106416361D01*
X152486514Y-106440171D01*
X152462704Y-106463980D01*
X152438895Y-106511600D01*
X152415085Y-106606838D01*
X152391276Y-106654457D01*
X152367466Y-106678266D01*
X152319847Y-106702076D01*
X152272228Y-106702076D01*
X152224609Y-106678266D01*
X152200800Y-106654457D01*
X152176990Y-106606838D01*
X152176990Y-106487790D01*
X152200800Y-106416361D01*
X152676990Y-106202076D02*
X152176990Y-106202076D01*
X152200800Y-105702076D02*
X152176990Y-105749695D01*
X152176990Y-105821123D01*
X152200800Y-105892552D01*
X152248419Y-105940171D01*
X152296038Y-105963980D01*
X152391276Y-105987790D01*
X152462704Y-105987790D01*
X152557942Y-105963980D01*
X152605561Y-105940171D01*
X152653180Y-105892552D01*
X152676990Y-105821123D01*
X152676990Y-105773504D01*
X152653180Y-105702076D01*
X152629371Y-105678266D01*
X152462704Y-105678266D01*
X152462704Y-105773504D01*
X152676990Y-105463980D02*
X152176990Y-105463980D01*
X152676990Y-105178266D01*
X152176990Y-105178266D01*
X152534133Y-104963980D02*
X152534133Y-104725885D01*
X152676990Y-105011600D02*
X152176990Y-104844933D01*
X152676990Y-104678266D01*
X152676990Y-104273504D02*
X152676990Y-104511600D01*
X152176990Y-104511600D01*
X154755090Y-104921038D02*
X154755090Y-105159133D01*
X154993185Y-105182942D01*
X154969376Y-105159133D01*
X154945566Y-105111514D01*
X154945566Y-104992466D01*
X154969376Y-104944847D01*
X154993185Y-104921038D01*
X155040804Y-104897228D01*
X155159852Y-104897228D01*
X155207471Y-104921038D01*
X155231280Y-104944847D01*
X155255090Y-104992466D01*
X155255090Y-105111514D01*
X155231280Y-105159133D01*
X155207471Y-105182942D01*
X154755090Y-104754371D02*
X155255090Y-104587704D01*
X154755090Y-104421038D01*
X157255400Y-105270252D02*
X157231590Y-105317871D01*
X157231590Y-105389300D01*
X157255400Y-105460728D01*
X157303019Y-105508347D01*
X157350638Y-105532157D01*
X157445876Y-105555966D01*
X157517304Y-105555966D01*
X157612542Y-105532157D01*
X157660161Y-105508347D01*
X157707780Y-105460728D01*
X157731590Y-105389300D01*
X157731590Y-105341680D01*
X157707780Y-105270252D01*
X157683971Y-105246442D01*
X157517304Y-105246442D01*
X157517304Y-105341680D01*
X157731590Y-105032157D02*
X157231590Y-105032157D01*
X157731590Y-104746442D01*
X157231590Y-104746442D01*
X157731590Y-104508347D02*
X157231590Y-104508347D01*
X157231590Y-104389300D01*
X157255400Y-104317871D01*
X157303019Y-104270252D01*
X157350638Y-104246442D01*
X157445876Y-104222633D01*
X157517304Y-104222633D01*
X157612542Y-104246442D01*
X157660161Y-104270252D01*
X157707780Y-104317871D01*
X157731590Y-104389300D01*
X157731590Y-104508347D01*
D10*
X157265142Y-117441219D02*
X157598476Y-117917409D01*
X157836571Y-117441219D02*
X157836571Y-118441219D01*
X157455619Y-118441219D01*
X157360380Y-118393600D01*
X157312761Y-118345980D01*
X157265142Y-118250742D01*
X157265142Y-118107885D01*
X157312761Y-118012647D01*
X157360380Y-117965028D01*
X157455619Y-117917409D01*
X157836571Y-117917409D01*
X156455619Y-117488838D02*
X156550857Y-117441219D01*
X156741333Y-117441219D01*
X156836571Y-117488838D01*
X156884190Y-117584076D01*
X156884190Y-117965028D01*
X156836571Y-118060266D01*
X156741333Y-118107885D01*
X156550857Y-118107885D01*
X156455619Y-118060266D01*
X156408000Y-117965028D01*
X156408000Y-117869790D01*
X156884190Y-117774552D01*
X156074666Y-118107885D02*
X155836571Y-117441219D01*
X155598476Y-118107885D01*
X155217523Y-117536457D02*
X155169904Y-117488838D01*
X155217523Y-117441219D01*
X155265142Y-117488838D01*
X155217523Y-117536457D01*
X155217523Y-117441219D01*
X155217523Y-118060266D02*
X155169904Y-118012647D01*
X155217523Y-117965028D01*
X155265142Y-118012647D01*
X155217523Y-118060266D01*
X155217523Y-117965028D01*
X154027047Y-117726933D02*
X153550857Y-117726933D01*
X154122285Y-117441219D02*
X153788952Y-118441219D01*
X153455619Y-117441219D01*
X152408000Y-117488838D02*
X152265142Y-117441219D01*
X152027047Y-117441219D01*
X151931809Y-117488838D01*
X151884190Y-117536457D01*
X151836571Y-117631695D01*
X151836571Y-117726933D01*
X151884190Y-117822171D01*
X151931809Y-117869790D01*
X152027047Y-117917409D01*
X152217523Y-117965028D01*
X152312761Y-118012647D01*
X152360380Y-118060266D01*
X152408000Y-118155504D01*
X152408000Y-118250742D01*
X152360380Y-118345980D01*
X152312761Y-118393600D01*
X152217523Y-118441219D01*
X151979428Y-118441219D01*
X151836571Y-118393600D01*
X151027047Y-117488838D02*
X151122285Y-117441219D01*
X151312761Y-117441219D01*
X151408000Y-117488838D01*
X151455619Y-117584076D01*
X151455619Y-117965028D01*
X151408000Y-118060266D01*
X151312761Y-118107885D01*
X151122285Y-118107885D01*
X151027047Y-118060266D01*
X150979428Y-117965028D01*
X150979428Y-117869790D01*
X151455619Y-117774552D01*
X150550857Y-117441219D02*
X150550857Y-118107885D01*
X150550857Y-117917409D02*
X150503238Y-118012647D01*
X150455619Y-118060266D01*
X150360380Y-118107885D01*
X150265142Y-118107885D01*
X150027047Y-118107885D02*
X149788952Y-117441219D01*
X149550857Y-118107885D01*
X149027047Y-117441219D02*
X149122285Y-117488838D01*
X149169904Y-117536457D01*
X149217523Y-117631695D01*
X149217523Y-117917409D01*
X149169904Y-118012647D01*
X149122285Y-118060266D01*
X149027047Y-118107885D01*
X148884190Y-118107885D01*
X148788952Y-118060266D01*
X148741333Y-118012647D01*
X148693714Y-117917409D01*
X148693714Y-117631695D01*
X148741333Y-117536457D01*
X148788952Y-117488838D01*
X148884190Y-117441219D01*
X149027047Y-117441219D01*
X155884190Y-115838838D02*
X155979428Y-115791219D01*
X156169904Y-115791219D01*
X156265142Y-115838838D01*
X156312761Y-115886457D01*
X156360380Y-115981695D01*
X156360380Y-116267409D01*
X156312761Y-116362647D01*
X156265142Y-116410266D01*
X156169904Y-116457885D01*
X155979428Y-116457885D01*
X155884190Y-116410266D01*
X155312761Y-115791219D02*
X155408000Y-115838838D01*
X155455619Y-115886457D01*
X155503238Y-115981695D01*
X155503238Y-116267409D01*
X155455619Y-116362647D01*
X155408000Y-116410266D01*
X155312761Y-116457885D01*
X155169904Y-116457885D01*
X155074666Y-116410266D01*
X155027047Y-116362647D01*
X154979428Y-116267409D01*
X154979428Y-115981695D01*
X155027047Y-115886457D01*
X155074666Y-115838838D01*
X155169904Y-115791219D01*
X155312761Y-115791219D01*
X154550857Y-116457885D02*
X154550857Y-115791219D01*
X154550857Y-116362647D02*
X154503238Y-116410266D01*
X154408000Y-116457885D01*
X154265142Y-116457885D01*
X154169904Y-116410266D01*
X154122285Y-116315028D01*
X154122285Y-115791219D01*
X153788952Y-116457885D02*
X153408000Y-116457885D01*
X153646095Y-116791219D02*
X153646095Y-115934076D01*
X153598476Y-115838838D01*
X153503238Y-115791219D01*
X153408000Y-115791219D01*
X153074666Y-115791219D02*
X153074666Y-116457885D01*
X153074666Y-116267409D02*
X153027047Y-116362647D01*
X152979428Y-116410266D01*
X152884190Y-116457885D01*
X152788952Y-116457885D01*
X152312761Y-115791219D02*
X152408000Y-115838838D01*
X152455619Y-115886457D01*
X152503238Y-115981695D01*
X152503238Y-116267409D01*
X152455619Y-116362647D01*
X152408000Y-116410266D01*
X152312761Y-116457885D01*
X152169904Y-116457885D01*
X152074666Y-116410266D01*
X152027047Y-116362647D01*
X151979428Y-116267409D01*
X151979428Y-115981695D01*
X152027047Y-115886457D01*
X152074666Y-115838838D01*
X152169904Y-115791219D01*
X152312761Y-115791219D01*
X151408000Y-115791219D02*
X151503238Y-115838838D01*
X151550857Y-115934076D01*
X151550857Y-116791219D01*
X150884190Y-115791219D02*
X150979428Y-115838838D01*
X151027047Y-115934076D01*
X151027047Y-116791219D01*
X150122285Y-115838838D02*
X150217523Y-115791219D01*
X150408000Y-115791219D01*
X150503238Y-115838838D01*
X150550857Y-115934076D01*
X150550857Y-116315028D01*
X150503238Y-116410266D01*
X150408000Y-116457885D01*
X150217523Y-116457885D01*
X150122285Y-116410266D01*
X150074666Y-116315028D01*
X150074666Y-116219790D01*
X150550857Y-116124552D01*
X149646095Y-115791219D02*
X149646095Y-116457885D01*
X149646095Y-116267409D02*
X149598476Y-116362647D01*
X149550857Y-116410266D01*
X149455619Y-116457885D01*
X149360380Y-116457885D01*
D11*
X162959000Y-113200595D02*
X162959000Y-112748214D01*
X163413285Y-113081547D02*
X163413285Y-112914880D01*
X163675190Y-112843452D02*
X163675190Y-113081547D01*
X163175190Y-113081547D01*
X163175190Y-112843452D01*
X162959000Y-112748214D02*
X162959000Y-112224404D01*
X163675190Y-112629166D02*
X163175190Y-112629166D01*
X163675190Y-112343452D01*
X163175190Y-112343452D01*
X163675190Y-114482523D02*
X163675190Y-114768238D01*
X163675190Y-114625380D02*
X163175190Y-114625380D01*
X163246619Y-114673000D01*
X163294238Y-114720619D01*
X163318047Y-114768238D01*
X163222809Y-114292047D02*
X163199000Y-114268238D01*
X163175190Y-114220619D01*
X163175190Y-114101571D01*
X163199000Y-114053952D01*
X163222809Y-114030142D01*
X163270428Y-114006333D01*
X163318047Y-114006333D01*
X163389476Y-114030142D01*
X163675190Y-114315857D01*
X163675190Y-114006333D01*
X163175190Y-113863476D02*
X163675190Y-113696809D01*
X163175190Y-113530142D01*
X163199000Y-116141452D02*
X163175190Y-116189071D01*
X163175190Y-116260500D01*
X163199000Y-116331928D01*
X163246619Y-116379547D01*
X163294238Y-116403357D01*
X163389476Y-116427166D01*
X163460904Y-116427166D01*
X163556142Y-116403357D01*
X163603761Y-116379547D01*
X163651380Y-116331928D01*
X163675190Y-116260500D01*
X163675190Y-116212880D01*
X163651380Y-116141452D01*
X163627571Y-116117642D01*
X163460904Y-116117642D01*
X163460904Y-116212880D01*
X163675190Y-115903357D02*
X163175190Y-115903357D01*
X163675190Y-115617642D01*
X163175190Y-115617642D01*
X163675190Y-115379547D02*
X163175190Y-115379547D01*
X163175190Y-115260500D01*
X163199000Y-115189071D01*
X163246619Y-115141452D01*
X163294238Y-115117642D01*
X163389476Y-115093833D01*
X163460904Y-115093833D01*
X163556142Y-115117642D01*
X163603761Y-115141452D01*
X163651380Y-115189071D01*
X163675190Y-115260500D01*
X163675190Y-115379547D01*
D12*
X150079400Y-112910800D02*
X157819400Y-112910800D01*
X157819400Y-112910800D02*
X157819400Y-110250800D01*
X157819400Y-110250800D02*
X150079400Y-110250800D01*
X150079400Y-110250800D02*
X150079400Y-112910800D01*
X151029400Y-110250800D02*
X151029400Y-104250800D01*
X151029400Y-104250800D02*
X151789400Y-104250800D01*
X151789400Y-104250800D02*
X151789400Y-110250800D01*
X151089400Y-110250800D02*
X151089400Y-104250800D01*
X151209400Y-110250800D02*
X151209400Y-104250800D01*
X151329400Y-110250800D02*
X151329400Y-104250800D01*
X151449400Y-110250800D02*
X151449400Y-104250800D01*
X151569400Y-110250800D02*
X151569400Y-104250800D01*
X151689400Y-110250800D02*
X151689400Y-104250800D01*
X151029400Y-113240800D02*
X151029400Y-112910800D01*
X151789400Y-113240800D02*
X151789400Y-112910800D01*
X152679400Y-112910800D02*
X152679400Y-110250800D01*
X153569400Y-110250800D02*
X153569400Y-104250800D01*
X153569400Y-104250800D02*
X154329400Y-104250800D01*
X154329400Y-104250800D02*
X154329400Y-110250800D01*
X153569400Y-113307871D02*
X153569400Y-112910800D01*
X154329400Y-113307871D02*
X154329400Y-112910800D01*
X155219400Y-112910800D02*
X155219400Y-110250800D01*
X156109400Y-110250800D02*
X156109400Y-104250800D01*
X156109400Y-104250800D02*
X156869400Y-104250800D01*
X156869400Y-104250800D02*
X156869400Y-110250800D01*
X156109400Y-113307871D02*
X156109400Y-112910800D01*
X156869400Y-113307871D02*
X156869400Y-112910800D01*
X151409400Y-115620800D02*
X150139400Y-115620800D01*
X150139400Y-115620800D02*
X150139400Y-114350800D01*
X147253500Y-114009200D02*
X143043500Y-114009200D01*
X147253500Y-117029200D02*
X147253500Y-114009200D01*
X143043500Y-117029200D02*
X147253500Y-117029200D01*
X159716500Y-105057000D02*
X159716500Y-109267000D01*
X159716500Y-109267000D02*
X162736500Y-109267000D01*
X162736500Y-109267000D02*
X162736500Y-105057000D01*
X163036500Y-110246100D02*
X158316500Y-110246100D01*
X158316500Y-110246100D02*
X158316500Y-118366100D01*
X158316500Y-118366100D02*
X163036500Y-118366100D01*
X163036500Y-118366100D02*
X163036500Y-110246100D01*
X163036500Y-112006100D02*
X163236500Y-112006100D01*
X163236500Y-112006100D02*
X163236500Y-111706100D01*
X163236500Y-111706100D02*
X163036500Y-111706100D01*
X163136500Y-112006100D02*
X163136500Y-111706100D01*
X163036500Y-112806100D02*
X162426500Y-112806100D01*
X162426500Y-112806100D02*
X162426500Y-110856100D01*
X162426500Y-110856100D02*
X158926500Y-110856100D01*
X158926500Y-110856100D02*
X158926500Y-117756100D01*
X158926500Y-117756100D02*
X162426500Y-117756100D01*
X162426500Y-117756100D02*
X162426500Y-115806100D01*
X162426500Y-115806100D02*
X163036500Y-115806100D01*
X161726500Y-110246100D02*
X161726500Y-110856100D01*
X160426500Y-110246100D02*
X160426500Y-110856100D01*
X161726500Y-118366100D02*
X161726500Y-117756100D01*
X160426500Y-118366100D02*
X160426500Y-117756100D01*
X158926500Y-113206100D02*
X159426500Y-113206100D01*
X159426500Y-113206100D02*
X159426500Y-113406100D01*
X159426500Y-113406100D02*
X158926500Y-113406100D01*
X158926500Y-113306100D02*
X159426500Y-113306100D01*
X158926500Y-115206100D02*
X159426500Y-115206100D01*
X159426500Y-115206100D02*
X159426500Y-115406100D01*
X159426500Y-115406100D02*
X158926500Y-115406100D01*
X158926500Y-115306100D02*
X159426500Y-115306100D01*
X163336500Y-111196100D02*
X163336500Y-109946100D01*
X163336500Y-109946100D02*
X162086500Y-109946100D01*
X142347900Y-112888600D02*
X142347900Y-106878600D01*
X149167900Y-110638600D02*
X149167900Y-106878600D01*
X142347900Y-106878600D02*
X143607900Y-106878600D01*
X149167900Y-106878600D02*
X147907900Y-106878600D01*
D10*
X148791680Y-114557133D02*
X149505966Y-114557133D01*
X149648823Y-114604752D01*
X149744061Y-114699990D01*
X149791680Y-114842847D01*
X149791680Y-114938085D01*
X148886919Y-114128561D02*
X148839300Y-114080942D01*
X148791680Y-113985704D01*
X148791680Y-113747609D01*
X148839300Y-113652371D01*
X148886919Y-113604752D01*
X148982157Y-113557133D01*
X149077395Y-113557133D01*
X149220252Y-113604752D01*
X149791680Y-114176180D01*
X149791680Y-113557133D01*
X148515342Y-116346266D02*
X148562961Y-116393885D01*
X148610580Y-116536742D01*
X148610580Y-116631980D01*
X148562961Y-116774838D01*
X148467723Y-116870076D01*
X148372485Y-116917695D01*
X148182009Y-116965314D01*
X148039152Y-116965314D01*
X147848676Y-116917695D01*
X147753438Y-116870076D01*
X147658200Y-116774838D01*
X147610580Y-116631980D01*
X147610580Y-116536742D01*
X147658200Y-116393885D01*
X147705819Y-116346266D01*
X147705819Y-115965314D02*
X147658200Y-115917695D01*
X147610580Y-115822457D01*
X147610580Y-115584361D01*
X147658200Y-115489123D01*
X147705819Y-115441504D01*
X147801057Y-115393885D01*
X147896295Y-115393885D01*
X148039152Y-115441504D01*
X148610580Y-116012933D01*
X148610580Y-115393885D01*
X159233642Y-106973666D02*
X159281261Y-107021285D01*
X159328880Y-107164142D01*
X159328880Y-107259380D01*
X159281261Y-107402238D01*
X159186023Y-107497476D01*
X159090785Y-107545095D01*
X158900309Y-107592714D01*
X158757452Y-107592714D01*
X158566976Y-107545095D01*
X158471738Y-107497476D01*
X158376500Y-107402238D01*
X158328880Y-107259380D01*
X158328880Y-107164142D01*
X158376500Y-107021285D01*
X158424119Y-106973666D01*
X159328880Y-106021285D02*
X159328880Y-106592714D01*
X159328880Y-106307000D02*
X158328880Y-106307000D01*
X158471738Y-106402238D01*
X158566976Y-106497476D01*
X158614595Y-106592714D01*
X164107880Y-114049133D02*
X164822166Y-114049133D01*
X164965023Y-114096752D01*
X165060261Y-114191990D01*
X165107880Y-114334847D01*
X165107880Y-114430085D01*
X165107880Y-113049133D02*
X165107880Y-113620561D01*
X165107880Y-113334847D02*
X164107880Y-113334847D01*
X164250738Y-113430085D01*
X164345976Y-113525323D01*
X164393595Y-113620561D01*
X140710280Y-109550504D02*
X141519804Y-109550504D01*
X141615042Y-109502885D01*
X141662661Y-109455266D01*
X141710280Y-109360028D01*
X141710280Y-109169552D01*
X141662661Y-109074314D01*
X141615042Y-109026695D01*
X141519804Y-108979076D01*
X140710280Y-108979076D01*
X141710280Y-107979076D02*
X141710280Y-108550504D01*
X141710280Y-108264790D02*
X140710280Y-108264790D01*
X140853138Y-108360028D01*
X140948376Y-108455266D01*
X140995995Y-108550504D01*
%LPC*%
D13*
X151409400Y-114350800D03*
D14*
X153949400Y-114350800D03*
X156489400Y-114350800D03*
G36*
G01*
X143918500Y-114594199D02*
X143918500Y-116444201D01*
G75*
G02*
X143668501Y-116694200I-249999J0D01*
G01*
X142843499Y-116694200D01*
G75*
G02*
X142593500Y-116444201I0J249999D01*
G01*
X142593500Y-114594199D01*
G75*
G02*
X142843499Y-114344200I249999J0D01*
G01*
X143668501Y-114344200D01*
G75*
G02*
X143918500Y-114594199I0J-249999D01*
G01*
G37*
G36*
G01*
X146993500Y-114594199D02*
X146993500Y-116444201D01*
G75*
G02*
X146743501Y-116694200I-249999J0D01*
G01*
X145918499Y-116694200D01*
G75*
G02*
X145668500Y-116444201I0J249999D01*
G01*
X145668500Y-114594199D01*
G75*
G02*
X145918499Y-114344200I249999J0D01*
G01*
X146743501Y-114344200D01*
G75*
G02*
X146993500Y-114594199I0J-249999D01*
G01*
G37*
D15*
X166751000Y-111125000D03*
X138049000Y-111125000D03*
G36*
G01*
X162151501Y-109007000D02*
X160301499Y-109007000D01*
G75*
G02*
X160051500Y-108757001I0J249999D01*
G01*
X160051500Y-107931999D01*
G75*
G02*
X160301499Y-107682000I249999J0D01*
G01*
X162151501Y-107682000D01*
G75*
G02*
X162401500Y-107931999I0J-249999D01*
G01*
X162401500Y-108757001D01*
G75*
G02*
X162151501Y-109007000I-249999J0D01*
G01*
G37*
G36*
G01*
X162151501Y-105932000D02*
X160301499Y-105932000D01*
G75*
G02*
X160051500Y-105682001I0J249999D01*
G01*
X160051500Y-104856999D01*
G75*
G02*
X160301499Y-104607000I249999J0D01*
G01*
X162151501Y-104607000D01*
G75*
G02*
X162401500Y-104856999I0J-249999D01*
G01*
X162401500Y-105682001D01*
G75*
G02*
X162151501Y-105932000I-249999J0D01*
G01*
G37*
G36*
G01*
X160601499Y-111706100D02*
X161851501Y-111706100D01*
G75*
G02*
X162101500Y-111956099I0J-249999D01*
G01*
X162101500Y-112656101D01*
G75*
G02*
X161851501Y-112906100I-249999J0D01*
G01*
X160601499Y-112906100D01*
G75*
G02*
X160351500Y-112656101I0J249999D01*
G01*
X160351500Y-111956099D01*
G75*
G02*
X160601499Y-111706100I249999J0D01*
G01*
G37*
D16*
X161226500Y-114306100D03*
X161226500Y-116306100D03*
D17*
X145757900Y-105638600D03*
D18*
X145757900Y-111938600D03*
X148057900Y-111938600D03*
X143457900Y-111938600D03*
M02*
