%FSLAX45Y45*%
G04 Gerber Fmt 4.5, Leading zero omitted, Abs format (unit mm)*
G04 Created by KiCad (PCBNEW (5.1.10)-1) date 2022-09-19 19:11:57*
%MOMM*%
%LPD*%
G01*
G04 APERTURE LIST*
%TA.AperFunction,Profile*%
%ADD10C,0.050000*%
%TD*%
%ADD11C,0.200000*%
%ADD12C,0.300000*%
G04 APERTURE END LIST*
D10*
X16363950Y-10463530D02*
X16363950Y-10521950D01*
X16264890Y-10364470D02*
X14260830Y-10364470D01*
X14116050Y-10521950D02*
X14116050Y-10463530D01*
X14116050Y-11761470D02*
X14116050Y-11703050D01*
X16363950Y-11761470D02*
X16363950Y-11703050D01*
X16567150Y-11499850D02*
X16675100Y-11499850D01*
X16675100Y-10725150D02*
X16567150Y-10725150D01*
X13912850Y-10725150D02*
X13804900Y-10725150D01*
X13912850Y-11499850D02*
X13804900Y-11499850D01*
X13912850Y-11499850D02*
G75*
G02*
X14116050Y-11703050I0J-203200D01*
G01*
X14116050Y-10521950D02*
G75*
G02*
X13912850Y-10725150I-203200J0D01*
G01*
X16567150Y-10725150D02*
G75*
G02*
X16363950Y-10521950I0J203200D01*
G01*
X16363950Y-11703050D02*
G75*
G02*
X16567150Y-11499850I203200J0D01*
G01*
X16675100Y-10725150D02*
G75*
G02*
X16675100Y-11499850I0J-387350D01*
G01*
X13804900Y-11499850D02*
G75*
G02*
X13804900Y-10725150I0J387350D01*
G01*
X14215110Y-11860530D02*
X16219170Y-11860530D01*
X14215110Y-11860530D02*
G75*
G02*
X14116050Y-11761470I0J99060D01*
G01*
X16363950Y-11761470D02*
G75*
G02*
X16264890Y-11860530I-99060J0D01*
G01*
X16219170Y-11860530D02*
X16264890Y-11860530D01*
X14260830Y-10364470D02*
X14215110Y-10364470D01*
X14116050Y-10463530D02*
G75*
G02*
X14215110Y-10364470I99060J0D01*
G01*
X16264890Y-10364470D02*
G75*
G02*
X16363950Y-10463530I0J-99060D01*
G01*
D11*
X16085150Y-11193110D02*
X16160150Y-11268110D01*
X16160150Y-11193110D02*
X16085150Y-11268110D01*
X16085150Y-11393110D02*
X16160150Y-11468110D01*
X16160150Y-11393110D02*
X16085150Y-11468110D01*
X16085150Y-11593110D02*
X16160150Y-11668110D01*
X16160150Y-11593110D02*
X16085150Y-11668110D01*
X15190940Y-11435080D02*
G75*
G03*
X15190940Y-11435080I-50000J0D01*
G01*
X15444940Y-11435080D02*
G75*
G03*
X15444940Y-11435080I-50000J0D01*
G01*
X15698940Y-11435080D02*
G75*
G03*
X15698940Y-11435080I-50000J0D01*
G01*
D12*
X286429Y-465714D02*
X286429Y-165714D01*
X357857Y-165714D01*
X400714Y-180000D01*
X429286Y-208571D01*
X443571Y-237143D01*
X457857Y-294286D01*
X457857Y-337143D01*
X443571Y-394286D01*
X429286Y-422857D01*
X400714Y-451428D01*
X357857Y-465714D01*
X286429Y-465714D01*
X586429Y-465714D02*
X586429Y-265714D01*
X586429Y-322857D02*
X600714Y-294286D01*
X615000Y-280000D01*
X643571Y-265714D01*
X672143Y-265714D01*
X772143Y-465714D02*
X772143Y-265714D01*
X772143Y-165714D02*
X757857Y-180000D01*
X772143Y-194286D01*
X786428Y-180000D01*
X772143Y-165714D01*
X772143Y-194286D01*
X957857Y-465714D02*
X929286Y-451428D01*
X915000Y-422857D01*
X915000Y-165714D01*
X1115000Y-465714D02*
X1086429Y-451428D01*
X1072143Y-422857D01*
X1072143Y-165714D01*
X1457857Y-465714D02*
X1457857Y-165714D01*
X1557857Y-380000D01*
X1657857Y-165714D01*
X1657857Y-465714D01*
X1929286Y-465714D02*
X1929286Y-308571D01*
X1915000Y-280000D01*
X1886428Y-265714D01*
X1829286Y-265714D01*
X1800714Y-280000D01*
X1929286Y-451428D02*
X1900714Y-465714D01*
X1829286Y-465714D01*
X1800714Y-451428D01*
X1786428Y-422857D01*
X1786428Y-394286D01*
X1800714Y-365714D01*
X1829286Y-351428D01*
X1900714Y-351428D01*
X1929286Y-337143D01*
X2072143Y-265714D02*
X2072143Y-565714D01*
X2072143Y-280000D02*
X2100714Y-265714D01*
X2157857Y-265714D01*
X2186429Y-280000D01*
X2200714Y-294286D01*
X2215000Y-322857D01*
X2215000Y-408571D01*
X2200714Y-437143D01*
X2186429Y-451428D01*
X2157857Y-465714D01*
X2100714Y-465714D01*
X2072143Y-451428D01*
X2343571Y-437143D02*
X2357857Y-451428D01*
X2343571Y-465714D01*
X2329286Y-451428D01*
X2343571Y-437143D01*
X2343571Y-465714D01*
X2343571Y-280000D02*
X2357857Y-294286D01*
X2343571Y-308571D01*
X2329286Y-294286D01*
X2343571Y-280000D01*
X2343571Y-308571D01*
X-75000Y-922500D02*
X0Y-997500D01*
X0Y-922500D02*
X-75000Y-997500D01*
X343571Y-795714D02*
X372143Y-795714D01*
X400714Y-810000D01*
X415000Y-824286D01*
X429286Y-852857D01*
X443571Y-910000D01*
X443571Y-981428D01*
X429286Y-1038571D01*
X415000Y-1067143D01*
X400714Y-1081429D01*
X372143Y-1095714D01*
X343571Y-1095714D01*
X315000Y-1081429D01*
X300714Y-1067143D01*
X286429Y-1038571D01*
X272143Y-981428D01*
X272143Y-910000D01*
X286429Y-852857D01*
X300714Y-824286D01*
X315000Y-810000D01*
X343571Y-795714D01*
X572143Y-1067143D02*
X586429Y-1081429D01*
X572143Y-1095714D01*
X557857Y-1081429D01*
X572143Y-1067143D01*
X572143Y-1095714D01*
X686429Y-795714D02*
X886428Y-795714D01*
X757857Y-1095714D01*
X1143571Y-795714D02*
X1000714Y-795714D01*
X986428Y-938571D01*
X1000714Y-924286D01*
X1029286Y-910000D01*
X1100714Y-910000D01*
X1129286Y-924286D01*
X1143571Y-938571D01*
X1157857Y-967143D01*
X1157857Y-1038571D01*
X1143571Y-1067143D01*
X1129286Y-1081429D01*
X1100714Y-1095714D01*
X1029286Y-1095714D01*
X1000714Y-1081429D01*
X986428Y-1067143D01*
X1343571Y-795714D02*
X1372143Y-795714D01*
X1400714Y-810000D01*
X1415000Y-824286D01*
X1429286Y-852857D01*
X1443571Y-910000D01*
X1443571Y-981428D01*
X1429286Y-1038571D01*
X1415000Y-1067143D01*
X1400714Y-1081429D01*
X1372143Y-1095714D01*
X1343571Y-1095714D01*
X1315000Y-1081429D01*
X1300714Y-1067143D01*
X1286429Y-1038571D01*
X1272143Y-981428D01*
X1272143Y-910000D01*
X1286429Y-852857D01*
X1300714Y-824286D01*
X1315000Y-810000D01*
X1343571Y-795714D01*
X1572143Y-1095714D02*
X1572143Y-895714D01*
X1572143Y-924286D02*
X1586428Y-910000D01*
X1615000Y-895714D01*
X1657857Y-895714D01*
X1686428Y-910000D01*
X1700714Y-938571D01*
X1700714Y-1095714D01*
X1700714Y-938571D02*
X1715000Y-910000D01*
X1743571Y-895714D01*
X1786428Y-895714D01*
X1815000Y-910000D01*
X1829286Y-938571D01*
X1829286Y-1095714D01*
X1972143Y-1095714D02*
X1972143Y-895714D01*
X1972143Y-924286D02*
X1986428Y-910000D01*
X2015000Y-895714D01*
X2057857Y-895714D01*
X2086428Y-910000D01*
X2100714Y-938571D01*
X2100714Y-1095714D01*
X2100714Y-938571D02*
X2115000Y-910000D01*
X2143571Y-895714D01*
X2186429Y-895714D01*
X2215000Y-910000D01*
X2229286Y-938571D01*
X2229286Y-1095714D01*
X2815000Y-781428D02*
X2557857Y-1167143D01*
X3200714Y-795714D02*
X3229286Y-795714D01*
X3257857Y-810000D01*
X3272143Y-824286D01*
X3286428Y-852857D01*
X3300714Y-910000D01*
X3300714Y-981428D01*
X3286428Y-1038571D01*
X3272143Y-1067143D01*
X3257857Y-1081429D01*
X3229286Y-1095714D01*
X3200714Y-1095714D01*
X3172143Y-1081429D01*
X3157857Y-1067143D01*
X3143571Y-1038571D01*
X3129286Y-981428D01*
X3129286Y-910000D01*
X3143571Y-852857D01*
X3157857Y-824286D01*
X3172143Y-810000D01*
X3200714Y-795714D01*
X3429286Y-1067143D02*
X3443571Y-1081429D01*
X3429286Y-1095714D01*
X3415000Y-1081429D01*
X3429286Y-1067143D01*
X3429286Y-1095714D01*
X3629286Y-795714D02*
X3657857Y-795714D01*
X3686428Y-810000D01*
X3700714Y-824286D01*
X3715000Y-852857D01*
X3729286Y-910000D01*
X3729286Y-981428D01*
X3715000Y-1038571D01*
X3700714Y-1067143D01*
X3686428Y-1081429D01*
X3657857Y-1095714D01*
X3629286Y-1095714D01*
X3600714Y-1081429D01*
X3586428Y-1067143D01*
X3572143Y-1038571D01*
X3557857Y-981428D01*
X3557857Y-910000D01*
X3572143Y-852857D01*
X3586428Y-824286D01*
X3600714Y-810000D01*
X3629286Y-795714D01*
X3843571Y-824286D02*
X3857857Y-810000D01*
X3886428Y-795714D01*
X3957857Y-795714D01*
X3986428Y-810000D01*
X4000714Y-824286D01*
X4015000Y-852857D01*
X4015000Y-881428D01*
X4000714Y-924286D01*
X3829286Y-1095714D01*
X4015000Y-1095714D01*
X4157857Y-1095714D02*
X4215000Y-1095714D01*
X4243571Y-1081429D01*
X4257857Y-1067143D01*
X4286429Y-1024286D01*
X4300714Y-967143D01*
X4300714Y-852857D01*
X4286429Y-824286D01*
X4272143Y-810000D01*
X4243571Y-795714D01*
X4186428Y-795714D01*
X4157857Y-810000D01*
X4143571Y-824286D01*
X4129286Y-852857D01*
X4129286Y-924286D01*
X4143571Y-952857D01*
X4157857Y-967143D01*
X4186428Y-981428D01*
X4243571Y-981428D01*
X4272143Y-967143D01*
X4286429Y-952857D01*
X4300714Y-924286D01*
X4572143Y-795714D02*
X4429286Y-795714D01*
X4415000Y-938571D01*
X4429286Y-924286D01*
X4457857Y-910000D01*
X4529286Y-910000D01*
X4557857Y-924286D01*
X4572143Y-938571D01*
X4586429Y-967143D01*
X4586429Y-1038571D01*
X4572143Y-1067143D01*
X4557857Y-1081429D01*
X4529286Y-1095714D01*
X4457857Y-1095714D01*
X4429286Y-1081429D01*
X4415000Y-1067143D01*
X4700714Y-795714D02*
X4700714Y-852857D01*
X4815000Y-795714D02*
X4815000Y-852857D01*
X5257857Y-1210000D02*
X5243571Y-1195714D01*
X5215000Y-1152857D01*
X5200714Y-1124286D01*
X5186429Y-1081429D01*
X5172143Y-1010000D01*
X5172143Y-952857D01*
X5186429Y-881428D01*
X5200714Y-838571D01*
X5215000Y-810000D01*
X5243571Y-767143D01*
X5257857Y-752857D01*
X5343571Y-795714D02*
X5529286Y-795714D01*
X5429286Y-910000D01*
X5472143Y-910000D01*
X5500714Y-924286D01*
X5515000Y-938571D01*
X5529286Y-967143D01*
X5529286Y-1038571D01*
X5515000Y-1067143D01*
X5500714Y-1081429D01*
X5472143Y-1095714D01*
X5386429Y-1095714D01*
X5357857Y-1081429D01*
X5343571Y-1067143D01*
X5886428Y-1095714D02*
X5886428Y-795714D01*
X6015000Y-1095714D02*
X6015000Y-938571D01*
X6000714Y-910000D01*
X5972143Y-895714D01*
X5929286Y-895714D01*
X5900714Y-910000D01*
X5886428Y-924286D01*
X6200714Y-1095714D02*
X6172143Y-1081429D01*
X6157857Y-1067143D01*
X6143571Y-1038571D01*
X6143571Y-952857D01*
X6157857Y-924286D01*
X6172143Y-910000D01*
X6200714Y-895714D01*
X6243571Y-895714D01*
X6272143Y-910000D01*
X6286428Y-924286D01*
X6300714Y-952857D01*
X6300714Y-1038571D01*
X6286428Y-1067143D01*
X6272143Y-1081429D01*
X6243571Y-1095714D01*
X6200714Y-1095714D01*
X6472143Y-1095714D02*
X6443571Y-1081429D01*
X6429286Y-1052857D01*
X6429286Y-795714D01*
X6700714Y-1081429D02*
X6672143Y-1095714D01*
X6615000Y-1095714D01*
X6586428Y-1081429D01*
X6572143Y-1052857D01*
X6572143Y-938571D01*
X6586428Y-910000D01*
X6615000Y-895714D01*
X6672143Y-895714D01*
X6700714Y-910000D01*
X6715000Y-938571D01*
X6715000Y-967143D01*
X6572143Y-995714D01*
X6829286Y-1081429D02*
X6857857Y-1095714D01*
X6915000Y-1095714D01*
X6943571Y-1081429D01*
X6957857Y-1052857D01*
X6957857Y-1038571D01*
X6943571Y-1010000D01*
X6915000Y-995714D01*
X6872143Y-995714D01*
X6843571Y-981428D01*
X6829286Y-952857D01*
X6829286Y-938571D01*
X6843571Y-910000D01*
X6872143Y-895714D01*
X6915000Y-895714D01*
X6943571Y-910000D01*
X7057857Y-1210000D02*
X7072143Y-1195714D01*
X7100714Y-1152857D01*
X7115000Y-1124286D01*
X7129286Y-1081429D01*
X7143571Y-1010000D01*
X7143571Y-952857D01*
X7129286Y-881428D01*
X7115000Y-838571D01*
X7100714Y-810000D01*
X7072143Y-767143D01*
X7057857Y-752857D01*
X0Y-1356000D02*
G75*
G03*
X0Y-1356000I-50000J0D01*
G01*
X443571Y-1491714D02*
X272143Y-1491714D01*
X357857Y-1491714D02*
X357857Y-1191714D01*
X329286Y-1234571D01*
X300714Y-1263143D01*
X272143Y-1277429D01*
X572143Y-1463143D02*
X586429Y-1477428D01*
X572143Y-1491714D01*
X557857Y-1477428D01*
X572143Y-1463143D01*
X572143Y-1491714D01*
X772143Y-1191714D02*
X800714Y-1191714D01*
X829286Y-1206000D01*
X843571Y-1220286D01*
X857857Y-1248857D01*
X872143Y-1306000D01*
X872143Y-1377429D01*
X857857Y-1434571D01*
X843571Y-1463143D01*
X829286Y-1477428D01*
X800714Y-1491714D01*
X772143Y-1491714D01*
X743571Y-1477428D01*
X729286Y-1463143D01*
X715000Y-1434571D01*
X700714Y-1377429D01*
X700714Y-1306000D01*
X715000Y-1248857D01*
X729286Y-1220286D01*
X743571Y-1206000D01*
X772143Y-1191714D01*
X1057857Y-1191714D02*
X1086429Y-1191714D01*
X1115000Y-1206000D01*
X1129286Y-1220286D01*
X1143571Y-1248857D01*
X1157857Y-1306000D01*
X1157857Y-1377429D01*
X1143571Y-1434571D01*
X1129286Y-1463143D01*
X1115000Y-1477428D01*
X1086429Y-1491714D01*
X1057857Y-1491714D01*
X1029286Y-1477428D01*
X1015000Y-1463143D01*
X1000714Y-1434571D01*
X986428Y-1377429D01*
X986428Y-1306000D01*
X1000714Y-1248857D01*
X1015000Y-1220286D01*
X1029286Y-1206000D01*
X1057857Y-1191714D01*
X1343571Y-1191714D02*
X1372143Y-1191714D01*
X1400714Y-1206000D01*
X1415000Y-1220286D01*
X1429286Y-1248857D01*
X1443571Y-1306000D01*
X1443571Y-1377429D01*
X1429286Y-1434571D01*
X1415000Y-1463143D01*
X1400714Y-1477428D01*
X1372143Y-1491714D01*
X1343571Y-1491714D01*
X1315000Y-1477428D01*
X1300714Y-1463143D01*
X1286429Y-1434571D01*
X1272143Y-1377429D01*
X1272143Y-1306000D01*
X1286429Y-1248857D01*
X1300714Y-1220286D01*
X1315000Y-1206000D01*
X1343571Y-1191714D01*
X1572143Y-1491714D02*
X1572143Y-1291714D01*
X1572143Y-1320286D02*
X1586428Y-1306000D01*
X1615000Y-1291714D01*
X1657857Y-1291714D01*
X1686428Y-1306000D01*
X1700714Y-1334571D01*
X1700714Y-1491714D01*
X1700714Y-1334571D02*
X1715000Y-1306000D01*
X1743571Y-1291714D01*
X1786428Y-1291714D01*
X1815000Y-1306000D01*
X1829286Y-1334571D01*
X1829286Y-1491714D01*
X1972143Y-1491714D02*
X1972143Y-1291714D01*
X1972143Y-1320286D02*
X1986428Y-1306000D01*
X2015000Y-1291714D01*
X2057857Y-1291714D01*
X2086428Y-1306000D01*
X2100714Y-1334571D01*
X2100714Y-1491714D01*
X2100714Y-1334571D02*
X2115000Y-1306000D01*
X2143571Y-1291714D01*
X2186429Y-1291714D01*
X2215000Y-1306000D01*
X2229286Y-1334571D01*
X2229286Y-1491714D01*
X2815000Y-1177429D02*
X2557857Y-1563143D01*
X3200714Y-1191714D02*
X3229286Y-1191714D01*
X3257857Y-1206000D01*
X3272143Y-1220286D01*
X3286428Y-1248857D01*
X3300714Y-1306000D01*
X3300714Y-1377429D01*
X3286428Y-1434571D01*
X3272143Y-1463143D01*
X3257857Y-1477428D01*
X3229286Y-1491714D01*
X3200714Y-1491714D01*
X3172143Y-1477428D01*
X3157857Y-1463143D01*
X3143571Y-1434571D01*
X3129286Y-1377429D01*
X3129286Y-1306000D01*
X3143571Y-1248857D01*
X3157857Y-1220286D01*
X3172143Y-1206000D01*
X3200714Y-1191714D01*
X3429286Y-1463143D02*
X3443571Y-1477428D01*
X3429286Y-1491714D01*
X3415000Y-1477428D01*
X3429286Y-1463143D01*
X3429286Y-1491714D01*
X3629286Y-1191714D02*
X3657857Y-1191714D01*
X3686428Y-1206000D01*
X3700714Y-1220286D01*
X3715000Y-1248857D01*
X3729286Y-1306000D01*
X3729286Y-1377429D01*
X3715000Y-1434571D01*
X3700714Y-1463143D01*
X3686428Y-1477428D01*
X3657857Y-1491714D01*
X3629286Y-1491714D01*
X3600714Y-1477428D01*
X3586428Y-1463143D01*
X3572143Y-1434571D01*
X3557857Y-1377429D01*
X3557857Y-1306000D01*
X3572143Y-1248857D01*
X3586428Y-1220286D01*
X3600714Y-1206000D01*
X3629286Y-1191714D01*
X3829286Y-1191714D02*
X4015000Y-1191714D01*
X3915000Y-1306000D01*
X3957857Y-1306000D01*
X3986428Y-1320286D01*
X4000714Y-1334571D01*
X4015000Y-1363143D01*
X4015000Y-1434571D01*
X4000714Y-1463143D01*
X3986428Y-1477428D01*
X3957857Y-1491714D01*
X3872143Y-1491714D01*
X3843571Y-1477428D01*
X3829286Y-1463143D01*
X4157857Y-1491714D02*
X4215000Y-1491714D01*
X4243571Y-1477428D01*
X4257857Y-1463143D01*
X4286429Y-1420286D01*
X4300714Y-1363143D01*
X4300714Y-1248857D01*
X4286429Y-1220286D01*
X4272143Y-1206000D01*
X4243571Y-1191714D01*
X4186428Y-1191714D01*
X4157857Y-1206000D01*
X4143571Y-1220286D01*
X4129286Y-1248857D01*
X4129286Y-1320286D01*
X4143571Y-1348857D01*
X4157857Y-1363143D01*
X4186428Y-1377429D01*
X4243571Y-1377429D01*
X4272143Y-1363143D01*
X4286429Y-1348857D01*
X4300714Y-1320286D01*
X4557857Y-1291714D02*
X4557857Y-1491714D01*
X4486429Y-1177429D02*
X4415000Y-1391714D01*
X4600714Y-1391714D01*
X4700714Y-1191714D02*
X4700714Y-1248857D01*
X4815000Y-1191714D02*
X4815000Y-1248857D01*
X5257857Y-1606000D02*
X5243571Y-1591714D01*
X5215000Y-1548857D01*
X5200714Y-1520286D01*
X5186429Y-1477428D01*
X5172143Y-1406000D01*
X5172143Y-1348857D01*
X5186429Y-1277429D01*
X5200714Y-1234571D01*
X5215000Y-1206000D01*
X5243571Y-1163143D01*
X5257857Y-1148857D01*
X5343571Y-1191714D02*
X5529286Y-1191714D01*
X5429286Y-1306000D01*
X5472143Y-1306000D01*
X5500714Y-1320286D01*
X5515000Y-1334571D01*
X5529286Y-1363143D01*
X5529286Y-1434571D01*
X5515000Y-1463143D01*
X5500714Y-1477428D01*
X5472143Y-1491714D01*
X5386429Y-1491714D01*
X5357857Y-1477428D01*
X5343571Y-1463143D01*
X5886428Y-1491714D02*
X5886428Y-1191714D01*
X6015000Y-1491714D02*
X6015000Y-1334571D01*
X6000714Y-1306000D01*
X5972143Y-1291714D01*
X5929286Y-1291714D01*
X5900714Y-1306000D01*
X5886428Y-1320286D01*
X6200714Y-1491714D02*
X6172143Y-1477428D01*
X6157857Y-1463143D01*
X6143571Y-1434571D01*
X6143571Y-1348857D01*
X6157857Y-1320286D01*
X6172143Y-1306000D01*
X6200714Y-1291714D01*
X6243571Y-1291714D01*
X6272143Y-1306000D01*
X6286428Y-1320286D01*
X6300714Y-1348857D01*
X6300714Y-1434571D01*
X6286428Y-1463143D01*
X6272143Y-1477428D01*
X6243571Y-1491714D01*
X6200714Y-1491714D01*
X6472143Y-1491714D02*
X6443571Y-1477428D01*
X6429286Y-1448857D01*
X6429286Y-1191714D01*
X6700714Y-1477428D02*
X6672143Y-1491714D01*
X6615000Y-1491714D01*
X6586428Y-1477428D01*
X6572143Y-1448857D01*
X6572143Y-1334571D01*
X6586428Y-1306000D01*
X6615000Y-1291714D01*
X6672143Y-1291714D01*
X6700714Y-1306000D01*
X6715000Y-1334571D01*
X6715000Y-1363143D01*
X6572143Y-1391714D01*
X6829286Y-1477428D02*
X6857857Y-1491714D01*
X6915000Y-1491714D01*
X6943571Y-1477428D01*
X6957857Y-1448857D01*
X6957857Y-1434571D01*
X6943571Y-1406000D01*
X6915000Y-1391714D01*
X6872143Y-1391714D01*
X6843571Y-1377429D01*
X6829286Y-1348857D01*
X6829286Y-1334571D01*
X6843571Y-1306000D01*
X6872143Y-1291714D01*
X6915000Y-1291714D01*
X6943571Y-1306000D01*
X7057857Y-1606000D02*
X7072143Y-1591714D01*
X7100714Y-1548857D01*
X7115000Y-1520286D01*
X7129286Y-1477428D01*
X7143571Y-1406000D01*
X7143571Y-1348857D01*
X7129286Y-1277429D01*
X7115000Y-1234571D01*
X7100714Y-1206000D01*
X7072143Y-1163143D01*
X7057857Y-1148857D01*
M02*
