%TF.GenerationSoftware,KiCad,Pcbnew,(7.0.0)*%
%TF.CreationDate,2023-03-10T21:17:03+00:00*%
%TF.ProjectId,12v_servo_driver,3132765f-7365-4727-966f-5f6472697665,A*%
%TF.SameCoordinates,Original*%
%TF.FileFunction,Drillmap*%
%TF.FilePolarity,Positive*%
%FSLAX45Y45*%
G04 Gerber Fmt 4.5, Leading zero omitted, Abs format (unit mm)*
G04 Created by KiCad (PCBNEW (7.0.0)) date 2023-03-10 21:17:03*
%MOMM*%
%LPD*%
G01*
G04 APERTURE LIST*
%ADD10C,0.050000*%
%ADD11C,0.200000*%
%ADD12C,0.075000*%
%ADD13C,0.100000*%
G04 APERTURE END LIST*
D10*
X14215110Y-10364470D02*
G75*
G03*
X14116050Y-10463530I0J-99060D01*
G01*
X14260830Y-10364470D02*
X14215110Y-10364470D01*
X16363950Y-10463530D02*
G75*
G03*
X16264890Y-10364470I-99060J0D01*
G01*
X16219170Y-11860530D02*
X16264890Y-11860530D01*
X16264890Y-11860530D02*
G75*
G03*
X16363950Y-11761470I0J99060D01*
G01*
X14116050Y-11761470D02*
G75*
G03*
X14215110Y-11860530I99060J0D01*
G01*
X14215110Y-11860530D02*
X16219170Y-11860530D01*
X16675100Y-11499850D02*
G75*
G03*
X16675100Y-10725150I0J387350D01*
G01*
X16363950Y-10521950D02*
G75*
G03*
X16567150Y-10725150I203200J0D01*
G01*
X13912850Y-10725150D02*
G75*
G03*
X14116050Y-10521950I0J203200D01*
G01*
X14116050Y-11703050D02*
G75*
G03*
X13912850Y-11499850I-203200J0D01*
G01*
X13912850Y-11499850D02*
X13804900Y-11499850D01*
X13912850Y-10725150D02*
X13804900Y-10725150D01*
X16675100Y-10725150D02*
X16567150Y-10725150D01*
X16567150Y-11499850D02*
X16675100Y-11499850D01*
X16363950Y-11761470D02*
X16363950Y-11703050D01*
X14116050Y-11761470D02*
X14116050Y-11703050D01*
X14116050Y-10521950D02*
X14116050Y-10463530D01*
X16264890Y-10364470D02*
X14260830Y-10364470D01*
X16363950Y-10463530D02*
X16363950Y-10521950D01*
X16567150Y-11499850D02*
G75*
G03*
X16363950Y-11703050I0J-203200D01*
G01*
X13804900Y-10725150D02*
G75*
G03*
X13804900Y-11499850I0J-387350D01*
G01*
D11*
D12*
X15562500Y-10957500D02*
X15637500Y-11032500D01*
X15637500Y-10957500D02*
X15562500Y-11032500D01*
X15762500Y-10957500D02*
X15837500Y-11032500D01*
X15837500Y-10957500D02*
X15762500Y-11032500D01*
X15962500Y-10957500D02*
X16037500Y-11032500D01*
X16037500Y-10957500D02*
X15962500Y-11032500D01*
D13*
X14422500Y-11362500D02*
G75*
G03*
X14422500Y-11362500I-50000J0D01*
G01*
X14676500Y-11362500D02*
G75*
G03*
X14676500Y-11362500I-50000J0D01*
G01*
X14930500Y-11362500D02*
G75*
G03*
X14930500Y-11362500I-50000J0D01*
G01*
D11*
X13662669Y-12156506D02*
X13662669Y-11956506D01*
X13662669Y-11956506D02*
X13710288Y-11956506D01*
X13710288Y-11956506D02*
X13738859Y-11966030D01*
X13738859Y-11966030D02*
X13757907Y-11985078D01*
X13757907Y-11985078D02*
X13767431Y-12004125D01*
X13767431Y-12004125D02*
X13776955Y-12042220D01*
X13776955Y-12042220D02*
X13776955Y-12070792D01*
X13776955Y-12070792D02*
X13767431Y-12108887D01*
X13767431Y-12108887D02*
X13757907Y-12127935D01*
X13757907Y-12127935D02*
X13738859Y-12146982D01*
X13738859Y-12146982D02*
X13710288Y-12156506D01*
X13710288Y-12156506D02*
X13662669Y-12156506D01*
X13862669Y-12156506D02*
X13862669Y-12023173D01*
X13862669Y-12061268D02*
X13872193Y-12042220D01*
X13872193Y-12042220D02*
X13881717Y-12032697D01*
X13881717Y-12032697D02*
X13900764Y-12023173D01*
X13900764Y-12023173D02*
X13919812Y-12023173D01*
X13986478Y-12156506D02*
X13986478Y-12023173D01*
X13986478Y-11956506D02*
X13976955Y-11966030D01*
X13976955Y-11966030D02*
X13986478Y-11975554D01*
X13986478Y-11975554D02*
X13996002Y-11966030D01*
X13996002Y-11966030D02*
X13986478Y-11956506D01*
X13986478Y-11956506D02*
X13986478Y-11975554D01*
X14110288Y-12156506D02*
X14091240Y-12146982D01*
X14091240Y-12146982D02*
X14081717Y-12127935D01*
X14081717Y-12127935D02*
X14081717Y-11956506D01*
X14215050Y-12156506D02*
X14196002Y-12146982D01*
X14196002Y-12146982D02*
X14186478Y-12127935D01*
X14186478Y-12127935D02*
X14186478Y-11956506D01*
X14411240Y-12156506D02*
X14411240Y-11956506D01*
X14411240Y-11956506D02*
X14477907Y-12099363D01*
X14477907Y-12099363D02*
X14544574Y-11956506D01*
X14544574Y-11956506D02*
X14544574Y-12156506D01*
X14725526Y-12156506D02*
X14725526Y-12051744D01*
X14725526Y-12051744D02*
X14716002Y-12032697D01*
X14716002Y-12032697D02*
X14696955Y-12023173D01*
X14696955Y-12023173D02*
X14658859Y-12023173D01*
X14658859Y-12023173D02*
X14639812Y-12032697D01*
X14725526Y-12146982D02*
X14706478Y-12156506D01*
X14706478Y-12156506D02*
X14658859Y-12156506D01*
X14658859Y-12156506D02*
X14639812Y-12146982D01*
X14639812Y-12146982D02*
X14630288Y-12127935D01*
X14630288Y-12127935D02*
X14630288Y-12108887D01*
X14630288Y-12108887D02*
X14639812Y-12089839D01*
X14639812Y-12089839D02*
X14658859Y-12080316D01*
X14658859Y-12080316D02*
X14706478Y-12080316D01*
X14706478Y-12080316D02*
X14725526Y-12070792D01*
X14820764Y-12023173D02*
X14820764Y-12223173D01*
X14820764Y-12032697D02*
X14839812Y-12023173D01*
X14839812Y-12023173D02*
X14877907Y-12023173D01*
X14877907Y-12023173D02*
X14896955Y-12032697D01*
X14896955Y-12032697D02*
X14906478Y-12042220D01*
X14906478Y-12042220D02*
X14916002Y-12061268D01*
X14916002Y-12061268D02*
X14916002Y-12118411D01*
X14916002Y-12118411D02*
X14906478Y-12137458D01*
X14906478Y-12137458D02*
X14896955Y-12146982D01*
X14896955Y-12146982D02*
X14877907Y-12156506D01*
X14877907Y-12156506D02*
X14839812Y-12156506D01*
X14839812Y-12156506D02*
X14820764Y-12146982D01*
X15001717Y-12137458D02*
X15011240Y-12146982D01*
X15011240Y-12146982D02*
X15001717Y-12156506D01*
X15001717Y-12156506D02*
X14992193Y-12146982D01*
X14992193Y-12146982D02*
X15001717Y-12137458D01*
X15001717Y-12137458D02*
X15001717Y-12156506D01*
X15001717Y-12032697D02*
X15011240Y-12042220D01*
X15011240Y-12042220D02*
X15001717Y-12051744D01*
X15001717Y-12051744D02*
X14992193Y-12042220D01*
X14992193Y-12042220D02*
X15001717Y-12032697D01*
X15001717Y-12032697D02*
X15001717Y-12051744D01*
D12*
X13340050Y-12465530D02*
X13415050Y-12540530D01*
X13415050Y-12465530D02*
X13340050Y-12540530D01*
D11*
X13700764Y-12376506D02*
X13719812Y-12376506D01*
X13719812Y-12376506D02*
X13738859Y-12386030D01*
X13738859Y-12386030D02*
X13748383Y-12395554D01*
X13748383Y-12395554D02*
X13757907Y-12414601D01*
X13757907Y-12414601D02*
X13767431Y-12452697D01*
X13767431Y-12452697D02*
X13767431Y-12500316D01*
X13767431Y-12500316D02*
X13757907Y-12538411D01*
X13757907Y-12538411D02*
X13748383Y-12557458D01*
X13748383Y-12557458D02*
X13738859Y-12566982D01*
X13738859Y-12566982D02*
X13719812Y-12576506D01*
X13719812Y-12576506D02*
X13700764Y-12576506D01*
X13700764Y-12576506D02*
X13681717Y-12566982D01*
X13681717Y-12566982D02*
X13672193Y-12557458D01*
X13672193Y-12557458D02*
X13662669Y-12538411D01*
X13662669Y-12538411D02*
X13653145Y-12500316D01*
X13653145Y-12500316D02*
X13653145Y-12452697D01*
X13653145Y-12452697D02*
X13662669Y-12414601D01*
X13662669Y-12414601D02*
X13672193Y-12395554D01*
X13672193Y-12395554D02*
X13681717Y-12386030D01*
X13681717Y-12386030D02*
X13700764Y-12376506D01*
X13853145Y-12557458D02*
X13862669Y-12566982D01*
X13862669Y-12566982D02*
X13853145Y-12576506D01*
X13853145Y-12576506D02*
X13843621Y-12566982D01*
X13843621Y-12566982D02*
X13853145Y-12557458D01*
X13853145Y-12557458D02*
X13853145Y-12576506D01*
X13929336Y-12376506D02*
X14062669Y-12376506D01*
X14062669Y-12376506D02*
X13976955Y-12576506D01*
X14234098Y-12376506D02*
X14138859Y-12376506D01*
X14138859Y-12376506D02*
X14129336Y-12471744D01*
X14129336Y-12471744D02*
X14138859Y-12462220D01*
X14138859Y-12462220D02*
X14157907Y-12452697D01*
X14157907Y-12452697D02*
X14205526Y-12452697D01*
X14205526Y-12452697D02*
X14224574Y-12462220D01*
X14224574Y-12462220D02*
X14234098Y-12471744D01*
X14234098Y-12471744D02*
X14243621Y-12490792D01*
X14243621Y-12490792D02*
X14243621Y-12538411D01*
X14243621Y-12538411D02*
X14234098Y-12557458D01*
X14234098Y-12557458D02*
X14224574Y-12566982D01*
X14224574Y-12566982D02*
X14205526Y-12576506D01*
X14205526Y-12576506D02*
X14157907Y-12576506D01*
X14157907Y-12576506D02*
X14138859Y-12566982D01*
X14138859Y-12566982D02*
X14129336Y-12557458D01*
X14367431Y-12376506D02*
X14386479Y-12376506D01*
X14386479Y-12376506D02*
X14405526Y-12386030D01*
X14405526Y-12386030D02*
X14415050Y-12395554D01*
X14415050Y-12395554D02*
X14424574Y-12414601D01*
X14424574Y-12414601D02*
X14434098Y-12452697D01*
X14434098Y-12452697D02*
X14434098Y-12500316D01*
X14434098Y-12500316D02*
X14424574Y-12538411D01*
X14424574Y-12538411D02*
X14415050Y-12557458D01*
X14415050Y-12557458D02*
X14405526Y-12566982D01*
X14405526Y-12566982D02*
X14386479Y-12576506D01*
X14386479Y-12576506D02*
X14367431Y-12576506D01*
X14367431Y-12576506D02*
X14348383Y-12566982D01*
X14348383Y-12566982D02*
X14338859Y-12557458D01*
X14338859Y-12557458D02*
X14329336Y-12538411D01*
X14329336Y-12538411D02*
X14319812Y-12500316D01*
X14319812Y-12500316D02*
X14319812Y-12452697D01*
X14319812Y-12452697D02*
X14329336Y-12414601D01*
X14329336Y-12414601D02*
X14338859Y-12395554D01*
X14338859Y-12395554D02*
X14348383Y-12386030D01*
X14348383Y-12386030D02*
X14367431Y-12376506D01*
X14519812Y-12576506D02*
X14519812Y-12443173D01*
X14519812Y-12462220D02*
X14529336Y-12452697D01*
X14529336Y-12452697D02*
X14548383Y-12443173D01*
X14548383Y-12443173D02*
X14576955Y-12443173D01*
X14576955Y-12443173D02*
X14596002Y-12452697D01*
X14596002Y-12452697D02*
X14605526Y-12471744D01*
X14605526Y-12471744D02*
X14605526Y-12576506D01*
X14605526Y-12471744D02*
X14615050Y-12452697D01*
X14615050Y-12452697D02*
X14634098Y-12443173D01*
X14634098Y-12443173D02*
X14662669Y-12443173D01*
X14662669Y-12443173D02*
X14681717Y-12452697D01*
X14681717Y-12452697D02*
X14691240Y-12471744D01*
X14691240Y-12471744D02*
X14691240Y-12576506D01*
X14786479Y-12576506D02*
X14786479Y-12443173D01*
X14786479Y-12462220D02*
X14796002Y-12452697D01*
X14796002Y-12452697D02*
X14815050Y-12443173D01*
X14815050Y-12443173D02*
X14843621Y-12443173D01*
X14843621Y-12443173D02*
X14862669Y-12452697D01*
X14862669Y-12452697D02*
X14872193Y-12471744D01*
X14872193Y-12471744D02*
X14872193Y-12576506D01*
X14872193Y-12471744D02*
X14881717Y-12452697D01*
X14881717Y-12452697D02*
X14900764Y-12443173D01*
X14900764Y-12443173D02*
X14929336Y-12443173D01*
X14929336Y-12443173D02*
X14948383Y-12452697D01*
X14948383Y-12452697D02*
X14957907Y-12471744D01*
X14957907Y-12471744D02*
X14957907Y-12576506D01*
X15316002Y-12366982D02*
X15144574Y-12624125D01*
X15540764Y-12376506D02*
X15559812Y-12376506D01*
X15559812Y-12376506D02*
X15578860Y-12386030D01*
X15578860Y-12386030D02*
X15588383Y-12395554D01*
X15588383Y-12395554D02*
X15597907Y-12414601D01*
X15597907Y-12414601D02*
X15607431Y-12452697D01*
X15607431Y-12452697D02*
X15607431Y-12500316D01*
X15607431Y-12500316D02*
X15597907Y-12538411D01*
X15597907Y-12538411D02*
X15588383Y-12557458D01*
X15588383Y-12557458D02*
X15578860Y-12566982D01*
X15578860Y-12566982D02*
X15559812Y-12576506D01*
X15559812Y-12576506D02*
X15540764Y-12576506D01*
X15540764Y-12576506D02*
X15521717Y-12566982D01*
X15521717Y-12566982D02*
X15512193Y-12557458D01*
X15512193Y-12557458D02*
X15502669Y-12538411D01*
X15502669Y-12538411D02*
X15493145Y-12500316D01*
X15493145Y-12500316D02*
X15493145Y-12452697D01*
X15493145Y-12452697D02*
X15502669Y-12414601D01*
X15502669Y-12414601D02*
X15512193Y-12395554D01*
X15512193Y-12395554D02*
X15521717Y-12386030D01*
X15521717Y-12386030D02*
X15540764Y-12376506D01*
X15693145Y-12557458D02*
X15702669Y-12566982D01*
X15702669Y-12566982D02*
X15693145Y-12576506D01*
X15693145Y-12576506D02*
X15683621Y-12566982D01*
X15683621Y-12566982D02*
X15693145Y-12557458D01*
X15693145Y-12557458D02*
X15693145Y-12576506D01*
X15826479Y-12376506D02*
X15845526Y-12376506D01*
X15845526Y-12376506D02*
X15864574Y-12386030D01*
X15864574Y-12386030D02*
X15874098Y-12395554D01*
X15874098Y-12395554D02*
X15883621Y-12414601D01*
X15883621Y-12414601D02*
X15893145Y-12452697D01*
X15893145Y-12452697D02*
X15893145Y-12500316D01*
X15893145Y-12500316D02*
X15883621Y-12538411D01*
X15883621Y-12538411D02*
X15874098Y-12557458D01*
X15874098Y-12557458D02*
X15864574Y-12566982D01*
X15864574Y-12566982D02*
X15845526Y-12576506D01*
X15845526Y-12576506D02*
X15826479Y-12576506D01*
X15826479Y-12576506D02*
X15807431Y-12566982D01*
X15807431Y-12566982D02*
X15797907Y-12557458D01*
X15797907Y-12557458D02*
X15788383Y-12538411D01*
X15788383Y-12538411D02*
X15778860Y-12500316D01*
X15778860Y-12500316D02*
X15778860Y-12452697D01*
X15778860Y-12452697D02*
X15788383Y-12414601D01*
X15788383Y-12414601D02*
X15797907Y-12395554D01*
X15797907Y-12395554D02*
X15807431Y-12386030D01*
X15807431Y-12386030D02*
X15826479Y-12376506D01*
X15969336Y-12395554D02*
X15978860Y-12386030D01*
X15978860Y-12386030D02*
X15997907Y-12376506D01*
X15997907Y-12376506D02*
X16045526Y-12376506D01*
X16045526Y-12376506D02*
X16064574Y-12386030D01*
X16064574Y-12386030D02*
X16074098Y-12395554D01*
X16074098Y-12395554D02*
X16083621Y-12414601D01*
X16083621Y-12414601D02*
X16083621Y-12433649D01*
X16083621Y-12433649D02*
X16074098Y-12462220D01*
X16074098Y-12462220D02*
X15959812Y-12576506D01*
X15959812Y-12576506D02*
X16083621Y-12576506D01*
X16178860Y-12576506D02*
X16216955Y-12576506D01*
X16216955Y-12576506D02*
X16236002Y-12566982D01*
X16236002Y-12566982D02*
X16245526Y-12557458D01*
X16245526Y-12557458D02*
X16264574Y-12528887D01*
X16264574Y-12528887D02*
X16274098Y-12490792D01*
X16274098Y-12490792D02*
X16274098Y-12414601D01*
X16274098Y-12414601D02*
X16264574Y-12395554D01*
X16264574Y-12395554D02*
X16255050Y-12386030D01*
X16255050Y-12386030D02*
X16236002Y-12376506D01*
X16236002Y-12376506D02*
X16197907Y-12376506D01*
X16197907Y-12376506D02*
X16178860Y-12386030D01*
X16178860Y-12386030D02*
X16169336Y-12395554D01*
X16169336Y-12395554D02*
X16159812Y-12414601D01*
X16159812Y-12414601D02*
X16159812Y-12462220D01*
X16159812Y-12462220D02*
X16169336Y-12481268D01*
X16169336Y-12481268D02*
X16178860Y-12490792D01*
X16178860Y-12490792D02*
X16197907Y-12500316D01*
X16197907Y-12500316D02*
X16236002Y-12500316D01*
X16236002Y-12500316D02*
X16255050Y-12490792D01*
X16255050Y-12490792D02*
X16264574Y-12481268D01*
X16264574Y-12481268D02*
X16274098Y-12462220D01*
X16455050Y-12376506D02*
X16359812Y-12376506D01*
X16359812Y-12376506D02*
X16350288Y-12471744D01*
X16350288Y-12471744D02*
X16359812Y-12462220D01*
X16359812Y-12462220D02*
X16378860Y-12452697D01*
X16378860Y-12452697D02*
X16426479Y-12452697D01*
X16426479Y-12452697D02*
X16445526Y-12462220D01*
X16445526Y-12462220D02*
X16455050Y-12471744D01*
X16455050Y-12471744D02*
X16464574Y-12490792D01*
X16464574Y-12490792D02*
X16464574Y-12538411D01*
X16464574Y-12538411D02*
X16455050Y-12557458D01*
X16455050Y-12557458D02*
X16445526Y-12566982D01*
X16445526Y-12566982D02*
X16426479Y-12576506D01*
X16426479Y-12576506D02*
X16378860Y-12576506D01*
X16378860Y-12576506D02*
X16359812Y-12566982D01*
X16359812Y-12566982D02*
X16350288Y-12557458D01*
X16540764Y-12376506D02*
X16540764Y-12414601D01*
X16616955Y-12376506D02*
X16616955Y-12414601D01*
X16879812Y-12652697D02*
X16870288Y-12643173D01*
X16870288Y-12643173D02*
X16851241Y-12614601D01*
X16851241Y-12614601D02*
X16841717Y-12595554D01*
X16841717Y-12595554D02*
X16832193Y-12566982D01*
X16832193Y-12566982D02*
X16822669Y-12519363D01*
X16822669Y-12519363D02*
X16822669Y-12481268D01*
X16822669Y-12481268D02*
X16832193Y-12433649D01*
X16832193Y-12433649D02*
X16841717Y-12405078D01*
X16841717Y-12405078D02*
X16851241Y-12386030D01*
X16851241Y-12386030D02*
X16870288Y-12357458D01*
X16870288Y-12357458D02*
X16879812Y-12347935D01*
X16936955Y-12376506D02*
X17060764Y-12376506D01*
X17060764Y-12376506D02*
X16994098Y-12452697D01*
X16994098Y-12452697D02*
X17022669Y-12452697D01*
X17022669Y-12452697D02*
X17041717Y-12462220D01*
X17041717Y-12462220D02*
X17051241Y-12471744D01*
X17051241Y-12471744D02*
X17060764Y-12490792D01*
X17060764Y-12490792D02*
X17060764Y-12538411D01*
X17060764Y-12538411D02*
X17051241Y-12557458D01*
X17051241Y-12557458D02*
X17041717Y-12566982D01*
X17041717Y-12566982D02*
X17022669Y-12576506D01*
X17022669Y-12576506D02*
X16965526Y-12576506D01*
X16965526Y-12576506D02*
X16946479Y-12566982D01*
X16946479Y-12566982D02*
X16936955Y-12557458D01*
X17266479Y-12576506D02*
X17266479Y-12376506D01*
X17352193Y-12576506D02*
X17352193Y-12471744D01*
X17352193Y-12471744D02*
X17342669Y-12452697D01*
X17342669Y-12452697D02*
X17323622Y-12443173D01*
X17323622Y-12443173D02*
X17295050Y-12443173D01*
X17295050Y-12443173D02*
X17276003Y-12452697D01*
X17276003Y-12452697D02*
X17266479Y-12462220D01*
X17476003Y-12576506D02*
X17456955Y-12566982D01*
X17456955Y-12566982D02*
X17447431Y-12557458D01*
X17447431Y-12557458D02*
X17437907Y-12538411D01*
X17437907Y-12538411D02*
X17437907Y-12481268D01*
X17437907Y-12481268D02*
X17447431Y-12462220D01*
X17447431Y-12462220D02*
X17456955Y-12452697D01*
X17456955Y-12452697D02*
X17476003Y-12443173D01*
X17476003Y-12443173D02*
X17504574Y-12443173D01*
X17504574Y-12443173D02*
X17523622Y-12452697D01*
X17523622Y-12452697D02*
X17533145Y-12462220D01*
X17533145Y-12462220D02*
X17542669Y-12481268D01*
X17542669Y-12481268D02*
X17542669Y-12538411D01*
X17542669Y-12538411D02*
X17533145Y-12557458D01*
X17533145Y-12557458D02*
X17523622Y-12566982D01*
X17523622Y-12566982D02*
X17504574Y-12576506D01*
X17504574Y-12576506D02*
X17476003Y-12576506D01*
X17656955Y-12576506D02*
X17637907Y-12566982D01*
X17637907Y-12566982D02*
X17628384Y-12547935D01*
X17628384Y-12547935D02*
X17628384Y-12376506D01*
X17809336Y-12566982D02*
X17790288Y-12576506D01*
X17790288Y-12576506D02*
X17752193Y-12576506D01*
X17752193Y-12576506D02*
X17733145Y-12566982D01*
X17733145Y-12566982D02*
X17723622Y-12547935D01*
X17723622Y-12547935D02*
X17723622Y-12471744D01*
X17723622Y-12471744D02*
X17733145Y-12452697D01*
X17733145Y-12452697D02*
X17752193Y-12443173D01*
X17752193Y-12443173D02*
X17790288Y-12443173D01*
X17790288Y-12443173D02*
X17809336Y-12452697D01*
X17809336Y-12452697D02*
X17818860Y-12471744D01*
X17818860Y-12471744D02*
X17818860Y-12490792D01*
X17818860Y-12490792D02*
X17723622Y-12509839D01*
X17895050Y-12566982D02*
X17914098Y-12576506D01*
X17914098Y-12576506D02*
X17952193Y-12576506D01*
X17952193Y-12576506D02*
X17971241Y-12566982D01*
X17971241Y-12566982D02*
X17980765Y-12547935D01*
X17980765Y-12547935D02*
X17980765Y-12538411D01*
X17980765Y-12538411D02*
X17971241Y-12519363D01*
X17971241Y-12519363D02*
X17952193Y-12509839D01*
X17952193Y-12509839D02*
X17923622Y-12509839D01*
X17923622Y-12509839D02*
X17904574Y-12500316D01*
X17904574Y-12500316D02*
X17895050Y-12481268D01*
X17895050Y-12481268D02*
X17895050Y-12471744D01*
X17895050Y-12471744D02*
X17904574Y-12452697D01*
X17904574Y-12452697D02*
X17923622Y-12443173D01*
X17923622Y-12443173D02*
X17952193Y-12443173D01*
X17952193Y-12443173D02*
X17971241Y-12452697D01*
X18047431Y-12652697D02*
X18056955Y-12643173D01*
X18056955Y-12643173D02*
X18076003Y-12614601D01*
X18076003Y-12614601D02*
X18085526Y-12595554D01*
X18085526Y-12595554D02*
X18095050Y-12566982D01*
X18095050Y-12566982D02*
X18104574Y-12519363D01*
X18104574Y-12519363D02*
X18104574Y-12481268D01*
X18104574Y-12481268D02*
X18095050Y-12433649D01*
X18095050Y-12433649D02*
X18085526Y-12405078D01*
X18085526Y-12405078D02*
X18076003Y-12386030D01*
X18076003Y-12386030D02*
X18056955Y-12357458D01*
X18056955Y-12357458D02*
X18047431Y-12347935D01*
D13*
X13415050Y-12767030D02*
G75*
G03*
X13415050Y-12767030I-50000J0D01*
G01*
D11*
X13767431Y-12840506D02*
X13653145Y-12840506D01*
X13710288Y-12840506D02*
X13710288Y-12640506D01*
X13710288Y-12640506D02*
X13691240Y-12669078D01*
X13691240Y-12669078D02*
X13672193Y-12688125D01*
X13672193Y-12688125D02*
X13653145Y-12697649D01*
X13853145Y-12821458D02*
X13862669Y-12830982D01*
X13862669Y-12830982D02*
X13853145Y-12840506D01*
X13853145Y-12840506D02*
X13843621Y-12830982D01*
X13843621Y-12830982D02*
X13853145Y-12821458D01*
X13853145Y-12821458D02*
X13853145Y-12840506D01*
X13986478Y-12640506D02*
X14005526Y-12640506D01*
X14005526Y-12640506D02*
X14024574Y-12650030D01*
X14024574Y-12650030D02*
X14034098Y-12659554D01*
X14034098Y-12659554D02*
X14043621Y-12678601D01*
X14043621Y-12678601D02*
X14053145Y-12716697D01*
X14053145Y-12716697D02*
X14053145Y-12764316D01*
X14053145Y-12764316D02*
X14043621Y-12802411D01*
X14043621Y-12802411D02*
X14034098Y-12821458D01*
X14034098Y-12821458D02*
X14024574Y-12830982D01*
X14024574Y-12830982D02*
X14005526Y-12840506D01*
X14005526Y-12840506D02*
X13986478Y-12840506D01*
X13986478Y-12840506D02*
X13967431Y-12830982D01*
X13967431Y-12830982D02*
X13957907Y-12821458D01*
X13957907Y-12821458D02*
X13948383Y-12802411D01*
X13948383Y-12802411D02*
X13938859Y-12764316D01*
X13938859Y-12764316D02*
X13938859Y-12716697D01*
X13938859Y-12716697D02*
X13948383Y-12678601D01*
X13948383Y-12678601D02*
X13957907Y-12659554D01*
X13957907Y-12659554D02*
X13967431Y-12650030D01*
X13967431Y-12650030D02*
X13986478Y-12640506D01*
X14176955Y-12640506D02*
X14196002Y-12640506D01*
X14196002Y-12640506D02*
X14215050Y-12650030D01*
X14215050Y-12650030D02*
X14224574Y-12659554D01*
X14224574Y-12659554D02*
X14234098Y-12678601D01*
X14234098Y-12678601D02*
X14243621Y-12716697D01*
X14243621Y-12716697D02*
X14243621Y-12764316D01*
X14243621Y-12764316D02*
X14234098Y-12802411D01*
X14234098Y-12802411D02*
X14224574Y-12821458D01*
X14224574Y-12821458D02*
X14215050Y-12830982D01*
X14215050Y-12830982D02*
X14196002Y-12840506D01*
X14196002Y-12840506D02*
X14176955Y-12840506D01*
X14176955Y-12840506D02*
X14157907Y-12830982D01*
X14157907Y-12830982D02*
X14148383Y-12821458D01*
X14148383Y-12821458D02*
X14138859Y-12802411D01*
X14138859Y-12802411D02*
X14129336Y-12764316D01*
X14129336Y-12764316D02*
X14129336Y-12716697D01*
X14129336Y-12716697D02*
X14138859Y-12678601D01*
X14138859Y-12678601D02*
X14148383Y-12659554D01*
X14148383Y-12659554D02*
X14157907Y-12650030D01*
X14157907Y-12650030D02*
X14176955Y-12640506D01*
X14367431Y-12640506D02*
X14386479Y-12640506D01*
X14386479Y-12640506D02*
X14405526Y-12650030D01*
X14405526Y-12650030D02*
X14415050Y-12659554D01*
X14415050Y-12659554D02*
X14424574Y-12678601D01*
X14424574Y-12678601D02*
X14434098Y-12716697D01*
X14434098Y-12716697D02*
X14434098Y-12764316D01*
X14434098Y-12764316D02*
X14424574Y-12802411D01*
X14424574Y-12802411D02*
X14415050Y-12821458D01*
X14415050Y-12821458D02*
X14405526Y-12830982D01*
X14405526Y-12830982D02*
X14386479Y-12840506D01*
X14386479Y-12840506D02*
X14367431Y-12840506D01*
X14367431Y-12840506D02*
X14348383Y-12830982D01*
X14348383Y-12830982D02*
X14338859Y-12821458D01*
X14338859Y-12821458D02*
X14329336Y-12802411D01*
X14329336Y-12802411D02*
X14319812Y-12764316D01*
X14319812Y-12764316D02*
X14319812Y-12716697D01*
X14319812Y-12716697D02*
X14329336Y-12678601D01*
X14329336Y-12678601D02*
X14338859Y-12659554D01*
X14338859Y-12659554D02*
X14348383Y-12650030D01*
X14348383Y-12650030D02*
X14367431Y-12640506D01*
X14519812Y-12840506D02*
X14519812Y-12707173D01*
X14519812Y-12726220D02*
X14529336Y-12716697D01*
X14529336Y-12716697D02*
X14548383Y-12707173D01*
X14548383Y-12707173D02*
X14576955Y-12707173D01*
X14576955Y-12707173D02*
X14596002Y-12716697D01*
X14596002Y-12716697D02*
X14605526Y-12735744D01*
X14605526Y-12735744D02*
X14605526Y-12840506D01*
X14605526Y-12735744D02*
X14615050Y-12716697D01*
X14615050Y-12716697D02*
X14634098Y-12707173D01*
X14634098Y-12707173D02*
X14662669Y-12707173D01*
X14662669Y-12707173D02*
X14681717Y-12716697D01*
X14681717Y-12716697D02*
X14691240Y-12735744D01*
X14691240Y-12735744D02*
X14691240Y-12840506D01*
X14786479Y-12840506D02*
X14786479Y-12707173D01*
X14786479Y-12726220D02*
X14796002Y-12716697D01*
X14796002Y-12716697D02*
X14815050Y-12707173D01*
X14815050Y-12707173D02*
X14843621Y-12707173D01*
X14843621Y-12707173D02*
X14862669Y-12716697D01*
X14862669Y-12716697D02*
X14872193Y-12735744D01*
X14872193Y-12735744D02*
X14872193Y-12840506D01*
X14872193Y-12735744D02*
X14881717Y-12716697D01*
X14881717Y-12716697D02*
X14900764Y-12707173D01*
X14900764Y-12707173D02*
X14929336Y-12707173D01*
X14929336Y-12707173D02*
X14948383Y-12716697D01*
X14948383Y-12716697D02*
X14957907Y-12735744D01*
X14957907Y-12735744D02*
X14957907Y-12840506D01*
X15316002Y-12630982D02*
X15144574Y-12888125D01*
X15540764Y-12640506D02*
X15559812Y-12640506D01*
X15559812Y-12640506D02*
X15578860Y-12650030D01*
X15578860Y-12650030D02*
X15588383Y-12659554D01*
X15588383Y-12659554D02*
X15597907Y-12678601D01*
X15597907Y-12678601D02*
X15607431Y-12716697D01*
X15607431Y-12716697D02*
X15607431Y-12764316D01*
X15607431Y-12764316D02*
X15597907Y-12802411D01*
X15597907Y-12802411D02*
X15588383Y-12821458D01*
X15588383Y-12821458D02*
X15578860Y-12830982D01*
X15578860Y-12830982D02*
X15559812Y-12840506D01*
X15559812Y-12840506D02*
X15540764Y-12840506D01*
X15540764Y-12840506D02*
X15521717Y-12830982D01*
X15521717Y-12830982D02*
X15512193Y-12821458D01*
X15512193Y-12821458D02*
X15502669Y-12802411D01*
X15502669Y-12802411D02*
X15493145Y-12764316D01*
X15493145Y-12764316D02*
X15493145Y-12716697D01*
X15493145Y-12716697D02*
X15502669Y-12678601D01*
X15502669Y-12678601D02*
X15512193Y-12659554D01*
X15512193Y-12659554D02*
X15521717Y-12650030D01*
X15521717Y-12650030D02*
X15540764Y-12640506D01*
X15693145Y-12821458D02*
X15702669Y-12830982D01*
X15702669Y-12830982D02*
X15693145Y-12840506D01*
X15693145Y-12840506D02*
X15683621Y-12830982D01*
X15683621Y-12830982D02*
X15693145Y-12821458D01*
X15693145Y-12821458D02*
X15693145Y-12840506D01*
X15826479Y-12640506D02*
X15845526Y-12640506D01*
X15845526Y-12640506D02*
X15864574Y-12650030D01*
X15864574Y-12650030D02*
X15874098Y-12659554D01*
X15874098Y-12659554D02*
X15883621Y-12678601D01*
X15883621Y-12678601D02*
X15893145Y-12716697D01*
X15893145Y-12716697D02*
X15893145Y-12764316D01*
X15893145Y-12764316D02*
X15883621Y-12802411D01*
X15883621Y-12802411D02*
X15874098Y-12821458D01*
X15874098Y-12821458D02*
X15864574Y-12830982D01*
X15864574Y-12830982D02*
X15845526Y-12840506D01*
X15845526Y-12840506D02*
X15826479Y-12840506D01*
X15826479Y-12840506D02*
X15807431Y-12830982D01*
X15807431Y-12830982D02*
X15797907Y-12821458D01*
X15797907Y-12821458D02*
X15788383Y-12802411D01*
X15788383Y-12802411D02*
X15778860Y-12764316D01*
X15778860Y-12764316D02*
X15778860Y-12716697D01*
X15778860Y-12716697D02*
X15788383Y-12678601D01*
X15788383Y-12678601D02*
X15797907Y-12659554D01*
X15797907Y-12659554D02*
X15807431Y-12650030D01*
X15807431Y-12650030D02*
X15826479Y-12640506D01*
X15959812Y-12640506D02*
X16083621Y-12640506D01*
X16083621Y-12640506D02*
X16016955Y-12716697D01*
X16016955Y-12716697D02*
X16045526Y-12716697D01*
X16045526Y-12716697D02*
X16064574Y-12726220D01*
X16064574Y-12726220D02*
X16074098Y-12735744D01*
X16074098Y-12735744D02*
X16083621Y-12754792D01*
X16083621Y-12754792D02*
X16083621Y-12802411D01*
X16083621Y-12802411D02*
X16074098Y-12821458D01*
X16074098Y-12821458D02*
X16064574Y-12830982D01*
X16064574Y-12830982D02*
X16045526Y-12840506D01*
X16045526Y-12840506D02*
X15988383Y-12840506D01*
X15988383Y-12840506D02*
X15969336Y-12830982D01*
X15969336Y-12830982D02*
X15959812Y-12821458D01*
X16178860Y-12840506D02*
X16216955Y-12840506D01*
X16216955Y-12840506D02*
X16236002Y-12830982D01*
X16236002Y-12830982D02*
X16245526Y-12821458D01*
X16245526Y-12821458D02*
X16264574Y-12792887D01*
X16264574Y-12792887D02*
X16274098Y-12754792D01*
X16274098Y-12754792D02*
X16274098Y-12678601D01*
X16274098Y-12678601D02*
X16264574Y-12659554D01*
X16264574Y-12659554D02*
X16255050Y-12650030D01*
X16255050Y-12650030D02*
X16236002Y-12640506D01*
X16236002Y-12640506D02*
X16197907Y-12640506D01*
X16197907Y-12640506D02*
X16178860Y-12650030D01*
X16178860Y-12650030D02*
X16169336Y-12659554D01*
X16169336Y-12659554D02*
X16159812Y-12678601D01*
X16159812Y-12678601D02*
X16159812Y-12726220D01*
X16159812Y-12726220D02*
X16169336Y-12745268D01*
X16169336Y-12745268D02*
X16178860Y-12754792D01*
X16178860Y-12754792D02*
X16197907Y-12764316D01*
X16197907Y-12764316D02*
X16236002Y-12764316D01*
X16236002Y-12764316D02*
X16255050Y-12754792D01*
X16255050Y-12754792D02*
X16264574Y-12745268D01*
X16264574Y-12745268D02*
X16274098Y-12726220D01*
X16445526Y-12707173D02*
X16445526Y-12840506D01*
X16397907Y-12630982D02*
X16350288Y-12773839D01*
X16350288Y-12773839D02*
X16474098Y-12773839D01*
X16540764Y-12640506D02*
X16540764Y-12678601D01*
X16616955Y-12640506D02*
X16616955Y-12678601D01*
X16879812Y-12916697D02*
X16870288Y-12907173D01*
X16870288Y-12907173D02*
X16851241Y-12878601D01*
X16851241Y-12878601D02*
X16841717Y-12859554D01*
X16841717Y-12859554D02*
X16832193Y-12830982D01*
X16832193Y-12830982D02*
X16822669Y-12783363D01*
X16822669Y-12783363D02*
X16822669Y-12745268D01*
X16822669Y-12745268D02*
X16832193Y-12697649D01*
X16832193Y-12697649D02*
X16841717Y-12669078D01*
X16841717Y-12669078D02*
X16851241Y-12650030D01*
X16851241Y-12650030D02*
X16870288Y-12621458D01*
X16870288Y-12621458D02*
X16879812Y-12611935D01*
X16936955Y-12640506D02*
X17060764Y-12640506D01*
X17060764Y-12640506D02*
X16994098Y-12716697D01*
X16994098Y-12716697D02*
X17022669Y-12716697D01*
X17022669Y-12716697D02*
X17041717Y-12726220D01*
X17041717Y-12726220D02*
X17051241Y-12735744D01*
X17051241Y-12735744D02*
X17060764Y-12754792D01*
X17060764Y-12754792D02*
X17060764Y-12802411D01*
X17060764Y-12802411D02*
X17051241Y-12821458D01*
X17051241Y-12821458D02*
X17041717Y-12830982D01*
X17041717Y-12830982D02*
X17022669Y-12840506D01*
X17022669Y-12840506D02*
X16965526Y-12840506D01*
X16965526Y-12840506D02*
X16946479Y-12830982D01*
X16946479Y-12830982D02*
X16936955Y-12821458D01*
X17266479Y-12840506D02*
X17266479Y-12640506D01*
X17352193Y-12840506D02*
X17352193Y-12735744D01*
X17352193Y-12735744D02*
X17342669Y-12716697D01*
X17342669Y-12716697D02*
X17323622Y-12707173D01*
X17323622Y-12707173D02*
X17295050Y-12707173D01*
X17295050Y-12707173D02*
X17276003Y-12716697D01*
X17276003Y-12716697D02*
X17266479Y-12726220D01*
X17476003Y-12840506D02*
X17456955Y-12830982D01*
X17456955Y-12830982D02*
X17447431Y-12821458D01*
X17447431Y-12821458D02*
X17437907Y-12802411D01*
X17437907Y-12802411D02*
X17437907Y-12745268D01*
X17437907Y-12745268D02*
X17447431Y-12726220D01*
X17447431Y-12726220D02*
X17456955Y-12716697D01*
X17456955Y-12716697D02*
X17476003Y-12707173D01*
X17476003Y-12707173D02*
X17504574Y-12707173D01*
X17504574Y-12707173D02*
X17523622Y-12716697D01*
X17523622Y-12716697D02*
X17533145Y-12726220D01*
X17533145Y-12726220D02*
X17542669Y-12745268D01*
X17542669Y-12745268D02*
X17542669Y-12802411D01*
X17542669Y-12802411D02*
X17533145Y-12821458D01*
X17533145Y-12821458D02*
X17523622Y-12830982D01*
X17523622Y-12830982D02*
X17504574Y-12840506D01*
X17504574Y-12840506D02*
X17476003Y-12840506D01*
X17656955Y-12840506D02*
X17637907Y-12830982D01*
X17637907Y-12830982D02*
X17628384Y-12811935D01*
X17628384Y-12811935D02*
X17628384Y-12640506D01*
X17809336Y-12830982D02*
X17790288Y-12840506D01*
X17790288Y-12840506D02*
X17752193Y-12840506D01*
X17752193Y-12840506D02*
X17733145Y-12830982D01*
X17733145Y-12830982D02*
X17723622Y-12811935D01*
X17723622Y-12811935D02*
X17723622Y-12735744D01*
X17723622Y-12735744D02*
X17733145Y-12716697D01*
X17733145Y-12716697D02*
X17752193Y-12707173D01*
X17752193Y-12707173D02*
X17790288Y-12707173D01*
X17790288Y-12707173D02*
X17809336Y-12716697D01*
X17809336Y-12716697D02*
X17818860Y-12735744D01*
X17818860Y-12735744D02*
X17818860Y-12754792D01*
X17818860Y-12754792D02*
X17723622Y-12773839D01*
X17895050Y-12830982D02*
X17914098Y-12840506D01*
X17914098Y-12840506D02*
X17952193Y-12840506D01*
X17952193Y-12840506D02*
X17971241Y-12830982D01*
X17971241Y-12830982D02*
X17980765Y-12811935D01*
X17980765Y-12811935D02*
X17980765Y-12802411D01*
X17980765Y-12802411D02*
X17971241Y-12783363D01*
X17971241Y-12783363D02*
X17952193Y-12773839D01*
X17952193Y-12773839D02*
X17923622Y-12773839D01*
X17923622Y-12773839D02*
X17904574Y-12764316D01*
X17904574Y-12764316D02*
X17895050Y-12745268D01*
X17895050Y-12745268D02*
X17895050Y-12735744D01*
X17895050Y-12735744D02*
X17904574Y-12716697D01*
X17904574Y-12716697D02*
X17923622Y-12707173D01*
X17923622Y-12707173D02*
X17952193Y-12707173D01*
X17952193Y-12707173D02*
X17971241Y-12716697D01*
X18047431Y-12916697D02*
X18056955Y-12907173D01*
X18056955Y-12907173D02*
X18076003Y-12878601D01*
X18076003Y-12878601D02*
X18085526Y-12859554D01*
X18085526Y-12859554D02*
X18095050Y-12830982D01*
X18095050Y-12830982D02*
X18104574Y-12783363D01*
X18104574Y-12783363D02*
X18104574Y-12745268D01*
X18104574Y-12745268D02*
X18095050Y-12697649D01*
X18095050Y-12697649D02*
X18085526Y-12669078D01*
X18085526Y-12669078D02*
X18076003Y-12650030D01*
X18076003Y-12650030D02*
X18056955Y-12621458D01*
X18056955Y-12621458D02*
X18047431Y-12611935D01*
M02*
