G04 #@! TF.GenerationSoftware,KiCad,Pcbnew,(7.0.0)*
G04 #@! TF.CreationDate,2023-03-10T21:16:59+00:00*
G04 #@! TF.ProjectId,12v_servo_driver,3132765f-7365-4727-966f-5f6472697665,A*
G04 #@! TF.SameCoordinates,Original*
G04 #@! TF.FileFunction,Copper,L1,Top*
G04 #@! TF.FilePolarity,Positive*
%FSLAX46Y46*%
G04 Gerber Fmt 4.6, Leading zero omitted, Abs format (unit mm)*
G04 Created by KiCad (PCBNEW (7.0.0)) date 2023-03-10 21:16:59*
%MOMM*%
%LPD*%
G01*
G04 APERTURE LIST*
G04 Aperture macros list*
%AMRoundRect*
0 Rectangle with rounded corners*
0 $1 Rounding radius*
0 $2 $3 $4 $5 $6 $7 $8 $9 X,Y pos of 4 corners*
0 Add a 4 corners polygon primitive as box body*
4,1,4,$2,$3,$4,$5,$6,$7,$8,$9,$2,$3,0*
0 Add four circle primitives for the rounded corners*
1,1,$1+$1,$2,$3*
1,1,$1+$1,$4,$5*
1,1,$1+$1,$6,$7*
1,1,$1+$1,$8,$9*
0 Add four rect primitives between the rounded corners*
20,1,$1+$1,$2,$3,$4,$5,0*
20,1,$1+$1,$4,$5,$6,$7,0*
20,1,$1+$1,$6,$7,$8,$9,0*
20,1,$1+$1,$8,$9,$2,$3,0*%
G04 Aperture macros list end*
G04 #@! TA.AperFunction,SMDPad,CuDef*
%ADD10RoundRect,0.249999X-0.925001X0.412501X-0.925001X-0.412501X0.925001X-0.412501X0.925001X0.412501X0*%
G04 #@! TD*
G04 #@! TA.AperFunction,SMDPad,CuDef*
%ADD11RoundRect,0.249999X-0.412501X-0.925001X0.412501X-0.925001X0.412501X0.925001X-0.412501X0.925001X0*%
G04 #@! TD*
G04 #@! TA.AperFunction,ComponentPad*
%ADD12R,1.700000X1.700000*%
G04 #@! TD*
G04 #@! TA.AperFunction,ComponentPad*
%ADD13O,1.700000X1.700000*%
G04 #@! TD*
G04 #@! TA.AperFunction,SMDPad,CuDef*
%ADD14R,2.000000X1.500000*%
G04 #@! TD*
G04 #@! TA.AperFunction,SMDPad,CuDef*
%ADD15R,2.000000X3.800000*%
G04 #@! TD*
G04 #@! TA.AperFunction,ComponentPad*
%ADD16RoundRect,0.250000X0.350000X0.625000X-0.350000X0.625000X-0.350000X-0.625000X0.350000X-0.625000X0*%
G04 #@! TD*
G04 #@! TA.AperFunction,ComponentPad*
%ADD17O,1.200000X1.750000*%
G04 #@! TD*
G04 #@! TA.AperFunction,Conductor*
%ADD18C,0.500000*%
G04 #@! TD*
G04 #@! TA.AperFunction,Conductor*
%ADD19C,0.750000*%
G04 #@! TD*
G04 #@! TA.AperFunction,Conductor*
%ADD20C,0.350000*%
G04 #@! TD*
G04 APERTURE END LIST*
D10*
X161500000Y-113500000D03*
X161500000Y-116575000D03*
D11*
X145500000Y-116750000D03*
X148575000Y-116750000D03*
D12*
X143724999Y-113624999D03*
D13*
X146264999Y-113624999D03*
X148804999Y-113624999D03*
D14*
X158149999Y-117299999D03*
X158149999Y-114999999D03*
X158149999Y-112699999D03*
D15*
X151849999Y-114999999D03*
D16*
X160000000Y-109950000D03*
D17*
X157999999Y-109949999D03*
X155999999Y-109949999D03*
D18*
X158150000Y-110100000D02*
X158000000Y-109950000D01*
X158950000Y-113500000D02*
X158150000Y-112700000D01*
X161500000Y-113500000D02*
X158950000Y-113500000D01*
X158150000Y-112700000D02*
X158150000Y-110100000D01*
X148575000Y-113855000D02*
X148805000Y-113625000D01*
X148575000Y-116750000D02*
X148575000Y-113855000D01*
D19*
X158150000Y-117300000D02*
X157975000Y-117475000D01*
D18*
X155125000Y-112325000D02*
X157800000Y-115000000D01*
X145500000Y-116750000D02*
X145500000Y-114390000D01*
X145500000Y-114390000D02*
X146265000Y-113625000D01*
X147565000Y-112325000D02*
X155125000Y-112325000D01*
X157800000Y-115000000D02*
X158150000Y-115000000D01*
X146265000Y-113625000D02*
X147565000Y-112325000D01*
D20*
X147000000Y-107250000D02*
X143725000Y-110525000D01*
X143725000Y-110525000D02*
X143725000Y-113625000D01*
X160000000Y-109950000D02*
X160000000Y-108000000D01*
X160000000Y-108000000D02*
X159250000Y-107250000D01*
X159250000Y-107250000D02*
X147000000Y-107250000D01*
G04 #@! TA.AperFunction,Conductor*
G36*
X162654374Y-103670679D02*
G01*
X162700362Y-103674702D01*
X162805508Y-103683901D01*
X162827134Y-103687714D01*
X162968341Y-103725551D01*
X162988969Y-103733059D01*
X163121459Y-103794840D01*
X163140480Y-103805822D01*
X163260227Y-103889670D01*
X163277051Y-103903788D01*
X163380411Y-104007148D01*
X163394529Y-104023972D01*
X163478377Y-104143719D01*
X163489359Y-104162740D01*
X163551138Y-104295225D01*
X163558650Y-104315864D01*
X163596484Y-104457063D01*
X163600297Y-104478692D01*
X163613520Y-104629825D01*
X163614000Y-104640807D01*
X163614000Y-105211215D01*
X163614000Y-105219500D01*
X163614000Y-105354356D01*
X163614537Y-105358442D01*
X163614538Y-105358443D01*
X163648664Y-105617664D01*
X163648666Y-105617675D01*
X163649204Y-105621760D01*
X163719011Y-105882281D01*
X163720586Y-105886084D01*
X163720588Y-105886089D01*
X163820647Y-106127653D01*
X163822225Y-106131462D01*
X163957080Y-106365039D01*
X163959591Y-106368311D01*
X164118758Y-106575742D01*
X164118762Y-106575746D01*
X164121270Y-106579015D01*
X164311985Y-106769730D01*
X164315254Y-106772238D01*
X164315257Y-106772241D01*
X164330575Y-106783995D01*
X164525961Y-106933920D01*
X164759538Y-107068775D01*
X165008719Y-107171989D01*
X165269240Y-107241796D01*
X165536644Y-107277000D01*
X165666428Y-107277000D01*
X165671500Y-107277000D01*
X165679785Y-107277000D01*
X166742715Y-107277000D01*
X166747912Y-107277000D01*
X166754094Y-107277152D01*
X167121990Y-107295225D01*
X167134289Y-107296436D01*
X167416422Y-107338287D01*
X167495580Y-107350029D01*
X167507709Y-107352441D01*
X167862013Y-107441190D01*
X167873836Y-107444776D01*
X168217750Y-107567831D01*
X168229150Y-107572553D01*
X168397969Y-107652398D01*
X168559340Y-107728721D01*
X168570245Y-107734550D01*
X168883527Y-107922324D01*
X168893808Y-107929194D01*
X169187179Y-108146773D01*
X169196725Y-108154607D01*
X169467366Y-108399901D01*
X169476098Y-108408633D01*
X169721387Y-108679268D01*
X169729228Y-108688822D01*
X169787902Y-108767935D01*
X169946805Y-108982191D01*
X169953675Y-108992472D01*
X170141449Y-109305754D01*
X170147278Y-109316659D01*
X170303441Y-109646837D01*
X170308173Y-109658261D01*
X170431221Y-110002159D01*
X170434810Y-110013991D01*
X170523558Y-110368291D01*
X170525970Y-110380419D01*
X170579562Y-110741707D01*
X170580774Y-110754012D01*
X170598696Y-111118816D01*
X170598696Y-111131182D01*
X170580774Y-111495987D01*
X170579562Y-111508292D01*
X170525970Y-111869580D01*
X170523558Y-111881708D01*
X170434810Y-112236008D01*
X170431221Y-112247840D01*
X170308173Y-112591738D01*
X170303441Y-112603162D01*
X170147278Y-112933340D01*
X170141449Y-112944245D01*
X169953675Y-113257527D01*
X169946805Y-113267808D01*
X169729231Y-113561173D01*
X169721387Y-113570731D01*
X169476104Y-113841360D01*
X169467360Y-113850104D01*
X169196731Y-114095387D01*
X169187173Y-114103231D01*
X168893808Y-114320805D01*
X168883527Y-114327675D01*
X168570245Y-114515449D01*
X168559340Y-114521278D01*
X168229162Y-114677441D01*
X168217738Y-114682173D01*
X167873840Y-114805221D01*
X167862008Y-114808810D01*
X167507708Y-114897558D01*
X167495580Y-114899970D01*
X167134292Y-114953562D01*
X167121987Y-114954774D01*
X166775471Y-114971797D01*
X166754093Y-114972848D01*
X166747912Y-114973000D01*
X165679785Y-114973000D01*
X165671500Y-114973000D01*
X165536644Y-114973000D01*
X165532558Y-114973537D01*
X165532556Y-114973538D01*
X165273335Y-115007664D01*
X165273321Y-115007666D01*
X165269240Y-115008204D01*
X165265257Y-115009271D01*
X165265253Y-115009272D01*
X165012700Y-115076944D01*
X165012696Y-115076945D01*
X165008719Y-115078011D01*
X165004919Y-115079584D01*
X165004910Y-115079588D01*
X164763346Y-115179647D01*
X164763337Y-115179651D01*
X164759538Y-115181225D01*
X164755969Y-115183285D01*
X164755966Y-115183287D01*
X164529531Y-115314018D01*
X164529521Y-115314024D01*
X164525961Y-115316080D01*
X164522692Y-115318587D01*
X164522688Y-115318591D01*
X164315257Y-115477758D01*
X164315245Y-115477768D01*
X164311985Y-115480270D01*
X164309074Y-115483180D01*
X164309066Y-115483188D01*
X164124188Y-115668066D01*
X164124180Y-115668074D01*
X164121270Y-115670985D01*
X164118768Y-115674245D01*
X164118758Y-115674257D01*
X163967972Y-115870766D01*
X163957080Y-115884961D01*
X163955024Y-115888521D01*
X163955018Y-115888531D01*
X163824287Y-116114966D01*
X163822225Y-116118538D01*
X163820651Y-116122337D01*
X163820647Y-116122346D01*
X163720588Y-116363910D01*
X163720584Y-116363919D01*
X163719011Y-116367719D01*
X163717945Y-116371696D01*
X163717944Y-116371700D01*
X163684086Y-116498061D01*
X163649204Y-116628240D01*
X163648666Y-116632321D01*
X163648664Y-116632335D01*
X163614538Y-116891556D01*
X163614000Y-116895644D01*
X163614000Y-116899766D01*
X163614000Y-117609193D01*
X163613520Y-117620175D01*
X163600297Y-117771307D01*
X163596484Y-117792936D01*
X163558650Y-117934135D01*
X163551138Y-117954774D01*
X163489359Y-118087259D01*
X163478377Y-118106280D01*
X163394529Y-118226027D01*
X163380411Y-118242851D01*
X163277051Y-118346211D01*
X163260227Y-118360329D01*
X163140480Y-118444177D01*
X163121459Y-118455159D01*
X162988974Y-118516938D01*
X162968335Y-118524450D01*
X162827136Y-118562284D01*
X162805507Y-118566097D01*
X162654375Y-118579320D01*
X162643393Y-118579800D01*
X162196772Y-118579800D01*
X159639683Y-118579800D01*
X159573465Y-118560997D01*
X159527011Y-118510200D01*
X159514185Y-118442569D01*
X159538815Y-118378291D01*
X159595045Y-118303175D01*
X159603594Y-118287519D01*
X159648740Y-118166478D01*
X159652337Y-118151257D01*
X159657640Y-118101938D01*
X159658000Y-118095223D01*
X159658000Y-117570590D01*
X159654493Y-117557506D01*
X159641410Y-117554000D01*
X156658590Y-117554000D01*
X156645506Y-117557506D01*
X156642000Y-117570590D01*
X156642000Y-118095223D01*
X156642359Y-118101938D01*
X156647662Y-118151257D01*
X156651259Y-118166478D01*
X156696405Y-118287519D01*
X156704954Y-118303175D01*
X156761185Y-118378291D01*
X156785815Y-118442569D01*
X156772989Y-118510200D01*
X156726535Y-118560997D01*
X156660317Y-118579800D01*
X149408758Y-118579800D01*
X149346394Y-118563284D01*
X149300379Y-118518065D01*
X149282777Y-118455999D01*
X149298202Y-118393356D01*
X149342611Y-118346559D01*
X149454591Y-118277488D01*
X149466032Y-118268441D01*
X149580941Y-118153532D01*
X149589988Y-118142091D01*
X149675307Y-118003767D01*
X149681464Y-117990565D01*
X149732732Y-117835847D01*
X149735592Y-117822489D01*
X149745174Y-117728693D01*
X149745500Y-117722304D01*
X149745500Y-117020590D01*
X149741993Y-117007506D01*
X149728910Y-117004000D01*
X147421091Y-117004000D01*
X147408007Y-117007506D01*
X147404501Y-117020590D01*
X147404501Y-117722301D01*
X147404826Y-117728695D01*
X147414406Y-117822482D01*
X147417269Y-117835853D01*
X147468535Y-117990565D01*
X147474692Y-118003767D01*
X147560011Y-118142091D01*
X147569058Y-118153532D01*
X147683967Y-118268441D01*
X147695408Y-118277488D01*
X147807389Y-118346559D01*
X147851798Y-118393356D01*
X147867223Y-118455999D01*
X147849621Y-118518065D01*
X147803606Y-118563284D01*
X147741242Y-118579800D01*
X146334712Y-118579800D01*
X146272348Y-118563284D01*
X146226333Y-118518065D01*
X146208731Y-118455999D01*
X146224156Y-118393356D01*
X146268565Y-118346559D01*
X146285789Y-118335935D01*
X146386152Y-118274030D01*
X146511530Y-118148652D01*
X146604615Y-117997739D01*
X146660387Y-117829427D01*
X146671000Y-117725546D01*
X146671000Y-115774454D01*
X146660387Y-115670573D01*
X146604615Y-115502261D01*
X146589501Y-115477758D01*
X146515383Y-115357595D01*
X146511530Y-115351348D01*
X146386152Y-115225970D01*
X146379902Y-115222115D01*
X146379901Y-115222114D01*
X146360685Y-115210261D01*
X146318336Y-115167086D01*
X146300982Y-115109152D01*
X146312622Y-115049805D01*
X146350574Y-115002718D01*
X146406091Y-114978740D01*
X146599635Y-114946444D01*
X146812574Y-114873342D01*
X147010576Y-114766189D01*
X147188240Y-114627906D01*
X147340722Y-114462268D01*
X147429817Y-114325896D01*
X147475328Y-114284001D01*
X147535297Y-114268814D01*
X147595267Y-114284000D01*
X147640781Y-114325898D01*
X147726822Y-114457592D01*
X147733210Y-114465799D01*
X147878567Y-114623700D01*
X147886211Y-114630737D01*
X148055588Y-114762568D01*
X148064281Y-114768247D01*
X148178734Y-114830186D01*
X148226467Y-114875606D01*
X148244748Y-114938909D01*
X148228578Y-115002783D01*
X148182378Y-115049763D01*
X148118784Y-115067000D01*
X148115208Y-115067000D01*
X148108804Y-115067326D01*
X148015017Y-115076906D01*
X148001646Y-115079769D01*
X147846934Y-115131035D01*
X147833732Y-115137192D01*
X147695408Y-115222511D01*
X147683967Y-115231558D01*
X147569058Y-115346467D01*
X147560011Y-115357908D01*
X147474692Y-115496232D01*
X147468535Y-115509434D01*
X147417267Y-115664152D01*
X147414407Y-115677510D01*
X147404825Y-115771306D01*
X147404500Y-115777697D01*
X147404500Y-116479410D01*
X147408006Y-116492493D01*
X147421090Y-116496000D01*
X149728909Y-116496000D01*
X149741992Y-116492493D01*
X149745499Y-116479410D01*
X149745499Y-115777699D01*
X149745173Y-115771304D01*
X149735593Y-115677517D01*
X149732730Y-115664146D01*
X149681464Y-115509434D01*
X149675307Y-115496232D01*
X149589988Y-115357908D01*
X149580941Y-115346467D01*
X149466032Y-115231558D01*
X149454591Y-115222511D01*
X149316267Y-115137192D01*
X149303062Y-115131034D01*
X149300081Y-115130046D01*
X149297761Y-115128562D01*
X149296408Y-115127931D01*
X149296492Y-115127750D01*
X149247750Y-115096568D01*
X149217776Y-115042155D01*
X149217445Y-114980033D01*
X149246838Y-114925303D01*
X149298809Y-114891270D01*
X149347437Y-114874576D01*
X149356957Y-114870400D01*
X149545718Y-114768247D01*
X149554411Y-114762568D01*
X149723788Y-114630737D01*
X149731432Y-114623700D01*
X149876789Y-114465799D01*
X149883177Y-114457593D01*
X150000568Y-114277913D01*
X150005511Y-114268778D01*
X150091726Y-114072230D01*
X150096328Y-114058828D01*
X150136478Y-114001603D01*
X150200952Y-113974587D01*
X150269903Y-113986094D01*
X150322108Y-114032583D01*
X150341500Y-114099744D01*
X150341500Y-116948638D01*
X150341859Y-116951985D01*
X150341860Y-116951988D01*
X150347168Y-117001367D01*
X150347169Y-117001373D01*
X150348011Y-117009201D01*
X150350762Y-117016578D01*
X150350763Y-117016580D01*
X150395962Y-117137763D01*
X150395964Y-117137766D01*
X150399111Y-117146204D01*
X150404508Y-117153414D01*
X150404510Y-117153417D01*
X150481340Y-117256049D01*
X150486739Y-117263261D01*
X150493950Y-117268659D01*
X150557546Y-117316267D01*
X150603796Y-117350889D01*
X150740799Y-117401989D01*
X150801362Y-117408500D01*
X152895269Y-117408500D01*
X152898638Y-117408500D01*
X152959201Y-117401989D01*
X153096204Y-117350889D01*
X153213261Y-117263261D01*
X153300889Y-117146204D01*
X153351989Y-117009201D01*
X153358500Y-116948638D01*
X153358500Y-113209500D01*
X153375381Y-113146500D01*
X153421500Y-113100381D01*
X153484500Y-113083500D01*
X154758629Y-113083500D01*
X154806847Y-113093091D01*
X154847724Y-113120405D01*
X156604595Y-114877276D01*
X156631909Y-114918153D01*
X156641500Y-114966371D01*
X156641500Y-115798638D01*
X156641859Y-115801985D01*
X156641860Y-115801988D01*
X156647168Y-115851367D01*
X156647169Y-115851373D01*
X156648011Y-115859201D01*
X156650762Y-115866578D01*
X156650763Y-115866580D01*
X156695962Y-115987763D01*
X156695964Y-115987766D01*
X156699111Y-115996204D01*
X156758029Y-116074910D01*
X156780280Y-116123632D01*
X156780281Y-116177199D01*
X156758029Y-116225924D01*
X156704953Y-116296825D01*
X156696405Y-116312480D01*
X156651259Y-116433521D01*
X156647662Y-116448742D01*
X156642359Y-116498061D01*
X156642000Y-116504777D01*
X156642000Y-117029410D01*
X156645506Y-117042493D01*
X156658590Y-117046000D01*
X159641409Y-117046000D01*
X159670758Y-117038135D01*
X159738042Y-117038704D01*
X159795439Y-117073818D01*
X159826581Y-117133463D01*
X159829768Y-117148350D01*
X159881035Y-117303065D01*
X159887192Y-117316267D01*
X159972511Y-117454591D01*
X159981558Y-117466032D01*
X160096467Y-117580941D01*
X160107908Y-117589988D01*
X160246232Y-117675307D01*
X160259434Y-117681464D01*
X160414152Y-117732732D01*
X160427510Y-117735592D01*
X160521306Y-117745174D01*
X160527696Y-117745500D01*
X161229410Y-117745500D01*
X161242493Y-117741993D01*
X161246000Y-117728910D01*
X161246000Y-117728909D01*
X161754000Y-117728909D01*
X161757506Y-117741992D01*
X161770590Y-117745499D01*
X162472301Y-117745499D01*
X162478695Y-117745173D01*
X162572482Y-117735593D01*
X162585853Y-117732730D01*
X162740565Y-117681464D01*
X162753767Y-117675307D01*
X162892091Y-117589988D01*
X162903532Y-117580941D01*
X163018441Y-117466032D01*
X163027488Y-117454591D01*
X163112807Y-117316267D01*
X163118964Y-117303065D01*
X163170232Y-117148347D01*
X163173092Y-117134989D01*
X163182674Y-117041193D01*
X163183000Y-117034804D01*
X163183000Y-116845590D01*
X163179493Y-116832506D01*
X163166410Y-116829000D01*
X161770590Y-116829000D01*
X161757506Y-116832506D01*
X161754000Y-116845590D01*
X161754000Y-117728909D01*
X161246000Y-117728909D01*
X161246000Y-116304410D01*
X161754000Y-116304410D01*
X161757506Y-116317493D01*
X161770590Y-116321000D01*
X163166409Y-116321000D01*
X163179492Y-116317493D01*
X163182999Y-116304410D01*
X163182999Y-116115199D01*
X163182673Y-116108804D01*
X163173093Y-116015017D01*
X163170230Y-116001646D01*
X163118964Y-115846934D01*
X163112807Y-115833732D01*
X163027488Y-115695408D01*
X163018441Y-115683967D01*
X162903532Y-115569058D01*
X162892091Y-115560011D01*
X162753767Y-115474692D01*
X162740565Y-115468535D01*
X162585847Y-115417267D01*
X162572489Y-115414407D01*
X162478693Y-115404825D01*
X162472304Y-115404500D01*
X161770590Y-115404500D01*
X161757506Y-115408006D01*
X161754000Y-115421090D01*
X161754000Y-116304410D01*
X161246000Y-116304410D01*
X161246000Y-115421091D01*
X161242493Y-115408007D01*
X161229410Y-115404501D01*
X160527699Y-115404501D01*
X160521304Y-115404826D01*
X160427517Y-115414406D01*
X160414146Y-115417269D01*
X160259434Y-115468535D01*
X160246232Y-115474692D01*
X160107908Y-115560011D01*
X160096467Y-115569058D01*
X159981558Y-115683967D01*
X159972511Y-115695408D01*
X159891741Y-115826357D01*
X159844944Y-115870766D01*
X159782301Y-115886191D01*
X159720235Y-115868589D01*
X159675016Y-115822574D01*
X159658500Y-115760210D01*
X159658500Y-114384500D01*
X159675381Y-114321500D01*
X159721500Y-114275381D01*
X159784500Y-114258500D01*
X159826910Y-114258500D01*
X159888316Y-114274476D01*
X159934150Y-114318352D01*
X159975970Y-114386152D01*
X160101348Y-114511530D01*
X160107595Y-114515383D01*
X160246017Y-114600764D01*
X160246019Y-114600765D01*
X160252261Y-114604615D01*
X160420573Y-114660387D01*
X160524454Y-114671000D01*
X162472341Y-114671000D01*
X162475546Y-114671000D01*
X162579427Y-114660387D01*
X162747739Y-114604615D01*
X162898652Y-114511530D01*
X163024030Y-114386152D01*
X163117115Y-114235239D01*
X163172887Y-114066927D01*
X163183500Y-113963046D01*
X163183500Y-113036954D01*
X163172887Y-112933073D01*
X163117115Y-112764761D01*
X163104924Y-112744997D01*
X163027883Y-112620095D01*
X163024030Y-112613848D01*
X162898652Y-112488470D01*
X162887078Y-112481331D01*
X162753982Y-112399235D01*
X162753976Y-112399232D01*
X162747739Y-112395385D01*
X162740777Y-112393078D01*
X162740775Y-112393077D01*
X162585952Y-112341775D01*
X162585950Y-112341774D01*
X162579427Y-112339613D01*
X162572590Y-112338914D01*
X162572588Y-112338914D01*
X162478730Y-112329325D01*
X162478724Y-112329324D01*
X162475546Y-112329000D01*
X160524454Y-112329000D01*
X160521276Y-112329324D01*
X160521269Y-112329325D01*
X160427411Y-112338914D01*
X160427407Y-112338914D01*
X160420573Y-112339613D01*
X160414050Y-112341774D01*
X160414047Y-112341775D01*
X160259224Y-112393077D01*
X160259218Y-112393079D01*
X160252261Y-112395385D01*
X160246026Y-112399230D01*
X160246017Y-112399235D01*
X160107595Y-112484616D01*
X160107590Y-112484619D01*
X160101348Y-112488470D01*
X160096158Y-112493659D01*
X160096154Y-112493663D01*
X159981163Y-112608654D01*
X159981159Y-112608658D01*
X159975970Y-112613848D01*
X159972119Y-112620090D01*
X159972116Y-112620095D01*
X159934151Y-112681647D01*
X159888316Y-112725524D01*
X159826910Y-112741500D01*
X159784500Y-112741500D01*
X159721500Y-112724619D01*
X159675381Y-112678500D01*
X159658500Y-112615500D01*
X159658500Y-111904731D01*
X159658500Y-111901362D01*
X159651989Y-111840799D01*
X159600889Y-111703796D01*
X159586241Y-111684229D01*
X159518659Y-111593950D01*
X159513261Y-111586739D01*
X159471789Y-111555693D01*
X159431646Y-111504826D01*
X159422092Y-111440730D01*
X159445659Y-111380363D01*
X159496113Y-111339694D01*
X159560107Y-111329480D01*
X159599455Y-111333500D01*
X160400544Y-111333499D01*
X160504426Y-111322887D01*
X160672738Y-111267115D01*
X160793278Y-111192765D01*
X164896788Y-111192765D01*
X164897290Y-111197332D01*
X164897291Y-111197344D01*
X164925910Y-111457444D01*
X164925911Y-111457453D01*
X164926414Y-111462018D01*
X164927576Y-111466463D01*
X164927577Y-111466468D01*
X164986456Y-111691684D01*
X164994928Y-111724088D01*
X164996725Y-111728318D01*
X164996728Y-111728325D01*
X165061909Y-111881708D01*
X165100870Y-111973390D01*
X165241982Y-112204610D01*
X165244917Y-112208137D01*
X165244918Y-112208138D01*
X165403949Y-112399235D01*
X165415255Y-112412820D01*
X165499686Y-112488470D01*
X165613561Y-112590503D01*
X165613565Y-112590506D01*
X165616998Y-112593582D01*
X165842910Y-112743044D01*
X166088176Y-112858020D01*
X166347569Y-112936060D01*
X166615561Y-112975500D01*
X166816330Y-112975500D01*
X166818631Y-112975500D01*
X167021156Y-112960677D01*
X167285553Y-112901780D01*
X167538558Y-112805014D01*
X167774777Y-112672441D01*
X167989177Y-112506888D01*
X168177186Y-112311881D01*
X168334799Y-112091579D01*
X168458656Y-111850675D01*
X168546118Y-111594305D01*
X168595319Y-111327933D01*
X168601706Y-111153169D01*
X168605044Y-111061837D01*
X168605043Y-111061834D01*
X168605212Y-111057235D01*
X168575586Y-110787982D01*
X168507072Y-110525912D01*
X168401130Y-110276610D01*
X168260018Y-110045390D01*
X168086745Y-109837180D01*
X168011137Y-109769435D01*
X167888438Y-109659496D01*
X167888432Y-109659491D01*
X167885002Y-109656418D01*
X167659090Y-109506956D01*
X167413824Y-109391980D01*
X167311779Y-109361279D01*
X167158843Y-109315267D01*
X167158838Y-109315265D01*
X167154431Y-109313940D01*
X167149874Y-109313269D01*
X167149868Y-109313268D01*
X166891000Y-109275171D01*
X166890996Y-109275170D01*
X166886439Y-109274500D01*
X166683369Y-109274500D01*
X166681098Y-109274666D01*
X166681076Y-109274667D01*
X166485438Y-109288986D01*
X166485427Y-109288987D01*
X166480844Y-109289323D01*
X166476353Y-109290323D01*
X166476349Y-109290324D01*
X166220939Y-109347219D01*
X166220934Y-109347220D01*
X166216447Y-109348220D01*
X166212149Y-109349863D01*
X166212145Y-109349865D01*
X165967746Y-109443339D01*
X165967735Y-109443343D01*
X165963442Y-109444986D01*
X165959434Y-109447235D01*
X165959422Y-109447241D01*
X165731232Y-109575308D01*
X165731221Y-109575314D01*
X165727223Y-109577559D01*
X165723589Y-109580364D01*
X165723586Y-109580367D01*
X165516466Y-109740298D01*
X165516458Y-109740305D01*
X165512823Y-109743112D01*
X165509632Y-109746421D01*
X165509625Y-109746428D01*
X165328011Y-109934802D01*
X165328004Y-109934809D01*
X165324814Y-109938119D01*
X165322136Y-109941861D01*
X165322131Y-109941868D01*
X165169885Y-110154668D01*
X165169878Y-110154677D01*
X165167201Y-110158421D01*
X165165097Y-110162512D01*
X165165091Y-110162523D01*
X165056214Y-110374292D01*
X165043344Y-110399325D01*
X165041856Y-110403684D01*
X165041854Y-110403691D01*
X164957371Y-110651327D01*
X164957367Y-110651341D01*
X164955882Y-110655695D01*
X164955044Y-110660228D01*
X164955044Y-110660231D01*
X164907517Y-110917537D01*
X164907515Y-110917546D01*
X164906681Y-110922067D01*
X164906513Y-110926656D01*
X164906512Y-110926668D01*
X164896956Y-111188161D01*
X164896788Y-111192765D01*
X160793278Y-111192765D01*
X160823652Y-111174030D01*
X160949030Y-111048652D01*
X161042115Y-110897738D01*
X161097887Y-110729426D01*
X161108500Y-110625545D01*
X161108499Y-109274456D01*
X161097887Y-109170574D01*
X161042115Y-109002262D01*
X161036076Y-108992472D01*
X160952883Y-108857595D01*
X160949030Y-108851348D01*
X160823652Y-108725970D01*
X160804448Y-108714125D01*
X160743353Y-108676441D01*
X160699476Y-108630606D01*
X160683500Y-108569200D01*
X160683500Y-108024459D01*
X160683730Y-108016851D01*
X160685383Y-107989517D01*
X160687264Y-107958428D01*
X160676711Y-107900848D01*
X160675567Y-107893324D01*
X160669432Y-107842798D01*
X160668513Y-107835226D01*
X160665166Y-107826403D01*
X160659043Y-107804437D01*
X160657344Y-107795163D01*
X160633314Y-107741773D01*
X160630410Y-107734760D01*
X160612357Y-107687157D01*
X160609654Y-107680029D01*
X160605325Y-107673758D01*
X160605324Y-107673755D01*
X160604299Y-107672271D01*
X160593091Y-107652398D01*
X160589223Y-107643803D01*
X160553121Y-107597722D01*
X160548611Y-107591592D01*
X160519695Y-107549700D01*
X160519694Y-107549699D01*
X160515365Y-107543427D01*
X160471543Y-107504604D01*
X160466002Y-107499387D01*
X159750604Y-106783989D01*
X159745387Y-106778447D01*
X159711629Y-106740342D01*
X159711628Y-106740341D01*
X159706573Y-106734635D01*
X159658398Y-106701382D01*
X159652268Y-106696871D01*
X159612198Y-106665478D01*
X159612195Y-106665476D01*
X159606197Y-106660777D01*
X159599248Y-106657649D01*
X159599246Y-106657648D01*
X159597594Y-106656905D01*
X159577739Y-106645707D01*
X159576243Y-106644674D01*
X159576236Y-106644670D01*
X159569971Y-106640346D01*
X159515242Y-106619590D01*
X159515237Y-106619588D01*
X159508207Y-106616676D01*
X159461781Y-106595781D01*
X159461779Y-106595780D01*
X159454837Y-106592656D01*
X159447350Y-106591283D01*
X159447338Y-106591280D01*
X159445551Y-106590953D01*
X159423603Y-106584834D01*
X159421903Y-106584189D01*
X159421891Y-106584186D01*
X159414774Y-106581487D01*
X159407217Y-106580569D01*
X159407212Y-106580568D01*
X159356661Y-106574430D01*
X159349140Y-106573285D01*
X159299070Y-106564109D01*
X159299061Y-106564108D01*
X159291572Y-106562736D01*
X159283965Y-106563196D01*
X159283963Y-106563196D01*
X159233149Y-106566270D01*
X159225541Y-106566500D01*
X147024459Y-106566500D01*
X147016851Y-106566270D01*
X146966035Y-106563196D01*
X146966033Y-106563196D01*
X146958427Y-106562736D01*
X146900847Y-106573287D01*
X146893336Y-106574430D01*
X146842793Y-106580568D01*
X146842792Y-106580568D01*
X146835226Y-106581487D01*
X146828098Y-106584189D01*
X146828098Y-106584190D01*
X146826389Y-106584838D01*
X146804449Y-106590953D01*
X146802669Y-106591279D01*
X146802659Y-106591282D01*
X146795163Y-106592656D01*
X146788215Y-106595782D01*
X146788208Y-106595785D01*
X146741778Y-106616680D01*
X146734754Y-106619590D01*
X146696575Y-106634070D01*
X146680029Y-106640346D01*
X146673765Y-106644668D01*
X146673756Y-106644674D01*
X146672262Y-106645706D01*
X146652416Y-106656899D01*
X146650757Y-106657645D01*
X146650746Y-106657651D01*
X146643802Y-106660777D01*
X146637805Y-106665474D01*
X146637802Y-106665477D01*
X146597721Y-106696878D01*
X146591596Y-106701385D01*
X146549700Y-106730304D01*
X146549694Y-106730308D01*
X146543427Y-106734635D01*
X146538374Y-106740338D01*
X146538370Y-106740342D01*
X146504603Y-106778456D01*
X146499388Y-106783995D01*
X143258995Y-110024388D01*
X143253456Y-110029603D01*
X143215342Y-110063370D01*
X143215338Y-110063374D01*
X143209635Y-110068427D01*
X143205306Y-110074699D01*
X143176385Y-110116597D01*
X143171877Y-110122723D01*
X143140476Y-110162804D01*
X143140473Y-110162808D01*
X143135777Y-110168803D01*
X143132651Y-110175747D01*
X143132646Y-110175756D01*
X143131902Y-110177411D01*
X143120712Y-110197253D01*
X143119674Y-110198756D01*
X143119669Y-110198764D01*
X143115346Y-110205029D01*
X143112647Y-110212144D01*
X143112644Y-110212151D01*
X143094589Y-110259759D01*
X143091677Y-110266789D01*
X143070783Y-110313213D01*
X143070780Y-110313219D01*
X143067656Y-110320163D01*
X143066282Y-110327654D01*
X143066279Y-110327667D01*
X143065953Y-110329449D01*
X143059838Y-110351389D01*
X143056487Y-110360226D01*
X143055568Y-110367790D01*
X143055568Y-110367792D01*
X143049430Y-110418337D01*
X143048287Y-110425848D01*
X143037736Y-110483428D01*
X143038196Y-110491034D01*
X143038196Y-110491036D01*
X143041270Y-110541851D01*
X143041500Y-110549459D01*
X143041500Y-112140500D01*
X143024619Y-112203500D01*
X142978500Y-112249619D01*
X142915500Y-112266500D01*
X142826362Y-112266500D01*
X142823015Y-112266859D01*
X142823011Y-112266860D01*
X142773632Y-112272168D01*
X142773625Y-112272169D01*
X142765799Y-112273011D01*
X142758423Y-112275761D01*
X142758419Y-112275763D01*
X142637236Y-112320962D01*
X142637230Y-112320965D01*
X142628796Y-112324111D01*
X142621588Y-112329506D01*
X142621582Y-112329510D01*
X142518950Y-112406340D01*
X142518946Y-112406343D01*
X142511739Y-112411739D01*
X142506343Y-112418946D01*
X142506340Y-112418950D01*
X142429510Y-112521582D01*
X142429506Y-112521588D01*
X142424111Y-112528796D01*
X142420965Y-112537230D01*
X142420962Y-112537236D01*
X142375763Y-112658419D01*
X142375761Y-112658423D01*
X142373011Y-112665799D01*
X142372169Y-112673625D01*
X142372168Y-112673632D01*
X142370585Y-112688362D01*
X142366500Y-112726362D01*
X142366500Y-114523638D01*
X142366859Y-114526985D01*
X142366860Y-114526988D01*
X142372168Y-114576367D01*
X142372169Y-114576373D01*
X142373011Y-114584201D01*
X142375762Y-114591578D01*
X142375763Y-114591580D01*
X142420962Y-114712763D01*
X142420964Y-114712766D01*
X142424111Y-114721204D01*
X142429508Y-114728414D01*
X142429510Y-114728417D01*
X142488566Y-114807306D01*
X142511739Y-114838261D01*
X142518950Y-114843659D01*
X142618461Y-114918153D01*
X142628796Y-114925889D01*
X142765799Y-114976989D01*
X142826362Y-114983500D01*
X142829731Y-114983500D01*
X144562663Y-114983500D01*
X144625027Y-115000016D01*
X144671041Y-115045234D01*
X144688644Y-115107300D01*
X144673219Y-115169943D01*
X144628812Y-115216740D01*
X144620094Y-115222116D01*
X144620085Y-115222122D01*
X144613848Y-115225970D01*
X144608658Y-115231159D01*
X144608654Y-115231163D01*
X144493663Y-115346154D01*
X144493659Y-115346158D01*
X144488470Y-115351348D01*
X144484619Y-115357590D01*
X144484616Y-115357595D01*
X144399235Y-115496017D01*
X144399230Y-115496026D01*
X144395385Y-115502261D01*
X144393079Y-115509218D01*
X144393077Y-115509224D01*
X144341775Y-115664047D01*
X144339613Y-115670573D01*
X144338914Y-115677407D01*
X144338914Y-115677411D01*
X144330455Y-115760210D01*
X144329000Y-115774454D01*
X144329000Y-117725546D01*
X144329324Y-117728724D01*
X144329325Y-117728730D01*
X144331038Y-117745500D01*
X144339613Y-117829427D01*
X144341774Y-117835950D01*
X144341775Y-117835952D01*
X144393007Y-117990565D01*
X144395385Y-117997739D01*
X144399232Y-118003976D01*
X144399235Y-118003982D01*
X144459656Y-118101938D01*
X144488470Y-118148652D01*
X144613848Y-118274030D01*
X144620095Y-118277883D01*
X144731435Y-118346559D01*
X144775844Y-118393356D01*
X144791269Y-118455999D01*
X144773667Y-118518065D01*
X144727652Y-118563284D01*
X144665288Y-118579800D01*
X142156607Y-118579800D01*
X142145625Y-118579320D01*
X141994492Y-118566097D01*
X141972863Y-118562284D01*
X141831664Y-118524450D01*
X141811025Y-118516938D01*
X141678540Y-118455159D01*
X141659519Y-118444177D01*
X141539772Y-118360329D01*
X141522948Y-118346211D01*
X141419588Y-118242851D01*
X141405470Y-118226027D01*
X141387061Y-118199737D01*
X141321622Y-118106280D01*
X141310640Y-118087259D01*
X141248861Y-117954774D01*
X141241351Y-117934141D01*
X141203514Y-117792934D01*
X141199701Y-117771306D01*
X141197136Y-117741992D01*
X141186479Y-117620174D01*
X141186000Y-117609193D01*
X141186000Y-116899766D01*
X141186000Y-116895644D01*
X141150796Y-116628240D01*
X141080989Y-116367719D01*
X140977775Y-116118538D01*
X140842920Y-115884961D01*
X140738552Y-115748946D01*
X140681241Y-115674257D01*
X140681238Y-115674254D01*
X140678730Y-115670985D01*
X140488015Y-115480270D01*
X140484746Y-115477762D01*
X140484742Y-115477758D01*
X140277311Y-115318591D01*
X140274039Y-115316080D01*
X140270471Y-115314020D01*
X140270468Y-115314018D01*
X140127642Y-115231558D01*
X140040462Y-115181225D01*
X140036656Y-115179648D01*
X140036653Y-115179647D01*
X139795089Y-115079588D01*
X139795084Y-115079586D01*
X139791281Y-115078011D01*
X139530760Y-115008204D01*
X139526675Y-115007666D01*
X139526664Y-115007664D01*
X139267443Y-114973538D01*
X139267442Y-114973537D01*
X139263356Y-114973000D01*
X139259234Y-114973000D01*
X138052088Y-114973000D01*
X138045906Y-114972848D01*
X138023119Y-114971728D01*
X137678012Y-114954774D01*
X137665707Y-114953562D01*
X137304419Y-114899970D01*
X137292291Y-114897558D01*
X136937991Y-114808810D01*
X136926159Y-114805221D01*
X136582261Y-114682173D01*
X136570837Y-114677441D01*
X136556529Y-114670674D01*
X136466104Y-114627906D01*
X136240659Y-114521278D01*
X136229754Y-114515449D01*
X135916472Y-114327675D01*
X135906191Y-114320805D01*
X135612826Y-114103231D01*
X135603268Y-114095387D01*
X135332633Y-113850098D01*
X135323901Y-113841366D01*
X135078607Y-113570725D01*
X135070773Y-113561179D01*
X134853194Y-113267808D01*
X134846324Y-113257527D01*
X134658550Y-112944245D01*
X134652721Y-112933340D01*
X134586841Y-112794048D01*
X134496553Y-112603150D01*
X134491831Y-112591750D01*
X134368776Y-112247836D01*
X134365189Y-112236008D01*
X134341265Y-112140500D01*
X134276441Y-111881708D01*
X134274029Y-111869580D01*
X134255599Y-111745336D01*
X134220436Y-111508289D01*
X134219225Y-111495987D01*
X134217556Y-111462018D01*
X134204329Y-111192765D01*
X136194788Y-111192765D01*
X136195290Y-111197332D01*
X136195291Y-111197344D01*
X136223910Y-111457444D01*
X136223911Y-111457453D01*
X136224414Y-111462018D01*
X136225576Y-111466463D01*
X136225577Y-111466468D01*
X136284456Y-111691684D01*
X136292928Y-111724088D01*
X136294725Y-111728318D01*
X136294728Y-111728325D01*
X136359909Y-111881708D01*
X136398870Y-111973390D01*
X136539982Y-112204610D01*
X136542917Y-112208137D01*
X136542918Y-112208138D01*
X136701949Y-112399235D01*
X136713255Y-112412820D01*
X136797686Y-112488470D01*
X136911561Y-112590503D01*
X136911565Y-112590506D01*
X136914998Y-112593582D01*
X137140910Y-112743044D01*
X137386176Y-112858020D01*
X137645569Y-112936060D01*
X137913561Y-112975500D01*
X138114330Y-112975500D01*
X138116631Y-112975500D01*
X138319156Y-112960677D01*
X138583553Y-112901780D01*
X138836558Y-112805014D01*
X139072777Y-112672441D01*
X139287177Y-112506888D01*
X139475186Y-112311881D01*
X139632799Y-112091579D01*
X139756656Y-111850675D01*
X139844118Y-111594305D01*
X139893319Y-111327933D01*
X139899706Y-111153169D01*
X139903044Y-111061837D01*
X139903043Y-111061834D01*
X139903212Y-111057235D01*
X139873586Y-110787982D01*
X139805072Y-110525912D01*
X139699130Y-110276610D01*
X139558018Y-110045390D01*
X139384745Y-109837180D01*
X139309137Y-109769435D01*
X139186438Y-109659496D01*
X139186432Y-109659491D01*
X139183002Y-109656418D01*
X138957090Y-109506956D01*
X138711824Y-109391980D01*
X138609779Y-109361279D01*
X138456843Y-109315267D01*
X138456838Y-109315265D01*
X138452431Y-109313940D01*
X138447874Y-109313269D01*
X138447868Y-109313268D01*
X138189000Y-109275171D01*
X138188996Y-109275170D01*
X138184439Y-109274500D01*
X137981369Y-109274500D01*
X137979098Y-109274666D01*
X137979076Y-109274667D01*
X137783438Y-109288986D01*
X137783427Y-109288987D01*
X137778844Y-109289323D01*
X137774353Y-109290323D01*
X137774349Y-109290324D01*
X137518939Y-109347219D01*
X137518934Y-109347220D01*
X137514447Y-109348220D01*
X137510149Y-109349863D01*
X137510145Y-109349865D01*
X137265746Y-109443339D01*
X137265735Y-109443343D01*
X137261442Y-109444986D01*
X137257434Y-109447235D01*
X137257422Y-109447241D01*
X137029232Y-109575308D01*
X137029221Y-109575314D01*
X137025223Y-109577559D01*
X137021589Y-109580364D01*
X137021586Y-109580367D01*
X136814466Y-109740298D01*
X136814458Y-109740305D01*
X136810823Y-109743112D01*
X136807632Y-109746421D01*
X136807625Y-109746428D01*
X136626011Y-109934802D01*
X136626004Y-109934809D01*
X136622814Y-109938119D01*
X136620136Y-109941861D01*
X136620131Y-109941868D01*
X136467885Y-110154668D01*
X136467878Y-110154677D01*
X136465201Y-110158421D01*
X136463097Y-110162512D01*
X136463091Y-110162523D01*
X136354214Y-110374292D01*
X136341344Y-110399325D01*
X136339856Y-110403684D01*
X136339854Y-110403691D01*
X136255371Y-110651327D01*
X136255367Y-110651341D01*
X136253882Y-110655695D01*
X136253044Y-110660228D01*
X136253044Y-110660231D01*
X136205517Y-110917537D01*
X136205515Y-110917546D01*
X136204681Y-110922067D01*
X136204513Y-110926656D01*
X136204512Y-110926668D01*
X136194956Y-111188161D01*
X136194788Y-111192765D01*
X134204329Y-111192765D01*
X134201303Y-111131168D01*
X134201303Y-111118832D01*
X134219225Y-110754005D01*
X134220437Y-110741707D01*
X134234929Y-110644014D01*
X134274029Y-110380416D01*
X134276441Y-110368291D01*
X134280675Y-110351389D01*
X134365192Y-110013980D01*
X134368774Y-110002169D01*
X134491833Y-109658242D01*
X134496549Y-109646857D01*
X134652723Y-109316655D01*
X134658550Y-109305754D01*
X134846330Y-108992461D01*
X134853187Y-108982200D01*
X135070780Y-108688810D01*
X135078598Y-108679284D01*
X135323911Y-108408622D01*
X135332622Y-108399911D01*
X135603284Y-108154598D01*
X135612810Y-108146780D01*
X135906200Y-107929187D01*
X135916461Y-107922330D01*
X136229758Y-107734547D01*
X136240655Y-107728723D01*
X136570857Y-107572549D01*
X136582242Y-107567833D01*
X136926169Y-107444774D01*
X136937980Y-107441192D01*
X137292294Y-107352440D01*
X137304416Y-107350029D01*
X137665712Y-107296436D01*
X137678007Y-107295225D01*
X138045905Y-107277152D01*
X138052088Y-107277000D01*
X139259234Y-107277000D01*
X139263356Y-107277000D01*
X139530760Y-107241796D01*
X139791281Y-107171989D01*
X140040462Y-107068775D01*
X140274039Y-106933920D01*
X140488015Y-106769730D01*
X140678730Y-106579015D01*
X140842920Y-106365039D01*
X140977775Y-106131462D01*
X141080989Y-105882281D01*
X141150796Y-105621760D01*
X141186000Y-105354356D01*
X141186000Y-105219500D01*
X141186000Y-105211215D01*
X141186000Y-104640807D01*
X141186479Y-104629826D01*
X141199701Y-104478693D01*
X141203515Y-104457063D01*
X141226493Y-104371309D01*
X141241352Y-104315855D01*
X141248857Y-104295233D01*
X141310643Y-104162734D01*
X141321619Y-104143723D01*
X141405475Y-104023965D01*
X141419582Y-104007154D01*
X141522954Y-103903782D01*
X141539765Y-103889675D01*
X141659523Y-103805819D01*
X141678534Y-103794843D01*
X141811033Y-103733057D01*
X141831655Y-103725552D01*
X141972867Y-103687714D01*
X141994489Y-103683901D01*
X142110254Y-103673773D01*
X142145626Y-103670679D01*
X142156607Y-103670200D01*
X142159385Y-103670200D01*
X142603228Y-103670200D01*
X142613372Y-103670200D01*
X162640615Y-103670200D01*
X162643393Y-103670200D01*
X162654374Y-103670679D01*
G37*
G04 #@! TD.AperFunction*
G04 #@! TA.AperFunction,Conductor*
G36*
X158962913Y-107943091D02*
G01*
X159003790Y-107970405D01*
X159279595Y-108246210D01*
X159306909Y-108287087D01*
X159316500Y-108335305D01*
X159316500Y-108569200D01*
X159300524Y-108630606D01*
X159256647Y-108676441D01*
X159182595Y-108722116D01*
X159182590Y-108722119D01*
X159176348Y-108725970D01*
X159171158Y-108731159D01*
X159171154Y-108731163D01*
X159056163Y-108846154D01*
X159056159Y-108846158D01*
X159050970Y-108851348D01*
X159047118Y-108857592D01*
X159047114Y-108857598D01*
X159018893Y-108903351D01*
X158976160Y-108945438D01*
X158918810Y-108963000D01*
X158859838Y-108952056D01*
X158812607Y-108915087D01*
X158809614Y-108911280D01*
X158809611Y-108911277D01*
X158805908Y-108906568D01*
X158726966Y-108838164D01*
X158650456Y-108771867D01*
X158650454Y-108771865D01*
X158645918Y-108767935D01*
X158487444Y-108676441D01*
X158467782Y-108665089D01*
X158467780Y-108665088D01*
X158462582Y-108662087D01*
X158456909Y-108660123D01*
X158456908Y-108660123D01*
X158268203Y-108594811D01*
X158268198Y-108594809D01*
X158262527Y-108592847D01*
X158256587Y-108591992D01*
X158256579Y-108591991D01*
X158058926Y-108563573D01*
X158058922Y-108563572D01*
X158052984Y-108562719D01*
X158046994Y-108563004D01*
X158046987Y-108563004D01*
X157847528Y-108572506D01*
X157847527Y-108572506D01*
X157841526Y-108572792D01*
X157835693Y-108574206D01*
X157835686Y-108574208D01*
X157641632Y-108621286D01*
X157641630Y-108621286D01*
X157635796Y-108622702D01*
X157630337Y-108625194D01*
X157630334Y-108625196D01*
X157448688Y-108708150D01*
X157448679Y-108708154D01*
X157443229Y-108710644D01*
X157438343Y-108714123D01*
X157438340Y-108714125D01*
X157414414Y-108731163D01*
X157270785Y-108833441D01*
X157266649Y-108837778D01*
X157266644Y-108837783D01*
X157128833Y-108982315D01*
X157128827Y-108982322D01*
X157124697Y-108986654D01*
X157121458Y-108991693D01*
X157121454Y-108991699D01*
X157105032Y-109017251D01*
X157062033Y-109058248D01*
X157005029Y-109074984D01*
X156946693Y-109063740D01*
X156899993Y-109027015D01*
X156809251Y-108911627D01*
X156801012Y-108902986D01*
X156650165Y-108772276D01*
X156640425Y-108765340D01*
X156467575Y-108665546D01*
X156456697Y-108660578D01*
X156268085Y-108595299D01*
X156267973Y-108595272D01*
X156257973Y-108596710D01*
X156254000Y-108610241D01*
X156254000Y-111289216D01*
X156256545Y-111300281D01*
X156267903Y-111300146D01*
X156358207Y-111278238D01*
X156369495Y-111274332D01*
X156551060Y-111191414D01*
X156561408Y-111185439D01*
X156723998Y-111069660D01*
X156733028Y-111061835D01*
X156870762Y-110917384D01*
X156878155Y-110907983D01*
X156894350Y-110882783D01*
X156937347Y-110841782D01*
X156994353Y-110825043D01*
X157052692Y-110836286D01*
X157099392Y-110873011D01*
X157194092Y-110993432D01*
X157198624Y-110997359D01*
X157348013Y-111126806D01*
X157380114Y-111169688D01*
X157391500Y-111222030D01*
X157391500Y-111315500D01*
X157374619Y-111378500D01*
X157328500Y-111424619D01*
X157265500Y-111441500D01*
X157101362Y-111441500D01*
X157098015Y-111441859D01*
X157098011Y-111441860D01*
X157048632Y-111447168D01*
X157048625Y-111447169D01*
X157040799Y-111448011D01*
X157033423Y-111450761D01*
X157033419Y-111450763D01*
X156912236Y-111495962D01*
X156912230Y-111495965D01*
X156903796Y-111499111D01*
X156896588Y-111504506D01*
X156896582Y-111504510D01*
X156793950Y-111581340D01*
X156793946Y-111581343D01*
X156786739Y-111586739D01*
X156781343Y-111593946D01*
X156781340Y-111593950D01*
X156704510Y-111696582D01*
X156704506Y-111696588D01*
X156699111Y-111703796D01*
X156695965Y-111712230D01*
X156695962Y-111712236D01*
X156650763Y-111833419D01*
X156650761Y-111833423D01*
X156648011Y-111840799D01*
X156647169Y-111848625D01*
X156647168Y-111848632D01*
X156641860Y-111898011D01*
X156641500Y-111901362D01*
X156641500Y-111904731D01*
X156641500Y-112464629D01*
X156627767Y-112521832D01*
X156589561Y-112566565D01*
X156535211Y-112589078D01*
X156476564Y-112584462D01*
X156426405Y-112553724D01*
X155706909Y-111834228D01*
X155694936Y-111820374D01*
X155684850Y-111806826D01*
X155684847Y-111806823D01*
X155680469Y-111800942D01*
X155674849Y-111796226D01*
X155674846Y-111796223D01*
X155642128Y-111768769D01*
X155634024Y-111761343D01*
X155632694Y-111760013D01*
X155630101Y-111757420D01*
X155627235Y-111755153D01*
X155627224Y-111755144D01*
X155605530Y-111737991D01*
X155602708Y-111735692D01*
X155544640Y-111686968D01*
X155538082Y-111683674D01*
X155535260Y-111681818D01*
X155534915Y-111681568D01*
X155534537Y-111681358D01*
X155531664Y-111679586D01*
X155525906Y-111675033D01*
X155457201Y-111642994D01*
X155453909Y-111641401D01*
X155448620Y-111638745D01*
X155386188Y-111607391D01*
X155379054Y-111605700D01*
X155375886Y-111604547D01*
X155375484Y-111604380D01*
X155375080Y-111604266D01*
X155371854Y-111603197D01*
X155365206Y-111600097D01*
X155335437Y-111593950D01*
X155290942Y-111584762D01*
X155287366Y-111583969D01*
X155220794Y-111568191D01*
X155220787Y-111568190D01*
X155213656Y-111566500D01*
X155206321Y-111566500D01*
X155202983Y-111566110D01*
X155202536Y-111566038D01*
X155202124Y-111566020D01*
X155198738Y-111565723D01*
X155191558Y-111564241D01*
X155184230Y-111564454D01*
X155184228Y-111564454D01*
X155115742Y-111566447D01*
X155112077Y-111566500D01*
X147629442Y-111566500D01*
X147611180Y-111565170D01*
X147594471Y-111562722D01*
X147594467Y-111562721D01*
X147587211Y-111561659D01*
X147579905Y-111562298D01*
X147579901Y-111562298D01*
X147537354Y-111566021D01*
X147526372Y-111566500D01*
X147520820Y-111566500D01*
X147517182Y-111566925D01*
X147517167Y-111566926D01*
X147489711Y-111570135D01*
X147486070Y-111570507D01*
X147417884Y-111576473D01*
X147417880Y-111576473D01*
X147410574Y-111577113D01*
X147403612Y-111579419D01*
X147400285Y-111580106D01*
X147399869Y-111580173D01*
X147399488Y-111580281D01*
X147396156Y-111581070D01*
X147388887Y-111581921D01*
X147382012Y-111584423D01*
X147381996Y-111584427D01*
X147317633Y-111607853D01*
X147314176Y-111609055D01*
X147252251Y-111629575D01*
X147242262Y-111632886D01*
X147236018Y-111636736D01*
X147232951Y-111638167D01*
X147232555Y-111638330D01*
X147232193Y-111638533D01*
X147229159Y-111640056D01*
X147222268Y-111642565D01*
X147216145Y-111646591D01*
X147216137Y-111646596D01*
X147158918Y-111684229D01*
X147155830Y-111686196D01*
X147097593Y-111722117D01*
X147097583Y-111722124D01*
X147091349Y-111725970D01*
X147086165Y-111731153D01*
X147083507Y-111733255D01*
X147083161Y-111733504D01*
X147082863Y-111733778D01*
X147080250Y-111735970D01*
X147074126Y-111739999D01*
X147069097Y-111745329D01*
X147069089Y-111745336D01*
X147022086Y-111795156D01*
X147019534Y-111797783D01*
X146571904Y-112245413D01*
X146521250Y-112276311D01*
X146462071Y-112280600D01*
X146382708Y-112267357D01*
X146382701Y-112267356D01*
X146377569Y-112266500D01*
X146152431Y-112266500D01*
X146147297Y-112267356D01*
X146147293Y-112267357D01*
X145935504Y-112302698D01*
X145935498Y-112302699D01*
X145930365Y-112303556D01*
X145925443Y-112305245D01*
X145925434Y-112305248D01*
X145722357Y-112374964D01*
X145722344Y-112374969D01*
X145717426Y-112376658D01*
X145712847Y-112379135D01*
X145712840Y-112379139D01*
X145524005Y-112481331D01*
X145523997Y-112481336D01*
X145519424Y-112483811D01*
X145515313Y-112487010D01*
X145515311Y-112487012D01*
X145345878Y-112618888D01*
X145345872Y-112618893D01*
X145341760Y-112622094D01*
X145338237Y-112625920D01*
X145338226Y-112625931D01*
X145280754Y-112688362D01*
X145227281Y-112722761D01*
X145163820Y-112726671D01*
X145106530Y-112699095D01*
X145069998Y-112647056D01*
X145046651Y-112584462D01*
X145025889Y-112528796D01*
X144938261Y-112411739D01*
X144894713Y-112379139D01*
X144828417Y-112329510D01*
X144828414Y-112329508D01*
X144821204Y-112324111D01*
X144812766Y-112320964D01*
X144812763Y-112320962D01*
X144691580Y-112275763D01*
X144691578Y-112275762D01*
X144684201Y-112273011D01*
X144676373Y-112272169D01*
X144676367Y-112272168D01*
X144626988Y-112266860D01*
X144626985Y-112266859D01*
X144623638Y-112266500D01*
X144620269Y-112266500D01*
X144534500Y-112266500D01*
X144471500Y-112249619D01*
X144425381Y-112203500D01*
X144408500Y-112140500D01*
X144408500Y-110860305D01*
X144418091Y-110812087D01*
X144445405Y-110771210D01*
X144941835Y-110274780D01*
X154892000Y-110274780D01*
X154892285Y-110280772D01*
X154906503Y-110429668D01*
X154908764Y-110441402D01*
X154964996Y-110632909D01*
X154969441Y-110644014D01*
X155060898Y-110821416D01*
X155067363Y-110831475D01*
X155190747Y-110988372D01*
X155198987Y-110997013D01*
X155349834Y-111127723D01*
X155359574Y-111134659D01*
X155532424Y-111234453D01*
X155543302Y-111239421D01*
X155731914Y-111304700D01*
X155732026Y-111304727D01*
X155742026Y-111303289D01*
X155746000Y-111289759D01*
X155746000Y-110220590D01*
X155742493Y-110207506D01*
X155729410Y-110204000D01*
X154908590Y-110204000D01*
X154895506Y-110207506D01*
X154892000Y-110220590D01*
X154892000Y-110274780D01*
X144941835Y-110274780D01*
X145537205Y-109679410D01*
X154892000Y-109679410D01*
X154895506Y-109692493D01*
X154908590Y-109696000D01*
X155729410Y-109696000D01*
X155742493Y-109692493D01*
X155746000Y-109679410D01*
X155746000Y-108610784D01*
X155743454Y-108599718D01*
X155732096Y-108599853D01*
X155641792Y-108621761D01*
X155630504Y-108625667D01*
X155448939Y-108708585D01*
X155438591Y-108714560D01*
X155276001Y-108830339D01*
X155266971Y-108838164D01*
X155129237Y-108982615D01*
X155121842Y-108992018D01*
X155013939Y-109159920D01*
X155008457Y-109170553D01*
X154934278Y-109355843D01*
X154930909Y-109367317D01*
X154893134Y-109563310D01*
X154892000Y-109575196D01*
X154892000Y-109679410D01*
X145537205Y-109679410D01*
X147246210Y-107970405D01*
X147287087Y-107943091D01*
X147335305Y-107933500D01*
X158914695Y-107933500D01*
X158962913Y-107943091D01*
G37*
G04 #@! TD.AperFunction*
M02*
