G04 #@! TF.GenerationSoftware,KiCad,Pcbnew,(7.0.0)*
G04 #@! TF.CreationDate,2023-03-10T21:16:59+00:00*
G04 #@! TF.ProjectId,12v_servo_driver,3132765f-7365-4727-966f-5f6472697665,A*
G04 #@! TF.SameCoordinates,Original*
G04 #@! TF.FileFunction,Copper,L2,Bot*
G04 #@! TF.FilePolarity,Positive*
%FSLAX46Y46*%
G04 Gerber Fmt 4.6, Leading zero omitted, Abs format (unit mm)*
G04 Created by KiCad (PCBNEW (7.0.0)) date 2023-03-10 21:16:59*
%MOMM*%
%LPD*%
G01*
G04 APERTURE LIST*
G04 Aperture macros list*
%AMRoundRect*
0 Rectangle with rounded corners*
0 $1 Rounding radius*
0 $2 $3 $4 $5 $6 $7 $8 $9 X,Y pos of 4 corners*
0 Add a 4 corners polygon primitive as box body*
4,1,4,$2,$3,$4,$5,$6,$7,$8,$9,$2,$3,0*
0 Add four circle primitives for the rounded corners*
1,1,$1+$1,$2,$3*
1,1,$1+$1,$4,$5*
1,1,$1+$1,$6,$7*
1,1,$1+$1,$8,$9*
0 Add four rect primitives between the rounded corners*
20,1,$1+$1,$2,$3,$4,$5,0*
20,1,$1+$1,$4,$5,$6,$7,0*
20,1,$1+$1,$6,$7,$8,$9,0*
20,1,$1+$1,$8,$9,$2,$3,0*%
G04 Aperture macros list end*
G04 #@! TA.AperFunction,ComponentPad*
%ADD10R,1.700000X1.700000*%
G04 #@! TD*
G04 #@! TA.AperFunction,ComponentPad*
%ADD11O,1.700000X1.700000*%
G04 #@! TD*
G04 #@! TA.AperFunction,ComponentPad*
%ADD12RoundRect,0.250000X0.350000X0.625000X-0.350000X0.625000X-0.350000X-0.625000X0.350000X-0.625000X0*%
G04 #@! TD*
G04 #@! TA.AperFunction,ComponentPad*
%ADD13O,1.200000X1.750000*%
G04 #@! TD*
G04 APERTURE END LIST*
D10*
X143724999Y-113624999D03*
D11*
X146264999Y-113624999D03*
X148804999Y-113624999D03*
D12*
X160000000Y-109950000D03*
D13*
X157999999Y-109949999D03*
X155999999Y-109949999D03*
G04 #@! TA.AperFunction,Conductor*
G36*
X162654374Y-103670679D02*
G01*
X162700362Y-103674702D01*
X162805508Y-103683901D01*
X162827134Y-103687714D01*
X162968341Y-103725551D01*
X162988969Y-103733059D01*
X163121459Y-103794840D01*
X163140480Y-103805822D01*
X163260227Y-103889670D01*
X163277051Y-103903788D01*
X163380411Y-104007148D01*
X163394529Y-104023972D01*
X163478377Y-104143719D01*
X163489359Y-104162740D01*
X163551138Y-104295225D01*
X163558650Y-104315864D01*
X163596484Y-104457063D01*
X163600297Y-104478692D01*
X163613520Y-104629825D01*
X163614000Y-104640807D01*
X163614000Y-105211215D01*
X163614000Y-105219500D01*
X163614000Y-105354356D01*
X163614537Y-105358442D01*
X163614538Y-105358443D01*
X163648664Y-105617664D01*
X163648666Y-105617675D01*
X163649204Y-105621760D01*
X163719011Y-105882281D01*
X163720586Y-105886084D01*
X163720588Y-105886089D01*
X163820647Y-106127653D01*
X163822225Y-106131462D01*
X163957080Y-106365039D01*
X163959591Y-106368311D01*
X164118758Y-106575742D01*
X164118762Y-106575746D01*
X164121270Y-106579015D01*
X164311985Y-106769730D01*
X164525961Y-106933920D01*
X164759538Y-107068775D01*
X165008719Y-107171989D01*
X165269240Y-107241796D01*
X165536644Y-107277000D01*
X165666428Y-107277000D01*
X165671500Y-107277000D01*
X165679785Y-107277000D01*
X166742715Y-107277000D01*
X166747912Y-107277000D01*
X166754094Y-107277152D01*
X167121990Y-107295225D01*
X167134289Y-107296436D01*
X167416422Y-107338287D01*
X167495580Y-107350029D01*
X167507709Y-107352441D01*
X167862013Y-107441190D01*
X167873836Y-107444776D01*
X168217750Y-107567831D01*
X168229150Y-107572553D01*
X168478028Y-107690263D01*
X168559340Y-107728721D01*
X168570245Y-107734550D01*
X168883527Y-107922324D01*
X168893808Y-107929194D01*
X169187179Y-108146773D01*
X169196725Y-108154607D01*
X169467366Y-108399901D01*
X169476098Y-108408633D01*
X169672379Y-108625196D01*
X169721387Y-108679268D01*
X169729228Y-108688822D01*
X169787902Y-108767935D01*
X169946805Y-108982191D01*
X169953675Y-108992472D01*
X170141449Y-109305754D01*
X170147278Y-109316659D01*
X170303441Y-109646837D01*
X170308173Y-109658261D01*
X170431221Y-110002159D01*
X170434810Y-110013991D01*
X170523558Y-110368291D01*
X170525970Y-110380419D01*
X170579562Y-110741707D01*
X170580774Y-110754012D01*
X170598696Y-111118816D01*
X170598696Y-111131182D01*
X170580774Y-111495987D01*
X170579562Y-111508292D01*
X170525970Y-111869580D01*
X170523558Y-111881708D01*
X170434810Y-112236008D01*
X170431221Y-112247840D01*
X170308173Y-112591738D01*
X170303441Y-112603162D01*
X170147278Y-112933340D01*
X170141449Y-112944245D01*
X169953675Y-113257527D01*
X169946805Y-113267808D01*
X169729231Y-113561173D01*
X169721387Y-113570731D01*
X169476104Y-113841360D01*
X169467360Y-113850104D01*
X169196731Y-114095387D01*
X169187173Y-114103231D01*
X168893808Y-114320805D01*
X168883527Y-114327675D01*
X168570245Y-114515449D01*
X168559340Y-114521278D01*
X168229162Y-114677441D01*
X168217738Y-114682173D01*
X167873840Y-114805221D01*
X167862008Y-114808810D01*
X167507708Y-114897558D01*
X167495580Y-114899970D01*
X167134292Y-114953562D01*
X167121987Y-114954774D01*
X166775471Y-114971797D01*
X166754093Y-114972848D01*
X166747912Y-114973000D01*
X165679785Y-114973000D01*
X165671500Y-114973000D01*
X165536644Y-114973000D01*
X165532558Y-114973537D01*
X165532556Y-114973538D01*
X165273335Y-115007664D01*
X165273321Y-115007666D01*
X165269240Y-115008204D01*
X165265257Y-115009271D01*
X165265253Y-115009272D01*
X165012700Y-115076944D01*
X165012696Y-115076945D01*
X165008719Y-115078011D01*
X165004919Y-115079584D01*
X165004910Y-115079588D01*
X164763346Y-115179647D01*
X164763337Y-115179651D01*
X164759538Y-115181225D01*
X164755969Y-115183285D01*
X164755966Y-115183287D01*
X164529531Y-115314018D01*
X164529521Y-115314024D01*
X164525961Y-115316080D01*
X164522692Y-115318587D01*
X164522688Y-115318591D01*
X164315257Y-115477758D01*
X164315245Y-115477768D01*
X164311985Y-115480270D01*
X164309074Y-115483180D01*
X164309066Y-115483188D01*
X164124188Y-115668066D01*
X164124180Y-115668074D01*
X164121270Y-115670985D01*
X164118768Y-115674245D01*
X164118758Y-115674257D01*
X163959591Y-115881688D01*
X163957080Y-115884961D01*
X163955024Y-115888521D01*
X163955018Y-115888531D01*
X163824287Y-116114966D01*
X163822225Y-116118538D01*
X163820651Y-116122337D01*
X163820647Y-116122346D01*
X163720588Y-116363910D01*
X163720584Y-116363919D01*
X163719011Y-116367719D01*
X163649204Y-116628240D01*
X163648666Y-116632321D01*
X163648664Y-116632335D01*
X163614538Y-116891556D01*
X163614000Y-116895644D01*
X163614000Y-116899766D01*
X163614000Y-117609193D01*
X163613520Y-117620175D01*
X163600297Y-117771307D01*
X163596484Y-117792936D01*
X163558650Y-117934135D01*
X163551138Y-117954774D01*
X163489359Y-118087259D01*
X163478377Y-118106280D01*
X163394529Y-118226027D01*
X163380411Y-118242851D01*
X163277051Y-118346211D01*
X163260227Y-118360329D01*
X163140480Y-118444177D01*
X163121459Y-118455159D01*
X162988974Y-118516938D01*
X162968335Y-118524450D01*
X162827136Y-118562284D01*
X162805507Y-118566097D01*
X162654375Y-118579320D01*
X162643393Y-118579800D01*
X162196772Y-118579800D01*
X142156607Y-118579800D01*
X142145625Y-118579320D01*
X141994492Y-118566097D01*
X141972863Y-118562284D01*
X141831664Y-118524450D01*
X141811025Y-118516938D01*
X141678540Y-118455159D01*
X141659519Y-118444177D01*
X141539772Y-118360329D01*
X141522948Y-118346211D01*
X141419588Y-118242851D01*
X141405470Y-118226027D01*
X141387061Y-118199737D01*
X141321622Y-118106280D01*
X141310640Y-118087259D01*
X141248861Y-117954774D01*
X141241351Y-117934141D01*
X141203514Y-117792934D01*
X141199701Y-117771306D01*
X141186479Y-117620174D01*
X141186000Y-117609193D01*
X141186000Y-116899766D01*
X141186000Y-116895644D01*
X141150796Y-116628240D01*
X141080989Y-116367719D01*
X140977775Y-116118538D01*
X140842920Y-115884961D01*
X140678730Y-115670985D01*
X140488015Y-115480270D01*
X140484746Y-115477762D01*
X140484742Y-115477758D01*
X140277311Y-115318591D01*
X140274039Y-115316080D01*
X140270471Y-115314020D01*
X140270468Y-115314018D01*
X140157250Y-115248652D01*
X140040462Y-115181225D01*
X140036656Y-115179648D01*
X140036653Y-115179647D01*
X139795089Y-115079588D01*
X139795084Y-115079586D01*
X139791281Y-115078011D01*
X139530760Y-115008204D01*
X139526675Y-115007666D01*
X139526664Y-115007664D01*
X139267443Y-114973538D01*
X139267442Y-114973537D01*
X139263356Y-114973000D01*
X139259234Y-114973000D01*
X138052088Y-114973000D01*
X138045906Y-114972848D01*
X138023119Y-114971728D01*
X137678012Y-114954774D01*
X137665707Y-114953562D01*
X137304419Y-114899970D01*
X137292291Y-114897558D01*
X136937991Y-114808810D01*
X136926159Y-114805221D01*
X136582261Y-114682173D01*
X136570837Y-114677441D01*
X136521074Y-114653905D01*
X136466104Y-114627906D01*
X136245649Y-114523638D01*
X142366500Y-114523638D01*
X142366859Y-114526985D01*
X142366860Y-114526988D01*
X142372168Y-114576367D01*
X142372169Y-114576373D01*
X142373011Y-114584201D01*
X142375762Y-114591578D01*
X142375763Y-114591580D01*
X142420962Y-114712763D01*
X142420964Y-114712766D01*
X142424111Y-114721204D01*
X142429508Y-114728414D01*
X142429510Y-114728417D01*
X142488566Y-114807306D01*
X142511739Y-114838261D01*
X142518950Y-114843659D01*
X142554671Y-114870400D01*
X142628796Y-114925889D01*
X142765799Y-114976989D01*
X142826362Y-114983500D01*
X144620269Y-114983500D01*
X144623638Y-114983500D01*
X144684201Y-114976989D01*
X144821204Y-114925889D01*
X144938261Y-114838261D01*
X145025889Y-114721204D01*
X145069998Y-114602943D01*
X145106530Y-114550904D01*
X145163820Y-114523328D01*
X145227282Y-114527238D01*
X145280755Y-114561638D01*
X145301526Y-114584201D01*
X145341760Y-114627906D01*
X145519424Y-114766189D01*
X145717426Y-114873342D01*
X145722355Y-114875034D01*
X145722357Y-114875035D01*
X145787965Y-114897558D01*
X145930365Y-114946444D01*
X146152431Y-114983500D01*
X146372358Y-114983500D01*
X146377569Y-114983500D01*
X146599635Y-114946444D01*
X146812574Y-114873342D01*
X147010576Y-114766189D01*
X147188240Y-114627906D01*
X147340722Y-114462268D01*
X147429817Y-114325896D01*
X147475328Y-114284001D01*
X147535297Y-114268814D01*
X147595267Y-114284000D01*
X147640781Y-114325898D01*
X147726822Y-114457592D01*
X147733210Y-114465799D01*
X147878567Y-114623700D01*
X147886211Y-114630737D01*
X148055588Y-114762568D01*
X148064281Y-114768247D01*
X148253042Y-114870400D01*
X148262559Y-114874575D01*
X148465557Y-114944264D01*
X148475627Y-114946814D01*
X148537461Y-114957132D01*
X148548598Y-114956556D01*
X148551000Y-114945664D01*
X149059000Y-114945664D01*
X149061401Y-114956556D01*
X149072538Y-114957132D01*
X149134372Y-114946814D01*
X149144442Y-114944264D01*
X149347440Y-114874575D01*
X149356957Y-114870400D01*
X149545718Y-114768247D01*
X149554411Y-114762568D01*
X149723788Y-114630737D01*
X149731432Y-114623700D01*
X149876789Y-114465799D01*
X149883177Y-114457593D01*
X150000568Y-114277913D01*
X150005511Y-114268778D01*
X150091729Y-114072223D01*
X150095099Y-114062408D01*
X150138013Y-113892943D01*
X150138248Y-113881565D01*
X150127160Y-113879000D01*
X149075590Y-113879000D01*
X149062506Y-113882506D01*
X149059000Y-113895590D01*
X149059000Y-114945664D01*
X148551000Y-114945664D01*
X148551000Y-113354410D01*
X149059000Y-113354410D01*
X149062506Y-113367493D01*
X149075590Y-113371000D01*
X150127160Y-113371000D01*
X150138248Y-113368434D01*
X150138013Y-113357056D01*
X150095099Y-113187591D01*
X150091729Y-113177776D01*
X150005511Y-112981221D01*
X150000568Y-112972086D01*
X149883177Y-112792406D01*
X149876789Y-112784200D01*
X149731432Y-112626299D01*
X149723788Y-112619262D01*
X149554411Y-112487431D01*
X149545718Y-112481752D01*
X149356957Y-112379599D01*
X149347440Y-112375424D01*
X149144442Y-112305735D01*
X149134372Y-112303185D01*
X149072538Y-112292867D01*
X149061401Y-112293443D01*
X149059000Y-112304336D01*
X149059000Y-113354410D01*
X148551000Y-113354410D01*
X148551000Y-112304336D01*
X148548598Y-112293443D01*
X148537461Y-112292867D01*
X148475627Y-112303185D01*
X148465557Y-112305735D01*
X148262559Y-112375424D01*
X148253042Y-112379599D01*
X148064281Y-112481752D01*
X148055588Y-112487431D01*
X147886211Y-112619262D01*
X147878567Y-112626299D01*
X147733210Y-112784200D01*
X147726816Y-112792415D01*
X147640780Y-112924101D01*
X147595267Y-112965999D01*
X147535297Y-112981185D01*
X147475328Y-112965998D01*
X147429816Y-112924101D01*
X147340722Y-112787732D01*
X147249245Y-112688362D01*
X147191772Y-112625930D01*
X147191767Y-112625925D01*
X147188240Y-112622094D01*
X147010576Y-112483811D01*
X147005997Y-112481333D01*
X147005994Y-112481331D01*
X146817159Y-112379139D01*
X146817156Y-112379137D01*
X146812574Y-112376658D01*
X146807650Y-112374967D01*
X146807642Y-112374964D01*
X146604565Y-112305248D01*
X146604559Y-112305246D01*
X146599635Y-112303556D01*
X146594498Y-112302698D01*
X146594495Y-112302698D01*
X146382706Y-112267357D01*
X146382703Y-112267356D01*
X146377569Y-112266500D01*
X146152431Y-112266500D01*
X146147297Y-112267356D01*
X146147293Y-112267357D01*
X145935504Y-112302698D01*
X145935498Y-112302699D01*
X145930365Y-112303556D01*
X145925443Y-112305245D01*
X145925434Y-112305248D01*
X145722357Y-112374964D01*
X145722344Y-112374969D01*
X145717426Y-112376658D01*
X145712847Y-112379135D01*
X145712840Y-112379139D01*
X145524005Y-112481331D01*
X145523997Y-112481336D01*
X145519424Y-112483811D01*
X145515313Y-112487010D01*
X145515311Y-112487012D01*
X145345878Y-112618888D01*
X145345872Y-112618893D01*
X145341760Y-112622094D01*
X145338237Y-112625920D01*
X145338226Y-112625931D01*
X145280754Y-112688362D01*
X145227281Y-112722761D01*
X145163820Y-112726671D01*
X145106530Y-112699095D01*
X145069998Y-112647056D01*
X145029037Y-112537236D01*
X145029036Y-112537235D01*
X145025889Y-112528796D01*
X144994923Y-112487431D01*
X144943659Y-112418950D01*
X144938261Y-112411739D01*
X144931049Y-112406340D01*
X144828417Y-112329510D01*
X144828414Y-112329508D01*
X144821204Y-112324111D01*
X144812766Y-112320964D01*
X144812763Y-112320962D01*
X144691580Y-112275763D01*
X144691578Y-112275762D01*
X144684201Y-112273011D01*
X144676373Y-112272169D01*
X144676367Y-112272168D01*
X144626988Y-112266860D01*
X144626985Y-112266859D01*
X144623638Y-112266500D01*
X142826362Y-112266500D01*
X142823015Y-112266859D01*
X142823011Y-112266860D01*
X142773632Y-112272168D01*
X142773625Y-112272169D01*
X142765799Y-112273011D01*
X142758423Y-112275761D01*
X142758419Y-112275763D01*
X142637236Y-112320962D01*
X142637230Y-112320965D01*
X142628796Y-112324111D01*
X142621588Y-112329506D01*
X142621582Y-112329510D01*
X142518950Y-112406340D01*
X142518946Y-112406343D01*
X142511739Y-112411739D01*
X142506343Y-112418946D01*
X142506340Y-112418950D01*
X142429510Y-112521582D01*
X142429506Y-112521588D01*
X142424111Y-112528796D01*
X142420965Y-112537230D01*
X142420962Y-112537236D01*
X142375763Y-112658419D01*
X142375761Y-112658423D01*
X142373011Y-112665799D01*
X142372169Y-112673625D01*
X142372168Y-112673632D01*
X142370585Y-112688362D01*
X142366500Y-112726362D01*
X142366500Y-114523638D01*
X136245649Y-114523638D01*
X136240659Y-114521278D01*
X136229754Y-114515449D01*
X135916472Y-114327675D01*
X135906191Y-114320805D01*
X135612826Y-114103231D01*
X135603268Y-114095387D01*
X135332633Y-113850098D01*
X135323901Y-113841366D01*
X135078607Y-113570725D01*
X135070773Y-113561179D01*
X134853194Y-113267808D01*
X134846324Y-113257527D01*
X134658550Y-112944245D01*
X134652721Y-112933340D01*
X134585917Y-112792095D01*
X134496553Y-112603150D01*
X134491831Y-112591750D01*
X134368776Y-112247836D01*
X134365189Y-112236008D01*
X134327983Y-112087476D01*
X134276441Y-111881708D01*
X134274029Y-111869580D01*
X134220437Y-111508292D01*
X134219225Y-111495987D01*
X134217556Y-111462018D01*
X134204329Y-111192765D01*
X136194788Y-111192765D01*
X136195290Y-111197332D01*
X136195291Y-111197344D01*
X136223910Y-111457444D01*
X136223911Y-111457453D01*
X136224414Y-111462018D01*
X136225576Y-111466463D01*
X136225577Y-111466468D01*
X136257812Y-111589768D01*
X136292928Y-111724088D01*
X136294725Y-111728318D01*
X136294728Y-111728325D01*
X136359909Y-111881708D01*
X136398870Y-111973390D01*
X136539982Y-112204610D01*
X136542917Y-112208137D01*
X136542918Y-112208138D01*
X136685225Y-112379139D01*
X136713255Y-112412820D01*
X136796526Y-112487431D01*
X136911561Y-112590503D01*
X136911565Y-112590506D01*
X136914998Y-112593582D01*
X137140910Y-112743044D01*
X137386176Y-112858020D01*
X137645569Y-112936060D01*
X137913561Y-112975500D01*
X138114330Y-112975500D01*
X138116631Y-112975500D01*
X138319156Y-112960677D01*
X138583553Y-112901780D01*
X138836558Y-112805014D01*
X139072777Y-112672441D01*
X139287177Y-112506888D01*
X139475186Y-112311881D01*
X139632799Y-112091579D01*
X139756656Y-111850675D01*
X139844118Y-111594305D01*
X139893319Y-111327933D01*
X139900368Y-111135067D01*
X139903044Y-111061837D01*
X139903043Y-111061834D01*
X139903212Y-111057235D01*
X139873586Y-110787982D01*
X139805072Y-110525912D01*
X139699130Y-110276610D01*
X139698013Y-110274780D01*
X154892000Y-110274780D01*
X154892285Y-110280772D01*
X154906503Y-110429668D01*
X154908764Y-110441402D01*
X154964996Y-110632909D01*
X154969441Y-110644014D01*
X155060898Y-110821416D01*
X155067363Y-110831475D01*
X155190747Y-110988372D01*
X155198987Y-110997013D01*
X155349834Y-111127723D01*
X155359574Y-111134659D01*
X155532424Y-111234453D01*
X155543302Y-111239421D01*
X155731914Y-111304700D01*
X155732026Y-111304727D01*
X155742026Y-111303289D01*
X155746000Y-111289759D01*
X155746000Y-111289216D01*
X156254000Y-111289216D01*
X156256545Y-111300281D01*
X156267903Y-111300146D01*
X156358207Y-111278238D01*
X156369495Y-111274332D01*
X156551060Y-111191414D01*
X156561408Y-111185439D01*
X156723998Y-111069660D01*
X156733028Y-111061835D01*
X156870762Y-110917384D01*
X156878155Y-110907983D01*
X156894350Y-110882783D01*
X156937347Y-110841782D01*
X156994353Y-110825043D01*
X157052692Y-110836286D01*
X157099392Y-110873011D01*
X157194092Y-110993432D01*
X157198624Y-110997359D01*
X157278484Y-111066559D01*
X157354082Y-111132065D01*
X157537418Y-111237913D01*
X157737473Y-111307153D01*
X157947016Y-111337281D01*
X158158474Y-111327208D01*
X158364204Y-111277298D01*
X158556771Y-111189356D01*
X158729215Y-111066559D01*
X158733360Y-111062212D01*
X158818595Y-110972820D01*
X158866300Y-110941511D01*
X158922923Y-110934456D01*
X158976852Y-110953101D01*
X159017027Y-110993622D01*
X159050970Y-111048652D01*
X159176348Y-111174030D01*
X159182596Y-111177883D01*
X159182595Y-111177883D01*
X159321018Y-111263264D01*
X159321020Y-111263265D01*
X159327262Y-111267115D01*
X159495574Y-111322887D01*
X159599455Y-111333500D01*
X160400544Y-111333499D01*
X160504426Y-111322887D01*
X160672738Y-111267115D01*
X160793278Y-111192765D01*
X164896788Y-111192765D01*
X164897290Y-111197332D01*
X164897291Y-111197344D01*
X164925910Y-111457444D01*
X164925911Y-111457453D01*
X164926414Y-111462018D01*
X164927576Y-111466463D01*
X164927577Y-111466468D01*
X164959812Y-111589768D01*
X164994928Y-111724088D01*
X164996725Y-111728318D01*
X164996728Y-111728325D01*
X165061909Y-111881708D01*
X165100870Y-111973390D01*
X165241982Y-112204610D01*
X165244917Y-112208137D01*
X165244918Y-112208138D01*
X165387225Y-112379139D01*
X165415255Y-112412820D01*
X165498526Y-112487431D01*
X165613561Y-112590503D01*
X165613565Y-112590506D01*
X165616998Y-112593582D01*
X165842910Y-112743044D01*
X166088176Y-112858020D01*
X166347569Y-112936060D01*
X166615561Y-112975500D01*
X166816330Y-112975500D01*
X166818631Y-112975500D01*
X167021156Y-112960677D01*
X167285553Y-112901780D01*
X167538558Y-112805014D01*
X167774777Y-112672441D01*
X167989177Y-112506888D01*
X168177186Y-112311881D01*
X168334799Y-112091579D01*
X168458656Y-111850675D01*
X168546118Y-111594305D01*
X168595319Y-111327933D01*
X168602368Y-111135067D01*
X168605044Y-111061837D01*
X168605043Y-111061834D01*
X168605212Y-111057235D01*
X168575586Y-110787982D01*
X168507072Y-110525912D01*
X168401130Y-110276610D01*
X168260018Y-110045390D01*
X168086745Y-109837180D01*
X168011137Y-109769435D01*
X167888438Y-109659496D01*
X167888432Y-109659491D01*
X167885002Y-109656418D01*
X167659090Y-109506956D01*
X167413824Y-109391980D01*
X167311779Y-109361279D01*
X167158843Y-109315267D01*
X167158838Y-109315265D01*
X167154431Y-109313940D01*
X167149874Y-109313269D01*
X167149868Y-109313268D01*
X166891000Y-109275171D01*
X166890996Y-109275170D01*
X166886439Y-109274500D01*
X166683369Y-109274500D01*
X166681098Y-109274666D01*
X166681076Y-109274667D01*
X166485438Y-109288986D01*
X166485427Y-109288987D01*
X166480844Y-109289323D01*
X166476353Y-109290323D01*
X166476349Y-109290324D01*
X166220939Y-109347219D01*
X166220934Y-109347220D01*
X166216447Y-109348220D01*
X166212149Y-109349863D01*
X166212145Y-109349865D01*
X165967746Y-109443339D01*
X165967735Y-109443343D01*
X165963442Y-109444986D01*
X165959434Y-109447235D01*
X165959422Y-109447241D01*
X165731232Y-109575308D01*
X165731221Y-109575314D01*
X165727223Y-109577559D01*
X165723589Y-109580364D01*
X165723586Y-109580367D01*
X165516466Y-109740298D01*
X165516458Y-109740305D01*
X165512823Y-109743112D01*
X165509632Y-109746421D01*
X165509625Y-109746428D01*
X165328011Y-109934802D01*
X165328004Y-109934809D01*
X165324814Y-109938119D01*
X165322136Y-109941861D01*
X165322131Y-109941868D01*
X165169885Y-110154668D01*
X165169878Y-110154677D01*
X165167201Y-110158421D01*
X165165097Y-110162512D01*
X165165091Y-110162523D01*
X165056214Y-110374292D01*
X165043344Y-110399325D01*
X165041856Y-110403684D01*
X165041854Y-110403691D01*
X164957371Y-110651327D01*
X164957367Y-110651341D01*
X164955882Y-110655695D01*
X164955044Y-110660228D01*
X164955044Y-110660231D01*
X164907517Y-110917537D01*
X164907515Y-110917546D01*
X164906681Y-110922067D01*
X164906513Y-110926656D01*
X164906512Y-110926668D01*
X164897040Y-111185874D01*
X164896788Y-111192765D01*
X160793278Y-111192765D01*
X160823652Y-111174030D01*
X160949030Y-111048652D01*
X161042115Y-110897738D01*
X161097887Y-110729426D01*
X161108500Y-110625545D01*
X161108499Y-109274456D01*
X161097887Y-109170574D01*
X161042115Y-109002262D01*
X161036076Y-108992472D01*
X160952883Y-108857595D01*
X160949030Y-108851348D01*
X160823652Y-108725970D01*
X160805154Y-108714560D01*
X160678981Y-108636735D01*
X160678976Y-108636732D01*
X160672738Y-108632885D01*
X160665776Y-108630578D01*
X160665774Y-108630577D01*
X160510951Y-108579275D01*
X160510949Y-108579274D01*
X160504426Y-108577113D01*
X160497589Y-108576414D01*
X160497587Y-108576414D01*
X160403729Y-108566825D01*
X160403723Y-108566824D01*
X160400545Y-108566500D01*
X160397339Y-108566500D01*
X159602661Y-108566500D01*
X159602641Y-108566500D01*
X159599456Y-108566501D01*
X159596279Y-108566825D01*
X159596270Y-108566826D01*
X159502411Y-108576414D01*
X159502405Y-108576415D01*
X159495574Y-108577113D01*
X159489058Y-108579271D01*
X159489049Y-108579274D01*
X159334225Y-108630577D01*
X159334219Y-108630579D01*
X159327262Y-108632885D01*
X159321026Y-108636730D01*
X159321018Y-108636735D01*
X159182595Y-108722116D01*
X159182590Y-108722119D01*
X159176348Y-108725970D01*
X159171158Y-108731159D01*
X159171154Y-108731163D01*
X159056163Y-108846154D01*
X159056159Y-108846158D01*
X159050970Y-108851348D01*
X159047118Y-108857592D01*
X159047114Y-108857598D01*
X159018893Y-108903351D01*
X158976160Y-108945438D01*
X158918810Y-108963000D01*
X158859838Y-108952056D01*
X158812607Y-108915087D01*
X158809614Y-108911280D01*
X158809611Y-108911277D01*
X158805908Y-108906568D01*
X158726966Y-108838164D01*
X158650456Y-108771867D01*
X158650454Y-108771865D01*
X158645918Y-108767935D01*
X158492341Y-108679268D01*
X158467782Y-108665089D01*
X158467780Y-108665088D01*
X158462582Y-108662087D01*
X158456909Y-108660123D01*
X158456908Y-108660123D01*
X158268203Y-108594811D01*
X158268198Y-108594809D01*
X158262527Y-108592847D01*
X158256587Y-108591992D01*
X158256579Y-108591991D01*
X158058926Y-108563573D01*
X158058922Y-108563572D01*
X158052984Y-108562719D01*
X158046994Y-108563004D01*
X158046987Y-108563004D01*
X157847528Y-108572506D01*
X157847527Y-108572506D01*
X157841526Y-108572792D01*
X157835693Y-108574206D01*
X157835686Y-108574208D01*
X157641632Y-108621286D01*
X157641630Y-108621286D01*
X157635796Y-108622702D01*
X157630337Y-108625194D01*
X157630334Y-108625196D01*
X157448688Y-108708150D01*
X157448679Y-108708154D01*
X157443229Y-108710644D01*
X157438343Y-108714123D01*
X157438340Y-108714125D01*
X157414414Y-108731163D01*
X157270785Y-108833441D01*
X157266649Y-108837778D01*
X157266644Y-108837783D01*
X157128833Y-108982315D01*
X157128827Y-108982322D01*
X157124697Y-108986654D01*
X157121458Y-108991693D01*
X157121454Y-108991699D01*
X157105032Y-109017251D01*
X157062033Y-109058248D01*
X157005029Y-109074984D01*
X156946693Y-109063740D01*
X156899993Y-109027015D01*
X156809251Y-108911627D01*
X156801012Y-108902986D01*
X156650165Y-108772276D01*
X156640425Y-108765340D01*
X156467575Y-108665546D01*
X156456697Y-108660578D01*
X156268085Y-108595299D01*
X156267973Y-108595272D01*
X156257973Y-108596710D01*
X156254000Y-108610241D01*
X156254000Y-111289216D01*
X155746000Y-111289216D01*
X155746000Y-110220590D01*
X155742493Y-110207506D01*
X155729410Y-110204000D01*
X154908590Y-110204000D01*
X154895506Y-110207506D01*
X154892000Y-110220590D01*
X154892000Y-110274780D01*
X139698013Y-110274780D01*
X139558018Y-110045390D01*
X139384745Y-109837180D01*
X139309137Y-109769435D01*
X139208663Y-109679410D01*
X154892000Y-109679410D01*
X154895506Y-109692493D01*
X154908590Y-109696000D01*
X155729410Y-109696000D01*
X155742493Y-109692493D01*
X155746000Y-109679410D01*
X155746000Y-108610784D01*
X155743454Y-108599718D01*
X155732096Y-108599853D01*
X155641792Y-108621761D01*
X155630504Y-108625667D01*
X155448939Y-108708585D01*
X155438591Y-108714560D01*
X155276001Y-108830339D01*
X155266971Y-108838164D01*
X155129237Y-108982615D01*
X155121842Y-108992018D01*
X155013939Y-109159920D01*
X155008457Y-109170553D01*
X154934278Y-109355843D01*
X154930909Y-109367317D01*
X154893134Y-109563310D01*
X154892000Y-109575196D01*
X154892000Y-109679410D01*
X139208663Y-109679410D01*
X139186438Y-109659496D01*
X139186432Y-109659491D01*
X139183002Y-109656418D01*
X138957090Y-109506956D01*
X138711824Y-109391980D01*
X138609779Y-109361279D01*
X138456843Y-109315267D01*
X138456838Y-109315265D01*
X138452431Y-109313940D01*
X138447874Y-109313269D01*
X138447868Y-109313268D01*
X138189000Y-109275171D01*
X138188996Y-109275170D01*
X138184439Y-109274500D01*
X137981369Y-109274500D01*
X137979098Y-109274666D01*
X137979076Y-109274667D01*
X137783438Y-109288986D01*
X137783427Y-109288987D01*
X137778844Y-109289323D01*
X137774353Y-109290323D01*
X137774349Y-109290324D01*
X137518939Y-109347219D01*
X137518934Y-109347220D01*
X137514447Y-109348220D01*
X137510149Y-109349863D01*
X137510145Y-109349865D01*
X137265746Y-109443339D01*
X137265735Y-109443343D01*
X137261442Y-109444986D01*
X137257434Y-109447235D01*
X137257422Y-109447241D01*
X137029232Y-109575308D01*
X137029221Y-109575314D01*
X137025223Y-109577559D01*
X137021589Y-109580364D01*
X137021586Y-109580367D01*
X136814466Y-109740298D01*
X136814458Y-109740305D01*
X136810823Y-109743112D01*
X136807632Y-109746421D01*
X136807625Y-109746428D01*
X136626011Y-109934802D01*
X136626004Y-109934809D01*
X136622814Y-109938119D01*
X136620136Y-109941861D01*
X136620131Y-109941868D01*
X136467885Y-110154668D01*
X136467878Y-110154677D01*
X136465201Y-110158421D01*
X136463097Y-110162512D01*
X136463091Y-110162523D01*
X136354214Y-110374292D01*
X136341344Y-110399325D01*
X136339856Y-110403684D01*
X136339854Y-110403691D01*
X136255371Y-110651327D01*
X136255367Y-110651341D01*
X136253882Y-110655695D01*
X136253044Y-110660228D01*
X136253044Y-110660231D01*
X136205517Y-110917537D01*
X136205515Y-110917546D01*
X136204681Y-110922067D01*
X136204513Y-110926656D01*
X136204512Y-110926668D01*
X136195040Y-111185874D01*
X136194788Y-111192765D01*
X134204329Y-111192765D01*
X134201303Y-111131168D01*
X134201303Y-111118832D01*
X134219225Y-110754005D01*
X134220437Y-110741707D01*
X134234929Y-110644014D01*
X134274029Y-110380416D01*
X134276441Y-110368291D01*
X134298345Y-110280845D01*
X134365192Y-110013980D01*
X134368774Y-110002169D01*
X134491833Y-109658242D01*
X134496549Y-109646857D01*
X134652723Y-109316655D01*
X134658550Y-109305754D01*
X134846330Y-108992461D01*
X134853187Y-108982200D01*
X135070780Y-108688810D01*
X135078598Y-108679284D01*
X135323911Y-108408622D01*
X135332622Y-108399911D01*
X135603284Y-108154598D01*
X135612810Y-108146780D01*
X135906200Y-107929187D01*
X135916461Y-107922330D01*
X136229758Y-107734547D01*
X136240655Y-107728723D01*
X136570857Y-107572549D01*
X136582242Y-107567833D01*
X136926169Y-107444774D01*
X136937980Y-107441192D01*
X137292294Y-107352440D01*
X137304416Y-107350029D01*
X137665712Y-107296436D01*
X137678007Y-107295225D01*
X138045905Y-107277152D01*
X138052088Y-107277000D01*
X139259234Y-107277000D01*
X139263356Y-107277000D01*
X139530760Y-107241796D01*
X139791281Y-107171989D01*
X140040462Y-107068775D01*
X140274039Y-106933920D01*
X140488015Y-106769730D01*
X140678730Y-106579015D01*
X140842920Y-106365039D01*
X140977775Y-106131462D01*
X141080989Y-105882281D01*
X141150796Y-105621760D01*
X141186000Y-105354356D01*
X141186000Y-105219500D01*
X141186000Y-105211215D01*
X141186000Y-104640807D01*
X141186479Y-104629826D01*
X141199701Y-104478693D01*
X141203515Y-104457063D01*
X141226493Y-104371309D01*
X141241352Y-104315855D01*
X141248857Y-104295233D01*
X141310643Y-104162734D01*
X141321619Y-104143723D01*
X141405475Y-104023965D01*
X141419582Y-104007154D01*
X141522954Y-103903782D01*
X141539765Y-103889675D01*
X141659523Y-103805819D01*
X141678534Y-103794843D01*
X141811033Y-103733057D01*
X141831655Y-103725552D01*
X141972867Y-103687714D01*
X141994489Y-103683901D01*
X142110254Y-103673773D01*
X142145626Y-103670679D01*
X142156607Y-103670200D01*
X142159385Y-103670200D01*
X142603228Y-103670200D01*
X142613372Y-103670200D01*
X162640615Y-103670200D01*
X162643393Y-103670200D01*
X162654374Y-103670679D01*
G37*
G04 #@! TD.AperFunction*
M02*
