G04 #@! TF.GenerationSoftware,KiCad,Pcbnew,(7.0.0)*
G04 #@! TF.CreationDate,2023-03-10T21:16:59+00:00*
G04 #@! TF.ProjectId,12v_servo_driver,3132765f-7365-4727-966f-5f6472697665,A*
G04 #@! TF.SameCoordinates,Original*
G04 #@! TF.FileFunction,Legend,Top*
G04 #@! TF.FilePolarity,Positive*
%FSLAX46Y46*%
G04 Gerber Fmt 4.6, Leading zero omitted, Abs format (unit mm)*
G04 Created by KiCad (PCBNEW (7.0.0)) date 2023-03-10 21:16:59*
%MOMM*%
%LPD*%
G01*
G04 APERTURE LIST*
G04 Aperture macros list*
%AMRoundRect*
0 Rectangle with rounded corners*
0 $1 Rounding radius*
0 $2 $3 $4 $5 $6 $7 $8 $9 X,Y pos of 4 corners*
0 Add a 4 corners polygon primitive as box body*
4,1,4,$2,$3,$4,$5,$6,$7,$8,$9,$2,$3,0*
0 Add four circle primitives for the rounded corners*
1,1,$1+$1,$2,$3*
1,1,$1+$1,$4,$5*
1,1,$1+$1,$6,$7*
1,1,$1+$1,$8,$9*
0 Add four rect primitives between the rounded corners*
20,1,$1+$1,$2,$3,$4,$5,0*
20,1,$1+$1,$4,$5,$6,$7,0*
20,1,$1+$1,$6,$7,$8,$9,0*
20,1,$1+$1,$8,$9,$2,$3,0*%
G04 Aperture macros list end*
%ADD10C,0.150000*%
%ADD11C,0.100000*%
%ADD12C,0.120000*%
%ADD13RoundRect,0.249999X-0.925001X0.412501X-0.925001X-0.412501X0.925001X-0.412501X0.925001X0.412501X0*%
%ADD14RoundRect,0.249999X-0.412501X-0.925001X0.412501X-0.925001X0.412501X0.925001X-0.412501X0.925001X0*%
%ADD15R,1.700000X1.700000*%
%ADD16O,1.700000X1.700000*%
%ADD17R,2.000000X1.500000*%
%ADD18R,2.000000X3.800000*%
%ADD19RoundRect,0.250000X0.350000X0.625000X-0.350000X0.625000X-0.350000X-0.625000X0.350000X-0.625000X0*%
%ADD20O,1.200000X1.750000*%
%ADD21C,3.200000*%
G04 APERTURE END LIST*
D10*
X152442619Y-104614285D02*
X152918809Y-104280952D01*
X152442619Y-104042857D02*
X153442619Y-104042857D01*
X153442619Y-104042857D02*
X153442619Y-104423809D01*
X153442619Y-104423809D02*
X153395000Y-104519047D01*
X153395000Y-104519047D02*
X153347380Y-104566666D01*
X153347380Y-104566666D02*
X153252142Y-104614285D01*
X153252142Y-104614285D02*
X153109285Y-104614285D01*
X153109285Y-104614285D02*
X153014047Y-104566666D01*
X153014047Y-104566666D02*
X152966428Y-104519047D01*
X152966428Y-104519047D02*
X152918809Y-104423809D01*
X152918809Y-104423809D02*
X152918809Y-104042857D01*
X152490238Y-105423809D02*
X152442619Y-105328571D01*
X152442619Y-105328571D02*
X152442619Y-105138095D01*
X152442619Y-105138095D02*
X152490238Y-105042857D01*
X152490238Y-105042857D02*
X152585476Y-104995238D01*
X152585476Y-104995238D02*
X152966428Y-104995238D01*
X152966428Y-104995238D02*
X153061666Y-105042857D01*
X153061666Y-105042857D02*
X153109285Y-105138095D01*
X153109285Y-105138095D02*
X153109285Y-105328571D01*
X153109285Y-105328571D02*
X153061666Y-105423809D01*
X153061666Y-105423809D02*
X152966428Y-105471428D01*
X152966428Y-105471428D02*
X152871190Y-105471428D01*
X152871190Y-105471428D02*
X152775952Y-104995238D01*
X153109285Y-105804762D02*
X152442619Y-106042857D01*
X152442619Y-106042857D02*
X153109285Y-106280952D01*
X152537857Y-106661905D02*
X152490238Y-106709524D01*
X152490238Y-106709524D02*
X152442619Y-106661905D01*
X152442619Y-106661905D02*
X152490238Y-106614286D01*
X152490238Y-106614286D02*
X152537857Y-106661905D01*
X152537857Y-106661905D02*
X152442619Y-106661905D01*
X153061666Y-106661905D02*
X153014047Y-106709524D01*
X153014047Y-106709524D02*
X152966428Y-106661905D01*
X152966428Y-106661905D02*
X153014047Y-106614286D01*
X153014047Y-106614286D02*
X153061666Y-106661905D01*
X153061666Y-106661905D02*
X152966428Y-106661905D01*
X152966428Y-107471428D02*
X152918809Y-107614285D01*
X152918809Y-107614285D02*
X152871190Y-107661904D01*
X152871190Y-107661904D02*
X152775952Y-107709523D01*
X152775952Y-107709523D02*
X152633095Y-107709523D01*
X152633095Y-107709523D02*
X152537857Y-107661904D01*
X152537857Y-107661904D02*
X152490238Y-107614285D01*
X152490238Y-107614285D02*
X152442619Y-107519047D01*
X152442619Y-107519047D02*
X152442619Y-107138095D01*
X152442619Y-107138095D02*
X153442619Y-107138095D01*
X153442619Y-107138095D02*
X153442619Y-107471428D01*
X153442619Y-107471428D02*
X153395000Y-107566666D01*
X153395000Y-107566666D02*
X153347380Y-107614285D01*
X153347380Y-107614285D02*
X153252142Y-107661904D01*
X153252142Y-107661904D02*
X153156904Y-107661904D01*
X153156904Y-107661904D02*
X153061666Y-107614285D01*
X153061666Y-107614285D02*
X153014047Y-107566666D01*
X153014047Y-107566666D02*
X152966428Y-107471428D01*
X152966428Y-107471428D02*
X152966428Y-107138095D01*
X152490238Y-108690476D02*
X152442619Y-108833333D01*
X152442619Y-108833333D02*
X152442619Y-109071428D01*
X152442619Y-109071428D02*
X152490238Y-109166666D01*
X152490238Y-109166666D02*
X152537857Y-109214285D01*
X152537857Y-109214285D02*
X152633095Y-109261904D01*
X152633095Y-109261904D02*
X152728333Y-109261904D01*
X152728333Y-109261904D02*
X152823571Y-109214285D01*
X152823571Y-109214285D02*
X152871190Y-109166666D01*
X152871190Y-109166666D02*
X152918809Y-109071428D01*
X152918809Y-109071428D02*
X152966428Y-108880952D01*
X152966428Y-108880952D02*
X153014047Y-108785714D01*
X153014047Y-108785714D02*
X153061666Y-108738095D01*
X153061666Y-108738095D02*
X153156904Y-108690476D01*
X153156904Y-108690476D02*
X153252142Y-108690476D01*
X153252142Y-108690476D02*
X153347380Y-108738095D01*
X153347380Y-108738095D02*
X153395000Y-108785714D01*
X153395000Y-108785714D02*
X153442619Y-108880952D01*
X153442619Y-108880952D02*
X153442619Y-109119047D01*
X153442619Y-109119047D02*
X153395000Y-109261904D01*
X152490238Y-110071428D02*
X152442619Y-109976190D01*
X152442619Y-109976190D02*
X152442619Y-109785714D01*
X152442619Y-109785714D02*
X152490238Y-109690476D01*
X152490238Y-109690476D02*
X152585476Y-109642857D01*
X152585476Y-109642857D02*
X152966428Y-109642857D01*
X152966428Y-109642857D02*
X153061666Y-109690476D01*
X153061666Y-109690476D02*
X153109285Y-109785714D01*
X153109285Y-109785714D02*
X153109285Y-109976190D01*
X153109285Y-109976190D02*
X153061666Y-110071428D01*
X153061666Y-110071428D02*
X152966428Y-110119047D01*
X152966428Y-110119047D02*
X152871190Y-110119047D01*
X152871190Y-110119047D02*
X152775952Y-109642857D01*
X152442619Y-110547619D02*
X153109285Y-110547619D01*
X152918809Y-110547619D02*
X153014047Y-110595238D01*
X153014047Y-110595238D02*
X153061666Y-110642857D01*
X153061666Y-110642857D02*
X153109285Y-110738095D01*
X153109285Y-110738095D02*
X153109285Y-110833333D01*
X153109285Y-111071429D02*
X152442619Y-111309524D01*
X152442619Y-111309524D02*
X153109285Y-111547619D01*
X152442619Y-112071429D02*
X152490238Y-111976191D01*
X152490238Y-111976191D02*
X152537857Y-111928572D01*
X152537857Y-111928572D02*
X152633095Y-111880953D01*
X152633095Y-111880953D02*
X152918809Y-111880953D01*
X152918809Y-111880953D02*
X153014047Y-111928572D01*
X153014047Y-111928572D02*
X153061666Y-111976191D01*
X153061666Y-111976191D02*
X153109285Y-112071429D01*
X153109285Y-112071429D02*
X153109285Y-112214286D01*
X153109285Y-112214286D02*
X153061666Y-112309524D01*
X153061666Y-112309524D02*
X153014047Y-112357143D01*
X153014047Y-112357143D02*
X152918809Y-112404762D01*
X152918809Y-112404762D02*
X152633095Y-112404762D01*
X152633095Y-112404762D02*
X152537857Y-112357143D01*
X152537857Y-112357143D02*
X152490238Y-112309524D01*
X152490238Y-112309524D02*
X152442619Y-112214286D01*
X152442619Y-112214286D02*
X152442619Y-112071429D01*
X150870238Y-105523808D02*
X150822619Y-105428570D01*
X150822619Y-105428570D02*
X150822619Y-105238094D01*
X150822619Y-105238094D02*
X150870238Y-105142856D01*
X150870238Y-105142856D02*
X150917857Y-105095237D01*
X150917857Y-105095237D02*
X151013095Y-105047618D01*
X151013095Y-105047618D02*
X151298809Y-105047618D01*
X151298809Y-105047618D02*
X151394047Y-105095237D01*
X151394047Y-105095237D02*
X151441666Y-105142856D01*
X151441666Y-105142856D02*
X151489285Y-105238094D01*
X151489285Y-105238094D02*
X151489285Y-105428570D01*
X151489285Y-105428570D02*
X151441666Y-105523808D01*
X150822619Y-106095237D02*
X150870238Y-105999999D01*
X150870238Y-105999999D02*
X150917857Y-105952380D01*
X150917857Y-105952380D02*
X151013095Y-105904761D01*
X151013095Y-105904761D02*
X151298809Y-105904761D01*
X151298809Y-105904761D02*
X151394047Y-105952380D01*
X151394047Y-105952380D02*
X151441666Y-105999999D01*
X151441666Y-105999999D02*
X151489285Y-106095237D01*
X151489285Y-106095237D02*
X151489285Y-106238094D01*
X151489285Y-106238094D02*
X151441666Y-106333332D01*
X151441666Y-106333332D02*
X151394047Y-106380951D01*
X151394047Y-106380951D02*
X151298809Y-106428570D01*
X151298809Y-106428570D02*
X151013095Y-106428570D01*
X151013095Y-106428570D02*
X150917857Y-106380951D01*
X150917857Y-106380951D02*
X150870238Y-106333332D01*
X150870238Y-106333332D02*
X150822619Y-106238094D01*
X150822619Y-106238094D02*
X150822619Y-106095237D01*
X151489285Y-106857142D02*
X150822619Y-106857142D01*
X151394047Y-106857142D02*
X151441666Y-106904761D01*
X151441666Y-106904761D02*
X151489285Y-106999999D01*
X151489285Y-106999999D02*
X151489285Y-107142856D01*
X151489285Y-107142856D02*
X151441666Y-107238094D01*
X151441666Y-107238094D02*
X151346428Y-107285713D01*
X151346428Y-107285713D02*
X150822619Y-107285713D01*
X151489285Y-107619047D02*
X151489285Y-107999999D01*
X151822619Y-107761904D02*
X150965476Y-107761904D01*
X150965476Y-107761904D02*
X150870238Y-107809523D01*
X150870238Y-107809523D02*
X150822619Y-107904761D01*
X150822619Y-107904761D02*
X150822619Y-107999999D01*
X150822619Y-108333333D02*
X151489285Y-108333333D01*
X151298809Y-108333333D02*
X151394047Y-108380952D01*
X151394047Y-108380952D02*
X151441666Y-108428571D01*
X151441666Y-108428571D02*
X151489285Y-108523809D01*
X151489285Y-108523809D02*
X151489285Y-108619047D01*
X150822619Y-109095238D02*
X150870238Y-109000000D01*
X150870238Y-109000000D02*
X150917857Y-108952381D01*
X150917857Y-108952381D02*
X151013095Y-108904762D01*
X151013095Y-108904762D02*
X151298809Y-108904762D01*
X151298809Y-108904762D02*
X151394047Y-108952381D01*
X151394047Y-108952381D02*
X151441666Y-109000000D01*
X151441666Y-109000000D02*
X151489285Y-109095238D01*
X151489285Y-109095238D02*
X151489285Y-109238095D01*
X151489285Y-109238095D02*
X151441666Y-109333333D01*
X151441666Y-109333333D02*
X151394047Y-109380952D01*
X151394047Y-109380952D02*
X151298809Y-109428571D01*
X151298809Y-109428571D02*
X151013095Y-109428571D01*
X151013095Y-109428571D02*
X150917857Y-109380952D01*
X150917857Y-109380952D02*
X150870238Y-109333333D01*
X150870238Y-109333333D02*
X150822619Y-109238095D01*
X150822619Y-109238095D02*
X150822619Y-109095238D01*
X150822619Y-110000000D02*
X150870238Y-109904762D01*
X150870238Y-109904762D02*
X150965476Y-109857143D01*
X150965476Y-109857143D02*
X151822619Y-109857143D01*
X150822619Y-110523810D02*
X150870238Y-110428572D01*
X150870238Y-110428572D02*
X150965476Y-110380953D01*
X150965476Y-110380953D02*
X151822619Y-110380953D01*
X150870238Y-111285715D02*
X150822619Y-111190477D01*
X150822619Y-111190477D02*
X150822619Y-111000001D01*
X150822619Y-111000001D02*
X150870238Y-110904763D01*
X150870238Y-110904763D02*
X150965476Y-110857144D01*
X150965476Y-110857144D02*
X151346428Y-110857144D01*
X151346428Y-110857144D02*
X151441666Y-110904763D01*
X151441666Y-110904763D02*
X151489285Y-111000001D01*
X151489285Y-111000001D02*
X151489285Y-111190477D01*
X151489285Y-111190477D02*
X151441666Y-111285715D01*
X151441666Y-111285715D02*
X151346428Y-111333334D01*
X151346428Y-111333334D02*
X151251190Y-111333334D01*
X151251190Y-111333334D02*
X151155952Y-110857144D01*
X150822619Y-111761906D02*
X151489285Y-111761906D01*
X151298809Y-111761906D02*
X151394047Y-111809525D01*
X151394047Y-111809525D02*
X151441666Y-111857144D01*
X151441666Y-111857144D02*
X151489285Y-111952382D01*
X151489285Y-111952382D02*
X151489285Y-112047620D01*
D11*
X147707500Y-106880952D02*
X147683690Y-106928571D01*
X147683690Y-106928571D02*
X147683690Y-107000000D01*
X147683690Y-107000000D02*
X147707500Y-107071428D01*
X147707500Y-107071428D02*
X147755119Y-107119047D01*
X147755119Y-107119047D02*
X147802738Y-107142857D01*
X147802738Y-107142857D02*
X147897976Y-107166666D01*
X147897976Y-107166666D02*
X147969404Y-107166666D01*
X147969404Y-107166666D02*
X148064642Y-107142857D01*
X148064642Y-107142857D02*
X148112261Y-107119047D01*
X148112261Y-107119047D02*
X148159880Y-107071428D01*
X148159880Y-107071428D02*
X148183690Y-107000000D01*
X148183690Y-107000000D02*
X148183690Y-106952381D01*
X148183690Y-106952381D02*
X148159880Y-106880952D01*
X148159880Y-106880952D02*
X148136071Y-106857143D01*
X148136071Y-106857143D02*
X147969404Y-106857143D01*
X147969404Y-106857143D02*
X147969404Y-106952381D01*
X148183690Y-106642857D02*
X147683690Y-106642857D01*
X147683690Y-106642857D02*
X148183690Y-106357143D01*
X148183690Y-106357143D02*
X147683690Y-106357143D01*
X148183690Y-106119047D02*
X147683690Y-106119047D01*
X147683690Y-106119047D02*
X147683690Y-105999999D01*
X147683690Y-105999999D02*
X147707500Y-105928571D01*
X147707500Y-105928571D02*
X147755119Y-105880952D01*
X147755119Y-105880952D02*
X147802738Y-105857142D01*
X147802738Y-105857142D02*
X147897976Y-105833333D01*
X147897976Y-105833333D02*
X147969404Y-105833333D01*
X147969404Y-105833333D02*
X148064642Y-105857142D01*
X148064642Y-105857142D02*
X148112261Y-105880952D01*
X148112261Y-105880952D02*
X148159880Y-105928571D01*
X148159880Y-105928571D02*
X148183690Y-105999999D01*
X148183690Y-105999999D02*
X148183690Y-106119047D01*
X145183690Y-106595237D02*
X145183690Y-106833332D01*
X145183690Y-106833332D02*
X145421785Y-106857141D01*
X145421785Y-106857141D02*
X145397976Y-106833332D01*
X145397976Y-106833332D02*
X145374166Y-106785713D01*
X145374166Y-106785713D02*
X145374166Y-106666665D01*
X145374166Y-106666665D02*
X145397976Y-106619046D01*
X145397976Y-106619046D02*
X145421785Y-106595237D01*
X145421785Y-106595237D02*
X145469404Y-106571427D01*
X145469404Y-106571427D02*
X145588452Y-106571427D01*
X145588452Y-106571427D02*
X145636071Y-106595237D01*
X145636071Y-106595237D02*
X145659880Y-106619046D01*
X145659880Y-106619046D02*
X145683690Y-106666665D01*
X145683690Y-106666665D02*
X145683690Y-106785713D01*
X145683690Y-106785713D02*
X145659880Y-106833332D01*
X145659880Y-106833332D02*
X145636071Y-106857141D01*
X145183690Y-106428570D02*
X145683690Y-106261904D01*
X145683690Y-106261904D02*
X145183690Y-106095237D01*
X143159880Y-107690475D02*
X143183690Y-107619047D01*
X143183690Y-107619047D02*
X143183690Y-107499999D01*
X143183690Y-107499999D02*
X143159880Y-107452380D01*
X143159880Y-107452380D02*
X143136071Y-107428571D01*
X143136071Y-107428571D02*
X143088452Y-107404761D01*
X143088452Y-107404761D02*
X143040833Y-107404761D01*
X143040833Y-107404761D02*
X142993214Y-107428571D01*
X142993214Y-107428571D02*
X142969404Y-107452380D01*
X142969404Y-107452380D02*
X142945595Y-107499999D01*
X142945595Y-107499999D02*
X142921785Y-107595237D01*
X142921785Y-107595237D02*
X142897976Y-107642856D01*
X142897976Y-107642856D02*
X142874166Y-107666666D01*
X142874166Y-107666666D02*
X142826547Y-107690475D01*
X142826547Y-107690475D02*
X142778928Y-107690475D01*
X142778928Y-107690475D02*
X142731309Y-107666666D01*
X142731309Y-107666666D02*
X142707500Y-107642856D01*
X142707500Y-107642856D02*
X142683690Y-107595237D01*
X142683690Y-107595237D02*
X142683690Y-107476190D01*
X142683690Y-107476190D02*
X142707500Y-107404761D01*
X143183690Y-107190476D02*
X142683690Y-107190476D01*
X142707500Y-106690476D02*
X142683690Y-106738095D01*
X142683690Y-106738095D02*
X142683690Y-106809524D01*
X142683690Y-106809524D02*
X142707500Y-106880952D01*
X142707500Y-106880952D02*
X142755119Y-106928571D01*
X142755119Y-106928571D02*
X142802738Y-106952381D01*
X142802738Y-106952381D02*
X142897976Y-106976190D01*
X142897976Y-106976190D02*
X142969404Y-106976190D01*
X142969404Y-106976190D02*
X143064642Y-106952381D01*
X143064642Y-106952381D02*
X143112261Y-106928571D01*
X143112261Y-106928571D02*
X143159880Y-106880952D01*
X143159880Y-106880952D02*
X143183690Y-106809524D01*
X143183690Y-106809524D02*
X143183690Y-106761905D01*
X143183690Y-106761905D02*
X143159880Y-106690476D01*
X143159880Y-106690476D02*
X143136071Y-106666667D01*
X143136071Y-106666667D02*
X142969404Y-106666667D01*
X142969404Y-106666667D02*
X142969404Y-106761905D01*
X143183690Y-106452381D02*
X142683690Y-106452381D01*
X142683690Y-106452381D02*
X143183690Y-106166667D01*
X143183690Y-106166667D02*
X142683690Y-106166667D01*
X143040833Y-105952380D02*
X143040833Y-105714285D01*
X143183690Y-105999999D02*
X142683690Y-105833333D01*
X142683690Y-105833333D02*
X143183690Y-105666666D01*
X143183690Y-105261905D02*
X143183690Y-105500000D01*
X143183690Y-105500000D02*
X142683690Y-105500000D01*
D10*
X163022142Y-110654763D02*
X163069761Y-110702382D01*
X163069761Y-110702382D02*
X163117380Y-110845239D01*
X163117380Y-110845239D02*
X163117380Y-110940477D01*
X163117380Y-110940477D02*
X163069761Y-111083334D01*
X163069761Y-111083334D02*
X162974523Y-111178572D01*
X162974523Y-111178572D02*
X162879285Y-111226191D01*
X162879285Y-111226191D02*
X162688809Y-111273810D01*
X162688809Y-111273810D02*
X162545952Y-111273810D01*
X162545952Y-111273810D02*
X162355476Y-111226191D01*
X162355476Y-111226191D02*
X162260238Y-111178572D01*
X162260238Y-111178572D02*
X162165000Y-111083334D01*
X162165000Y-111083334D02*
X162117380Y-110940477D01*
X162117380Y-110940477D02*
X162117380Y-110845239D01*
X162117380Y-110845239D02*
X162165000Y-110702382D01*
X162165000Y-110702382D02*
X162212619Y-110654763D01*
X163117380Y-110083334D02*
X163069761Y-110178572D01*
X163069761Y-110178572D02*
X163022142Y-110226191D01*
X163022142Y-110226191D02*
X162926904Y-110273810D01*
X162926904Y-110273810D02*
X162641190Y-110273810D01*
X162641190Y-110273810D02*
X162545952Y-110226191D01*
X162545952Y-110226191D02*
X162498333Y-110178572D01*
X162498333Y-110178572D02*
X162450714Y-110083334D01*
X162450714Y-110083334D02*
X162450714Y-109940477D01*
X162450714Y-109940477D02*
X162498333Y-109845239D01*
X162498333Y-109845239D02*
X162545952Y-109797620D01*
X162545952Y-109797620D02*
X162641190Y-109750001D01*
X162641190Y-109750001D02*
X162926904Y-109750001D01*
X162926904Y-109750001D02*
X163022142Y-109797620D01*
X163022142Y-109797620D02*
X163069761Y-109845239D01*
X163069761Y-109845239D02*
X163117380Y-109940477D01*
X163117380Y-109940477D02*
X163117380Y-110083334D01*
X162450714Y-109321429D02*
X163117380Y-109321429D01*
X162545952Y-109321429D02*
X162498333Y-109273810D01*
X162498333Y-109273810D02*
X162450714Y-109178572D01*
X162450714Y-109178572D02*
X162450714Y-109035715D01*
X162450714Y-109035715D02*
X162498333Y-108940477D01*
X162498333Y-108940477D02*
X162593571Y-108892858D01*
X162593571Y-108892858D02*
X163117380Y-108892858D01*
X162450714Y-108559524D02*
X162450714Y-108178572D01*
X162117380Y-108416667D02*
X162974523Y-108416667D01*
X162974523Y-108416667D02*
X163069761Y-108369048D01*
X163069761Y-108369048D02*
X163117380Y-108273810D01*
X163117380Y-108273810D02*
X163117380Y-108178572D01*
X163117380Y-107845238D02*
X162450714Y-107845238D01*
X162641190Y-107845238D02*
X162545952Y-107797619D01*
X162545952Y-107797619D02*
X162498333Y-107750000D01*
X162498333Y-107750000D02*
X162450714Y-107654762D01*
X162450714Y-107654762D02*
X162450714Y-107559524D01*
X163117380Y-107083333D02*
X163069761Y-107178571D01*
X163069761Y-107178571D02*
X163022142Y-107226190D01*
X163022142Y-107226190D02*
X162926904Y-107273809D01*
X162926904Y-107273809D02*
X162641190Y-107273809D01*
X162641190Y-107273809D02*
X162545952Y-107226190D01*
X162545952Y-107226190D02*
X162498333Y-107178571D01*
X162498333Y-107178571D02*
X162450714Y-107083333D01*
X162450714Y-107083333D02*
X162450714Y-106940476D01*
X162450714Y-106940476D02*
X162498333Y-106845238D01*
X162498333Y-106845238D02*
X162545952Y-106797619D01*
X162545952Y-106797619D02*
X162641190Y-106750000D01*
X162641190Y-106750000D02*
X162926904Y-106750000D01*
X162926904Y-106750000D02*
X163022142Y-106797619D01*
X163022142Y-106797619D02*
X163069761Y-106845238D01*
X163069761Y-106845238D02*
X163117380Y-106940476D01*
X163117380Y-106940476D02*
X163117380Y-107083333D01*
X163117380Y-106178571D02*
X163069761Y-106273809D01*
X163069761Y-106273809D02*
X162974523Y-106321428D01*
X162974523Y-106321428D02*
X162117380Y-106321428D01*
X163117380Y-105654761D02*
X163069761Y-105749999D01*
X163069761Y-105749999D02*
X162974523Y-105797618D01*
X162974523Y-105797618D02*
X162117380Y-105797618D01*
X163069761Y-104892856D02*
X163117380Y-104988094D01*
X163117380Y-104988094D02*
X163117380Y-105178570D01*
X163117380Y-105178570D02*
X163069761Y-105273808D01*
X163069761Y-105273808D02*
X162974523Y-105321427D01*
X162974523Y-105321427D02*
X162593571Y-105321427D01*
X162593571Y-105321427D02*
X162498333Y-105273808D01*
X162498333Y-105273808D02*
X162450714Y-105178570D01*
X162450714Y-105178570D02*
X162450714Y-104988094D01*
X162450714Y-104988094D02*
X162498333Y-104892856D01*
X162498333Y-104892856D02*
X162593571Y-104845237D01*
X162593571Y-104845237D02*
X162688809Y-104845237D01*
X162688809Y-104845237D02*
X162784047Y-105321427D01*
X163117380Y-104416665D02*
X162450714Y-104416665D01*
X162641190Y-104416665D02*
X162545952Y-104369046D01*
X162545952Y-104369046D02*
X162498333Y-104321427D01*
X162498333Y-104321427D02*
X162450714Y-104226189D01*
X162450714Y-104226189D02*
X162450714Y-104130951D01*
X141819761Y-111607142D02*
X141867380Y-111464285D01*
X141867380Y-111464285D02*
X141867380Y-111226190D01*
X141867380Y-111226190D02*
X141819761Y-111130952D01*
X141819761Y-111130952D02*
X141772142Y-111083333D01*
X141772142Y-111083333D02*
X141676904Y-111035714D01*
X141676904Y-111035714D02*
X141581666Y-111035714D01*
X141581666Y-111035714D02*
X141486428Y-111083333D01*
X141486428Y-111083333D02*
X141438809Y-111130952D01*
X141438809Y-111130952D02*
X141391190Y-111226190D01*
X141391190Y-111226190D02*
X141343571Y-111416666D01*
X141343571Y-111416666D02*
X141295952Y-111511904D01*
X141295952Y-111511904D02*
X141248333Y-111559523D01*
X141248333Y-111559523D02*
X141153095Y-111607142D01*
X141153095Y-111607142D02*
X141057857Y-111607142D01*
X141057857Y-111607142D02*
X140962619Y-111559523D01*
X140962619Y-111559523D02*
X140915000Y-111511904D01*
X140915000Y-111511904D02*
X140867380Y-111416666D01*
X140867380Y-111416666D02*
X140867380Y-111178571D01*
X140867380Y-111178571D02*
X140915000Y-111035714D01*
X141819761Y-110226190D02*
X141867380Y-110321428D01*
X141867380Y-110321428D02*
X141867380Y-110511904D01*
X141867380Y-110511904D02*
X141819761Y-110607142D01*
X141819761Y-110607142D02*
X141724523Y-110654761D01*
X141724523Y-110654761D02*
X141343571Y-110654761D01*
X141343571Y-110654761D02*
X141248333Y-110607142D01*
X141248333Y-110607142D02*
X141200714Y-110511904D01*
X141200714Y-110511904D02*
X141200714Y-110321428D01*
X141200714Y-110321428D02*
X141248333Y-110226190D01*
X141248333Y-110226190D02*
X141343571Y-110178571D01*
X141343571Y-110178571D02*
X141438809Y-110178571D01*
X141438809Y-110178571D02*
X141534047Y-110654761D01*
X141867380Y-109749999D02*
X141200714Y-109749999D01*
X141391190Y-109749999D02*
X141295952Y-109702380D01*
X141295952Y-109702380D02*
X141248333Y-109654761D01*
X141248333Y-109654761D02*
X141200714Y-109559523D01*
X141200714Y-109559523D02*
X141200714Y-109464285D01*
X141200714Y-109226189D02*
X141867380Y-108988094D01*
X141867380Y-108988094D02*
X141200714Y-108749999D01*
X141867380Y-108226189D02*
X141819761Y-108321427D01*
X141819761Y-108321427D02*
X141772142Y-108369046D01*
X141772142Y-108369046D02*
X141676904Y-108416665D01*
X141676904Y-108416665D02*
X141391190Y-108416665D01*
X141391190Y-108416665D02*
X141295952Y-108369046D01*
X141295952Y-108369046D02*
X141248333Y-108321427D01*
X141248333Y-108321427D02*
X141200714Y-108226189D01*
X141200714Y-108226189D02*
X141200714Y-108083332D01*
X141200714Y-108083332D02*
X141248333Y-107988094D01*
X141248333Y-107988094D02*
X141295952Y-107940475D01*
X141295952Y-107940475D02*
X141391190Y-107892856D01*
X141391190Y-107892856D02*
X141676904Y-107892856D01*
X141676904Y-107892856D02*
X141772142Y-107940475D01*
X141772142Y-107940475D02*
X141819761Y-107988094D01*
X141819761Y-107988094D02*
X141867380Y-108083332D01*
X141867380Y-108083332D02*
X141867380Y-108226189D01*
X164022142Y-114166666D02*
X164069761Y-114214285D01*
X164069761Y-114214285D02*
X164117380Y-114357142D01*
X164117380Y-114357142D02*
X164117380Y-114452380D01*
X164117380Y-114452380D02*
X164069761Y-114595237D01*
X164069761Y-114595237D02*
X163974523Y-114690475D01*
X163974523Y-114690475D02*
X163879285Y-114738094D01*
X163879285Y-114738094D02*
X163688809Y-114785713D01*
X163688809Y-114785713D02*
X163545952Y-114785713D01*
X163545952Y-114785713D02*
X163355476Y-114738094D01*
X163355476Y-114738094D02*
X163260238Y-114690475D01*
X163260238Y-114690475D02*
X163165000Y-114595237D01*
X163165000Y-114595237D02*
X163117380Y-114452380D01*
X163117380Y-114452380D02*
X163117380Y-114357142D01*
X163117380Y-114357142D02*
X163165000Y-114214285D01*
X163165000Y-114214285D02*
X163212619Y-114166666D01*
X164117380Y-113214285D02*
X164117380Y-113785713D01*
X164117380Y-113499999D02*
X163117380Y-113499999D01*
X163117380Y-113499999D02*
X163260238Y-113595237D01*
X163260238Y-113595237D02*
X163355476Y-113690475D01*
X163355476Y-113690475D02*
X163403095Y-113785713D01*
X144272142Y-117166666D02*
X144319761Y-117214285D01*
X144319761Y-117214285D02*
X144367380Y-117357142D01*
X144367380Y-117357142D02*
X144367380Y-117452380D01*
X144367380Y-117452380D02*
X144319761Y-117595237D01*
X144319761Y-117595237D02*
X144224523Y-117690475D01*
X144224523Y-117690475D02*
X144129285Y-117738094D01*
X144129285Y-117738094D02*
X143938809Y-117785713D01*
X143938809Y-117785713D02*
X143795952Y-117785713D01*
X143795952Y-117785713D02*
X143605476Y-117738094D01*
X143605476Y-117738094D02*
X143510238Y-117690475D01*
X143510238Y-117690475D02*
X143415000Y-117595237D01*
X143415000Y-117595237D02*
X143367380Y-117452380D01*
X143367380Y-117452380D02*
X143367380Y-117357142D01*
X143367380Y-117357142D02*
X143415000Y-117214285D01*
X143415000Y-117214285D02*
X143462619Y-117166666D01*
X143462619Y-116785713D02*
X143415000Y-116738094D01*
X143415000Y-116738094D02*
X143367380Y-116642856D01*
X143367380Y-116642856D02*
X143367380Y-116404761D01*
X143367380Y-116404761D02*
X143415000Y-116309523D01*
X143415000Y-116309523D02*
X143462619Y-116261904D01*
X143462619Y-116261904D02*
X143557857Y-116214285D01*
X143557857Y-116214285D02*
X143653095Y-116214285D01*
X143653095Y-116214285D02*
X143795952Y-116261904D01*
X143795952Y-116261904D02*
X144367380Y-116833332D01*
X144367380Y-116833332D02*
X144367380Y-116214285D01*
X141022280Y-113831333D02*
X141736566Y-113831333D01*
X141736566Y-113831333D02*
X141879423Y-113878952D01*
X141879423Y-113878952D02*
X141974661Y-113974190D01*
X141974661Y-113974190D02*
X142022280Y-114117047D01*
X142022280Y-114117047D02*
X142022280Y-114212285D01*
X141117519Y-113402761D02*
X141069900Y-113355142D01*
X141069900Y-113355142D02*
X141022280Y-113259904D01*
X141022280Y-113259904D02*
X141022280Y-113021809D01*
X141022280Y-113021809D02*
X141069900Y-112926571D01*
X141069900Y-112926571D02*
X141117519Y-112878952D01*
X141117519Y-112878952D02*
X141212757Y-112831333D01*
X141212757Y-112831333D02*
X141307995Y-112831333D01*
X141307995Y-112831333D02*
X141450852Y-112878952D01*
X141450852Y-112878952D02*
X142022280Y-113450380D01*
X142022280Y-113450380D02*
X142022280Y-112831333D01*
X150988095Y-117367380D02*
X150988095Y-118176904D01*
X150988095Y-118176904D02*
X151035714Y-118272142D01*
X151035714Y-118272142D02*
X151083333Y-118319761D01*
X151083333Y-118319761D02*
X151178571Y-118367380D01*
X151178571Y-118367380D02*
X151369047Y-118367380D01*
X151369047Y-118367380D02*
X151464285Y-118319761D01*
X151464285Y-118319761D02*
X151511904Y-118272142D01*
X151511904Y-118272142D02*
X151559523Y-118176904D01*
X151559523Y-118176904D02*
X151559523Y-117367380D01*
X152559523Y-118367380D02*
X151988095Y-118367380D01*
X152273809Y-118367380D02*
X152273809Y-117367380D01*
X152273809Y-117367380D02*
X152178571Y-117510238D01*
X152178571Y-117510238D02*
X152083333Y-117605476D01*
X152083333Y-117605476D02*
X151988095Y-117653095D01*
X163416666Y-110617380D02*
X163416666Y-111331666D01*
X163416666Y-111331666D02*
X163369047Y-111474523D01*
X163369047Y-111474523D02*
X163273809Y-111569761D01*
X163273809Y-111569761D02*
X163130952Y-111617380D01*
X163130952Y-111617380D02*
X163035714Y-111617380D01*
X164416666Y-111617380D02*
X163845238Y-111617380D01*
X164130952Y-111617380D02*
X164130952Y-110617380D01*
X164130952Y-110617380D02*
X164035714Y-110760238D01*
X164035714Y-110760238D02*
X163940476Y-110855476D01*
X163940476Y-110855476D02*
X163845238Y-110903095D01*
D12*
X163010000Y-112577500D02*
X159990000Y-112577500D01*
X159990000Y-112577500D02*
X159990000Y-116787500D01*
X163010000Y-116787500D02*
X163010000Y-112577500D01*
X144577500Y-115240000D02*
X144577500Y-118260000D01*
X144577500Y-118260000D02*
X148787500Y-118260000D01*
X148787500Y-115240000D02*
X144577500Y-115240000D01*
X142455000Y-114895000D02*
X142455000Y-113625000D01*
X143725000Y-114895000D02*
X142455000Y-114895000D01*
X145885000Y-112582071D02*
X145885000Y-112185000D01*
X146645000Y-112582071D02*
X146645000Y-112185000D01*
X148425000Y-112582071D02*
X148425000Y-112185000D01*
X149185000Y-112582071D02*
X149185000Y-112185000D01*
X143345000Y-112515000D02*
X143345000Y-112185000D01*
X144105000Y-112515000D02*
X144105000Y-112185000D01*
X142395000Y-112185000D02*
X150135000Y-112185000D01*
X144995000Y-112185000D02*
X144995000Y-109525000D01*
X147535000Y-112185000D02*
X147535000Y-109525000D01*
X150135000Y-112185000D02*
X150135000Y-109525000D01*
X142395000Y-109525000D02*
X142395000Y-112185000D01*
X143345000Y-109525000D02*
X143345000Y-103525000D01*
X143405000Y-109525000D02*
X143405000Y-103525000D01*
X143525000Y-109525000D02*
X143525000Y-103525000D01*
X143645000Y-109525000D02*
X143645000Y-103525000D01*
X143765000Y-109525000D02*
X143765000Y-103525000D01*
X143885000Y-109525000D02*
X143885000Y-103525000D01*
X144005000Y-109525000D02*
X144005000Y-103525000D01*
X145885000Y-109525000D02*
X145885000Y-103525000D01*
X148425000Y-109525000D02*
X148425000Y-103525000D01*
X150135000Y-109525000D02*
X142395000Y-109525000D01*
X143345000Y-103525000D02*
X144105000Y-103525000D01*
X144105000Y-103525000D02*
X144105000Y-109525000D01*
X145885000Y-103525000D02*
X146645000Y-103525000D01*
X146645000Y-103525000D02*
X146645000Y-109525000D01*
X148425000Y-103525000D02*
X149185000Y-103525000D01*
X149185000Y-103525000D02*
X149185000Y-109525000D01*
X159100000Y-118410000D02*
X153090000Y-118410000D01*
X156850000Y-111590000D02*
X153090000Y-111590000D01*
X153090000Y-118410000D02*
X153090000Y-117150000D01*
X153090000Y-111590000D02*
X153090000Y-112850000D01*
X162060000Y-111410000D02*
X162060000Y-103590000D01*
X162060000Y-109810000D02*
X161140000Y-109810000D01*
X162060000Y-103590000D02*
X153940000Y-103590000D01*
X161300000Y-107450000D02*
X161300000Y-105850000D01*
X161300000Y-105850000D02*
X160300000Y-105850000D01*
X161140000Y-111410000D02*
X162060000Y-111410000D01*
X161140000Y-109810000D02*
X161140000Y-111410000D01*
X160860000Y-109810000D02*
X161140000Y-109810000D01*
X160860000Y-109810000D02*
X160860000Y-111025000D01*
X160800000Y-105850000D02*
X160800000Y-103590000D01*
X160300000Y-107450000D02*
X161300000Y-107450000D01*
X160300000Y-105850000D02*
X160300000Y-107450000D01*
X160300000Y-105850000D02*
X160300000Y-103590000D01*
X159500000Y-107950000D02*
X156500000Y-107950000D01*
X159500000Y-103590000D02*
X159500000Y-107950000D01*
X156500000Y-107950000D02*
X156500000Y-103590000D01*
X155700000Y-107450000D02*
X154700000Y-107450000D01*
X155700000Y-105850000D02*
X155700000Y-107450000D01*
X154860000Y-111410000D02*
X154860000Y-109810000D01*
X154860000Y-109810000D02*
X155140000Y-109810000D01*
X154700000Y-107450000D02*
X154700000Y-105850000D01*
X154700000Y-105850000D02*
X155700000Y-105850000D01*
X153940000Y-111410000D02*
X154860000Y-111410000D01*
X153940000Y-109810000D02*
X154860000Y-109810000D01*
X153940000Y-103590000D02*
X153940000Y-111410000D01*
%LPC*%
D13*
X161500000Y-113500000D03*
X161500000Y-116575000D03*
D14*
X145500000Y-116750000D03*
X148575000Y-116750000D03*
D15*
X143724999Y-113624999D03*
D16*
X146264999Y-113624999D03*
X148804999Y-113624999D03*
D17*
X158149999Y-117299999D03*
X158149999Y-114999999D03*
X158149999Y-112699999D03*
D18*
X151849999Y-114999999D03*
D19*
X160000000Y-109950000D03*
D20*
X157999999Y-109949999D03*
X155999999Y-109949999D03*
D21*
X166751000Y-111125000D03*
X138049000Y-111125000D03*
M02*
